M48
;Layer_Color=6321
;FILE_FORMAT=2:5
INCH,LZ
;TYPE=PLATED
T1F00S00C0.03543
T2F00S00C0.03937
T3F00S00C0.04000
T4F00S00C0.06299
;TYPE=NON_PLATED
T5F00S00C0.12795
%
T01
X0484685Y0412697
Y0422697
Y0432697
X0494685Y0437697
Y0427697
Y0417697
T02
X0439961Y0416339
Y0434055
X0465551
Y0416339
T03
X0409449Y0400197
Y0410197
Y0420197
Y0430197
Y0440197
Y0450197
T04
X0488189Y0480315
X0523622
T05
X0519685Y0405197
Y0445197
M30
