G04*
G04 #@! TF.GenerationSoftware,Altium Limited,CircuitStudio,1.5.2 (30)*
G04*
G04 Layer_Color=13948096*
%FSLAX25Y25*%
%MOIN*%
G70*
G01*
G75*
G36*
X461879Y397794D02*
X461070D01*
X459599Y401575D01*
X460408D01*
X460720Y400716D01*
X462231D01*
X462563Y401575D01*
X463392D01*
X461879Y397794D01*
D02*
G37*
G36*
X502174Y401634D02*
X502230Y401631D01*
X502287Y401626D01*
X502339Y401619D01*
X502390Y401612D01*
X502437Y401602D01*
X502481Y401592D01*
X502521Y401582D01*
X502558Y401572D01*
X502592Y401565D01*
X502619Y401555D01*
X502644Y401548D01*
X502663Y401540D01*
X502676Y401535D01*
X502685Y401531D01*
X502688D01*
X502624Y400967D01*
X502558Y400989D01*
X502499Y401007D01*
X502449Y401019D01*
X502408Y401026D01*
X502376Y401031D01*
X502353Y401036D01*
X502334D01*
X502309Y401034D01*
X502284Y401031D01*
X502262Y401026D01*
X502245Y401019D01*
X502230Y401012D01*
X502221Y401007D01*
X502213Y401004D01*
X502211Y401002D01*
X502193Y400987D01*
X502181Y400972D01*
X502169Y400957D01*
X502162Y400943D01*
X502154Y400930D01*
X502149Y400920D01*
X502147Y400913D01*
Y400911D01*
X502144Y400896D01*
X502142Y400876D01*
X502139Y400854D01*
Y400824D01*
X502137Y400795D01*
X502135Y400761D01*
Y400692D01*
Y400660D01*
X502132Y400628D01*
Y400596D01*
Y400571D01*
Y400549D01*
Y400532D01*
Y400522D01*
Y400517D01*
Y399415D01*
X502627D01*
Y398837D01*
X502132D01*
Y397868D01*
X501404Y398291D01*
Y398837D01*
X501072D01*
Y399415D01*
X501404D01*
Y400608D01*
Y400677D01*
Y400741D01*
X501406Y400797D01*
X501409Y400849D01*
Y400896D01*
X501411Y400938D01*
X501414Y400975D01*
X501416Y401007D01*
X501419Y401036D01*
X501421Y401058D01*
X501424Y401078D01*
Y401093D01*
X501426Y401105D01*
X501429Y401112D01*
Y401117D01*
Y401120D01*
X501441Y401184D01*
X501455Y401238D01*
X501473Y401287D01*
X501490Y401326D01*
X501505Y401361D01*
X501517Y401383D01*
X501527Y401398D01*
X501529Y401400D01*
Y401403D01*
X501561Y401440D01*
X501596Y401472D01*
X501635Y401501D01*
X501672Y401526D01*
X501706Y401545D01*
X501736Y401560D01*
X501746Y401565D01*
X501753Y401570D01*
X501758Y401572D01*
X501761D01*
X501822Y401594D01*
X501884Y401609D01*
X501943Y401621D01*
X501997Y401629D01*
X502021Y401631D01*
X502043Y401634D01*
X502066D01*
X502083Y401636D01*
X502115D01*
X502174Y401634D01*
D02*
G37*
G36*
X431188Y401627D02*
X428656D01*
Y397475D01*
X427636D01*
Y402477D01*
X431188D01*
Y401627D01*
D02*
G37*
G36*
X472541Y401636D02*
X472647Y401626D01*
X472747Y401612D01*
X472843Y401592D01*
X472932Y401570D01*
X473015Y401543D01*
X473092Y401516D01*
X473161Y401489D01*
X473222Y401462D01*
X473276Y401435D01*
X473323Y401407D01*
X473362Y401385D01*
X473394Y401366D01*
X473416Y401351D01*
X473429Y401341D01*
X473434Y401339D01*
X473505Y401280D01*
X473571Y401213D01*
X473633Y401142D01*
X473690Y401068D01*
X473741Y400992D01*
X473788Y400915D01*
X473830Y400842D01*
X473867Y400768D01*
X473899Y400697D01*
X473926Y400633D01*
X473950Y400574D01*
X473970Y400522D01*
X473977Y400500D01*
X473985Y400480D01*
X473990Y400463D01*
X473994Y400448D01*
X473997Y400436D01*
X474000Y400428D01*
X474002Y400423D01*
Y400421D01*
X473261Y400185D01*
X473242Y400261D01*
X473220Y400330D01*
X473198Y400396D01*
X473170Y400456D01*
X473146Y400510D01*
X473119Y400561D01*
X473092Y400606D01*
X473067Y400645D01*
X473042Y400682D01*
X473020Y400711D01*
X472998Y400736D01*
X472981Y400758D01*
X472966Y400775D01*
X472954Y400785D01*
X472947Y400793D01*
X472944Y400795D01*
X472902Y400829D01*
X472858Y400859D01*
X472814Y400884D01*
X472769Y400906D01*
X472725Y400925D01*
X472683Y400940D01*
X472642Y400952D01*
X472602Y400962D01*
X472565Y400970D01*
X472531Y400977D01*
X472499Y400982D01*
X472474Y400984D01*
X472452D01*
X472435Y400987D01*
X472423D01*
X472346Y400984D01*
X472275Y400975D01*
X472206Y400960D01*
X472145Y400940D01*
X472083Y400915D01*
X472029Y400891D01*
X471977Y400864D01*
X471933Y400834D01*
X471891Y400807D01*
X471854Y400780D01*
X471825Y400753D01*
X471798Y400731D01*
X471778Y400711D01*
X471763Y400697D01*
X471754Y400687D01*
X471751Y400684D01*
X471707Y400623D01*
X471665Y400552D01*
X471630Y400478D01*
X471601Y400396D01*
X471576Y400313D01*
X471557Y400227D01*
X471539Y400141D01*
X471525Y400057D01*
X471515Y399978D01*
X471508Y399904D01*
X471500Y399836D01*
X471498Y399806D01*
Y399779D01*
X471495Y399752D01*
Y399730D01*
X471493Y399710D01*
Y399693D01*
Y399678D01*
Y399668D01*
Y399663D01*
Y399661D01*
X471495Y399538D01*
X471505Y399425D01*
X471517Y399319D01*
X471534Y399223D01*
X471554Y399134D01*
X471576Y399056D01*
X471598Y398982D01*
X471623Y398918D01*
X471648Y398864D01*
X471670Y398815D01*
X471692Y398775D01*
X471712Y398741D01*
X471729Y398716D01*
X471741Y398699D01*
X471751Y398687D01*
X471754Y398684D01*
X471805Y398630D01*
X471859Y398583D01*
X471913Y398544D01*
X471972Y398510D01*
X472029Y398480D01*
X472086Y398456D01*
X472142Y398436D01*
X472194Y398419D01*
X472246Y398406D01*
X472290Y398396D01*
X472332Y398392D01*
X472368Y398387D01*
X472398Y398384D01*
X472418Y398382D01*
X472437D01*
X472494Y398384D01*
X472548Y398389D01*
X472597Y398396D01*
X472647Y398409D01*
X472693Y398421D01*
X472735Y398436D01*
X472774Y398451D01*
X472811Y398465D01*
X472843Y398483D01*
X472870Y398497D01*
X472895Y398512D01*
X472917Y398524D01*
X472932Y398537D01*
X472944Y398544D01*
X472952Y398549D01*
X472954Y398552D01*
X472993Y398583D01*
X473028Y398620D01*
X473060Y398657D01*
X473089Y398697D01*
X473114Y398733D01*
X473136Y398773D01*
X473158Y398810D01*
X473175Y398847D01*
X473190Y398881D01*
X473202Y398913D01*
X473212Y398943D01*
X473220Y398967D01*
X473227Y398987D01*
X473232Y399004D01*
X473234Y399014D01*
Y399016D01*
X473990Y398837D01*
X473965Y398753D01*
X473936Y398677D01*
X473906Y398603D01*
X473876Y398537D01*
X473844Y398473D01*
X473812Y398416D01*
X473780Y398364D01*
X473748Y398318D01*
X473719Y398276D01*
X473692Y398239D01*
X473667Y398210D01*
X473645Y398183D01*
X473628Y398163D01*
X473616Y398150D01*
X473606Y398141D01*
X473603Y398138D01*
X473520Y398067D01*
X473431Y398003D01*
X473338Y397949D01*
X473244Y397902D01*
X473151Y397863D01*
X473057Y397828D01*
X472966Y397804D01*
X472878Y397781D01*
X472794Y397764D01*
X472720Y397752D01*
X472651Y397742D01*
X472619Y397740D01*
X472592Y397737D01*
X472565Y397735D01*
X472543Y397732D01*
X472523D01*
X472506Y397730D01*
X472477D01*
X472403Y397732D01*
X472332Y397735D01*
X472263Y397742D01*
X472194Y397752D01*
X472063Y397779D01*
X471940Y397811D01*
X471827Y397850D01*
X471722Y397895D01*
X471626Y397941D01*
X471537Y397991D01*
X471458Y398040D01*
X471424Y398062D01*
X471389Y398087D01*
X471360Y398109D01*
X471330Y398131D01*
X471306Y398150D01*
X471281Y398170D01*
X471262Y398187D01*
X471244Y398202D01*
X471227Y398217D01*
X471215Y398229D01*
X471205Y398239D01*
X471198Y398246D01*
X471195Y398249D01*
X471193Y398251D01*
X471148Y398301D01*
X471106Y398355D01*
X471067Y398409D01*
X471033Y398463D01*
X470998Y398522D01*
X470966Y398581D01*
X470912Y398702D01*
X470863Y398822D01*
X470824Y398945D01*
X470792Y399063D01*
X470767Y399179D01*
X470747Y399289D01*
X470738Y399341D01*
X470730Y399390D01*
X470725Y399437D01*
X470720Y399481D01*
X470715Y399523D01*
X470713Y399563D01*
X470710Y399597D01*
X470708Y399626D01*
Y399654D01*
X470706Y399676D01*
Y399693D01*
Y399708D01*
Y399715D01*
Y399717D01*
X470708Y399801D01*
X470710Y399880D01*
X470718Y399959D01*
X470725Y400035D01*
X470750Y400180D01*
X470782Y400313D01*
X470799Y400377D01*
X470819Y400438D01*
X470838Y400497D01*
X470858Y400554D01*
X470880Y400608D01*
X470902Y400660D01*
X470925Y400709D01*
X470949Y400756D01*
X470971Y400800D01*
X470993Y400842D01*
X471016Y400879D01*
X471038Y400915D01*
X471057Y400948D01*
X471077Y400977D01*
X471097Y401007D01*
X471114Y401031D01*
X471131Y401053D01*
X471146Y401070D01*
X471158Y401088D01*
X471171Y401100D01*
X471178Y401112D01*
X471185Y401120D01*
X471188Y401122D01*
X471190Y401125D01*
X471237Y401171D01*
X471284Y401216D01*
X471333Y401255D01*
X471384Y401294D01*
X471434Y401329D01*
X471485Y401363D01*
X471589Y401422D01*
X471694Y401472D01*
X471798Y401513D01*
X471896Y401548D01*
X471992Y401575D01*
X472083Y401594D01*
X472167Y401612D01*
X472204Y401617D01*
X472241Y401624D01*
X472275Y401626D01*
X472304Y401631D01*
X472332Y401634D01*
X472356Y401636D01*
X472378D01*
X472396Y401639D01*
X472430D01*
X472541Y401636D01*
D02*
G37*
G36*
X493480Y399838D02*
X494417Y398837D01*
X493525D01*
X492676Y399801D01*
Y397794D01*
X491950D01*
Y401575D01*
X492676D01*
Y400699D01*
X493013Y400345D01*
X493702Y401575D01*
X494484D01*
X493480Y399838D01*
D02*
G37*
G36*
X487298Y401634D02*
X487377Y401626D01*
X487451Y401617D01*
X487522Y401604D01*
X487589Y401587D01*
X487650Y401570D01*
X487707Y401553D01*
X487758Y401533D01*
X487805Y401513D01*
X487847Y401496D01*
X487881Y401476D01*
X487911Y401462D01*
X487935Y401449D01*
X487950Y401440D01*
X487962Y401432D01*
X487965Y401430D01*
X488019Y401388D01*
X488071Y401344D01*
X488117Y401297D01*
X488162Y401248D01*
X488201Y401198D01*
X488238Y401147D01*
X488270Y401098D01*
X488299Y401048D01*
X488324Y401004D01*
X488346Y400962D01*
X488363Y400923D01*
X488378Y400891D01*
X488390Y400861D01*
X488398Y400842D01*
X488403Y400829D01*
X488405Y400824D01*
X487684Y400704D01*
X487672Y400741D01*
X487660Y400775D01*
X487645Y400807D01*
X487633Y400837D01*
X487618Y400864D01*
X487603Y400888D01*
X487589Y400911D01*
X487574Y400930D01*
X487547Y400965D01*
X487527Y400987D01*
X487512Y400999D01*
X487510Y401004D01*
X487507D01*
X487463Y401034D01*
X487414Y401056D01*
X487367Y401073D01*
X487320Y401083D01*
X487281Y401090D01*
X487264Y401093D01*
X487252D01*
X487239Y401095D01*
X487222D01*
X487175Y401093D01*
X487131Y401088D01*
X487089Y401078D01*
X487050Y401068D01*
X487013Y401053D01*
X486978Y401039D01*
X486949Y401024D01*
X486919Y401007D01*
X486892Y400989D01*
X486870Y400975D01*
X486851Y400960D01*
X486833Y400945D01*
X486821Y400935D01*
X486811Y400925D01*
X486806Y400920D01*
X486804Y400918D01*
X486774Y400884D01*
X486747Y400844D01*
X486725Y400805D01*
X486705Y400763D01*
X486688Y400721D01*
X486676Y400679D01*
X486654Y400601D01*
X486646Y400561D01*
X486641Y400527D01*
X486636Y400497D01*
X486634Y400470D01*
X486632Y400448D01*
X486629Y400431D01*
Y400419D01*
Y400416D01*
X488445D01*
Y400340D01*
X488442Y400264D01*
X488440Y400192D01*
X488435Y400123D01*
X488427Y400057D01*
X488420Y399993D01*
X488410Y399932D01*
X488398Y399870D01*
X488385Y399814D01*
X488373Y399759D01*
X488358Y399708D01*
X488344Y399658D01*
X488329Y399612D01*
X488312Y399568D01*
X488280Y399484D01*
X488248Y399412D01*
X488216Y399351D01*
X488186Y399297D01*
X488159Y399255D01*
X488137Y399221D01*
X488120Y399199D01*
X488110Y399184D01*
X488105Y399179D01*
X488036Y399107D01*
X487962Y399046D01*
X487886Y398989D01*
X487805Y398945D01*
X487726Y398906D01*
X487645Y398871D01*
X487566Y398844D01*
X487490Y398825D01*
X487419Y398807D01*
X487352Y398795D01*
X487293Y398785D01*
X487242Y398780D01*
X487219Y398778D01*
X487200Y398775D01*
X487183D01*
X487168Y398773D01*
X487141D01*
X487042Y398778D01*
X486946Y398790D01*
X486855Y398807D01*
X486772Y398832D01*
X486691Y398861D01*
X486617Y398896D01*
X486548Y398930D01*
X486486Y398965D01*
X486432Y399002D01*
X486383Y399036D01*
X486339Y399071D01*
X486304Y399098D01*
X486277Y399122D01*
X486258Y399142D01*
X486245Y399154D01*
X486240Y399159D01*
X486179Y399235D01*
X486125Y399317D01*
X486076Y399400D01*
X486036Y399489D01*
X486002Y399577D01*
X485972Y399666D01*
X485950Y399754D01*
X485930Y399838D01*
X485916Y399917D01*
X485906Y399991D01*
X485896Y400057D01*
X485894Y400086D01*
X485891Y400114D01*
Y400138D01*
X485889Y400160D01*
Y400180D01*
X485886Y400197D01*
Y400210D01*
Y400219D01*
Y400224D01*
Y400227D01*
X485889Y400332D01*
X485898Y400431D01*
X485911Y400527D01*
X485928Y400615D01*
X485950Y400699D01*
X485972Y400775D01*
X485997Y400849D01*
X486022Y400913D01*
X486046Y400972D01*
X486071Y401024D01*
X486095Y401068D01*
X486115Y401105D01*
X486132Y401132D01*
X486144Y401154D01*
X486154Y401166D01*
X486157Y401171D01*
X486189Y401213D01*
X486226Y401253D01*
X486263Y401289D01*
X486300Y401324D01*
X486381Y401388D01*
X486467Y401440D01*
X486553Y401486D01*
X486641Y401523D01*
X486730Y401553D01*
X486814Y401577D01*
X486895Y401597D01*
X486971Y401612D01*
X487038Y401621D01*
X487069Y401626D01*
X487097Y401629D01*
X487124Y401631D01*
X487146Y401634D01*
X487165D01*
X487183Y401636D01*
X487215D01*
X487298Y401634D01*
D02*
G37*
G36*
X421335Y407436D02*
X420256D01*
X419020Y411168D01*
X417744Y407436D01*
X416642D01*
X418442Y412477D01*
X419528D01*
X421335Y407436D01*
D02*
G37*
G36*
X423969Y412474D02*
X424061Y412467D01*
X424150Y412461D01*
X424228Y412454D01*
X424304Y412444D01*
X424369Y412434D01*
X424432Y412425D01*
X424487Y412415D01*
X424533Y412405D01*
X424576Y412395D01*
X424609Y412389D01*
X424635Y412382D01*
X424655Y412375D01*
X424668Y412372D01*
X424671D01*
X424753Y412343D01*
X424832Y412313D01*
X424904Y412280D01*
X424973Y412247D01*
X425035Y412215D01*
X425094Y412182D01*
X425150Y412149D01*
X425196Y412116D01*
X425242Y412087D01*
X425278Y412057D01*
X425311Y412034D01*
X425337Y412011D01*
X425360Y411995D01*
X425373Y411978D01*
X425383Y411972D01*
X425386Y411969D01*
X425452Y411903D01*
X425511Y411831D01*
X425567Y411759D01*
X425619Y411687D01*
X425668Y411611D01*
X425711Y411539D01*
X425753Y411467D01*
X425790Y411395D01*
X425819Y411332D01*
X425849Y411270D01*
X425872Y411217D01*
X425891Y411172D01*
X425908Y411132D01*
X425918Y411103D01*
X425924Y411086D01*
X425927Y411080D01*
X425954Y410994D01*
X425980Y410903D01*
X426016Y410719D01*
X426046Y410542D01*
X426055Y410453D01*
X426062Y410371D01*
X426068Y410296D01*
X426075Y410224D01*
X426078Y410161D01*
Y410109D01*
X426082Y410063D01*
Y410030D01*
Y410020D01*
Y410010D01*
Y410007D01*
Y410004D01*
X426078Y409873D01*
X426075Y409748D01*
X426065Y409630D01*
X426055Y409518D01*
X426042Y409413D01*
X426029Y409315D01*
X426013Y409227D01*
X425999Y409141D01*
X425983Y409069D01*
X425967Y409003D01*
X425954Y408948D01*
X425941Y408899D01*
X425931Y408862D01*
X425921Y408836D01*
X425918Y408820D01*
X425914Y408813D01*
X425881Y408725D01*
X425845Y408639D01*
X425809Y408557D01*
X425770Y408482D01*
X425731Y408410D01*
X425691Y408344D01*
X425649Y408282D01*
X425612Y408223D01*
X425576Y408174D01*
X425540Y408128D01*
X425511Y408088D01*
X425485Y408056D01*
X425462Y408029D01*
X425445Y408013D01*
X425435Y408000D01*
X425432Y407997D01*
X425373Y407937D01*
X425311Y407882D01*
X425245Y407829D01*
X425180Y407783D01*
X425117Y407741D01*
X425055Y407701D01*
X424993Y407669D01*
X424937Y407639D01*
X424881Y407613D01*
X424832Y407590D01*
X424786Y407570D01*
X424750Y407557D01*
X424717Y407544D01*
X424694Y407537D01*
X424681Y407531D01*
X424674D01*
X424609Y407514D01*
X424537Y407498D01*
X424461Y407488D01*
X424386Y407475D01*
X424225Y407459D01*
X424146Y407452D01*
X424071Y407449D01*
X423999Y407442D01*
X423930Y407439D01*
X423871D01*
X423818Y407436D01*
X421854D01*
Y412477D01*
X423871D01*
X423969Y412474D01*
D02*
G37*
G36*
X429057D02*
X429148Y412467D01*
X429237Y412461D01*
X429316Y412454D01*
X429391Y412444D01*
X429457Y412434D01*
X429519Y412425D01*
X429575Y412415D01*
X429621Y412405D01*
X429663Y412395D01*
X429696Y412389D01*
X429722Y412382D01*
X429742Y412375D01*
X429755Y412372D01*
X429758D01*
X429840Y412343D01*
X429919Y412313D01*
X429991Y412280D01*
X430060Y412247D01*
X430123Y412215D01*
X430182Y412182D01*
X430237Y412149D01*
X430283Y412116D01*
X430329Y412087D01*
X430365Y412057D01*
X430398Y412034D01*
X430424Y412011D01*
X430447Y411995D01*
X430460Y411978D01*
X430470Y411972D01*
X430474Y411969D01*
X430539Y411903D01*
X430598Y411831D01*
X430654Y411759D01*
X430706Y411687D01*
X430756Y411611D01*
X430798Y411539D01*
X430841Y411467D01*
X430877Y411395D01*
X430906Y411332D01*
X430936Y411270D01*
X430959Y411217D01*
X430979Y411172D01*
X430995Y411132D01*
X431005Y411103D01*
X431011Y411086D01*
X431015Y411080D01*
X431041Y410994D01*
X431067Y410903D01*
X431103Y410719D01*
X431133Y410542D01*
X431143Y410453D01*
X431149Y410371D01*
X431156Y410296D01*
X431162Y410224D01*
X431166Y410161D01*
Y410109D01*
X431169Y410063D01*
Y410030D01*
Y410020D01*
Y410010D01*
Y410007D01*
Y410004D01*
X431166Y409873D01*
X431162Y409748D01*
X431152Y409630D01*
X431143Y409518D01*
X431130Y409413D01*
X431116Y409315D01*
X431100Y409227D01*
X431087Y409141D01*
X431070Y409069D01*
X431054Y409003D01*
X431041Y408948D01*
X431028Y408899D01*
X431018Y408862D01*
X431008Y408836D01*
X431005Y408820D01*
X431002Y408813D01*
X430969Y408725D01*
X430933Y408639D01*
X430897Y408557D01*
X430857Y408482D01*
X430818Y408410D01*
X430779Y408344D01*
X430736Y408282D01*
X430700Y408223D01*
X430664Y408174D01*
X430628Y408128D01*
X430598Y408088D01*
X430572Y408056D01*
X430549Y408029D01*
X430533Y408013D01*
X430523Y408000D01*
X430519Y407997D01*
X430460Y407937D01*
X430398Y407882D01*
X430332Y407829D01*
X430267Y407783D01*
X430204Y407741D01*
X430142Y407701D01*
X430080Y407669D01*
X430024Y407639D01*
X429968Y407613D01*
X429919Y407590D01*
X429873Y407570D01*
X429837Y407557D01*
X429804Y407544D01*
X429781Y407537D01*
X429768Y407531D01*
X429762D01*
X429696Y407514D01*
X429624Y407498D01*
X429549Y407488D01*
X429473Y407475D01*
X429312Y407459D01*
X429234Y407452D01*
X429158Y407449D01*
X429086Y407442D01*
X429017Y407439D01*
X428958D01*
X428906Y407436D01*
X426941D01*
Y412477D01*
X428958D01*
X429057Y412474D01*
D02*
G37*
G36*
X421513Y397436D02*
X419984D01*
X419079Y400876D01*
X418164Y397436D01*
X416642D01*
Y402477D01*
X417586D01*
Y398508D01*
X418583Y402477D01*
X419564D01*
X420565Y398508D01*
Y402477D01*
X421513D01*
Y397436D01*
D02*
G37*
G36*
X435833Y401496D02*
X435767Y401388D01*
X435705Y401293D01*
X435643Y401201D01*
X435590Y401119D01*
X435538Y401044D01*
X435489Y400978D01*
X435446Y400919D01*
X435407Y400863D01*
X435370Y400821D01*
X435341Y400781D01*
X435315Y400748D01*
X435292Y400722D01*
X435275Y400703D01*
X435262Y400686D01*
X435256Y400680D01*
X435252Y400676D01*
X435167Y400591D01*
X435079Y400512D01*
X434987Y400440D01*
X434902Y400378D01*
X434862Y400352D01*
X434823Y400325D01*
X434790Y400306D01*
X434764Y400286D01*
X434741Y400273D01*
X434721Y400263D01*
X434711Y400256D01*
X434708Y400253D01*
X434829Y400234D01*
X434941Y400207D01*
X435046Y400175D01*
X435144Y400142D01*
X435233Y400102D01*
X435315Y400063D01*
X435390Y400024D01*
X435456Y399984D01*
X435515Y399945D01*
X435564Y399909D01*
X435607Y399876D01*
X435643Y399847D01*
X435669Y399823D01*
X435689Y399804D01*
X435702Y399791D01*
X435705Y399787D01*
X435764Y399715D01*
X435817Y399640D01*
X435859Y399564D01*
X435899Y399486D01*
X435931Y399407D01*
X435958Y399328D01*
X435981Y399253D01*
X435997Y399181D01*
X436010Y399112D01*
X436023Y399049D01*
X436030Y398994D01*
X436033Y398944D01*
X436036Y398905D01*
X436040Y398876D01*
Y398856D01*
Y398849D01*
X436036Y398767D01*
X436030Y398689D01*
X436020Y398610D01*
X436007Y398538D01*
X435987Y398469D01*
X435971Y398403D01*
X435951Y398341D01*
X435931Y398285D01*
X435908Y398233D01*
X435889Y398190D01*
X435872Y398151D01*
X435856Y398118D01*
X435840Y398092D01*
X435830Y398072D01*
X435823Y398059D01*
X435820Y398056D01*
X435777Y397993D01*
X435731Y397934D01*
X435685Y397882D01*
X435636Y397833D01*
X435587Y397790D01*
X435538Y397751D01*
X435489Y397714D01*
X435443Y397685D01*
X435400Y397659D01*
X435361Y397636D01*
X435325Y397616D01*
X435295Y397600D01*
X435269Y397587D01*
X435249Y397580D01*
X435236Y397573D01*
X435233D01*
X435161Y397551D01*
X435079Y397528D01*
X434990Y397508D01*
X434895Y397495D01*
X434701Y397468D01*
X434603Y397459D01*
X434508Y397452D01*
X434419Y397446D01*
X434334Y397442D01*
X434259Y397439D01*
X434190D01*
X434160Y397436D01*
X431917D01*
Y402477D01*
X432934D01*
Y400375D01*
X433202D01*
X433261Y400378D01*
X433317Y400381D01*
X433370Y400384D01*
X433416Y400388D01*
X433455Y400391D01*
X433494Y400397D01*
X433527Y400401D01*
X433557Y400407D01*
X433583Y400414D01*
X433603Y400417D01*
X433622Y400421D01*
X433635Y400424D01*
X433645Y400427D01*
X433648Y400430D01*
X433652D01*
X433711Y400457D01*
X433770Y400486D01*
X433822Y400522D01*
X433868Y400555D01*
X433904Y400588D01*
X433934Y400614D01*
X433954Y400634D01*
X433960Y400637D01*
Y400640D01*
X433990Y400673D01*
X434026Y400716D01*
X434062Y400765D01*
X434104Y400821D01*
X434147Y400880D01*
X434193Y400942D01*
X434281Y401070D01*
X434324Y401129D01*
X434364Y401188D01*
X434400Y401240D01*
X434432Y401286D01*
X434459Y401326D01*
X434478Y401355D01*
X434491Y401375D01*
X434495Y401378D01*
Y401381D01*
X435233Y402477D01*
X436450D01*
X435833Y401496D01*
D02*
G37*
G36*
X424789Y402559D02*
X424930Y402546D01*
X425065Y402526D01*
X425193Y402500D01*
X425311Y402470D01*
X425422Y402434D01*
X425524Y402398D01*
X425616Y402362D01*
X425698Y402326D01*
X425770Y402290D01*
X425832Y402254D01*
X425885Y402224D01*
X425927Y402198D01*
X425957Y402179D01*
X425973Y402165D01*
X425980Y402162D01*
X426075Y402083D01*
X426164Y401995D01*
X426246Y401900D01*
X426321Y401801D01*
X426390Y401700D01*
X426452Y401598D01*
X426508Y401500D01*
X426557Y401401D01*
X426600Y401306D01*
X426636Y401221D01*
X426669Y401142D01*
X426695Y401073D01*
X426705Y401044D01*
X426715Y401017D01*
X426721Y400994D01*
X426728Y400975D01*
X426731Y400958D01*
X426734Y400949D01*
X426738Y400942D01*
Y400939D01*
X425750Y400624D01*
X425724Y400726D01*
X425695Y400817D01*
X425665Y400906D01*
X425629Y400985D01*
X425596Y401057D01*
X425560Y401126D01*
X425524Y401185D01*
X425491Y401237D01*
X425458Y401286D01*
X425429Y401326D01*
X425399Y401359D01*
X425376Y401388D01*
X425357Y401411D01*
X425340Y401424D01*
X425330Y401434D01*
X425327Y401437D01*
X425271Y401483D01*
X425212Y401523D01*
X425153Y401555D01*
X425094Y401585D01*
X425035Y401611D01*
X424979Y401631D01*
X424924Y401647D01*
X424871Y401660D01*
X424822Y401670D01*
X424776Y401680D01*
X424733Y401687D01*
X424701Y401690D01*
X424671D01*
X424648Y401693D01*
X424632D01*
X424530Y401690D01*
X424435Y401677D01*
X424343Y401657D01*
X424261Y401631D01*
X424179Y401598D01*
X424107Y401565D01*
X424038Y401529D01*
X423979Y401490D01*
X423923Y401454D01*
X423874Y401418D01*
X423835Y401381D01*
X423799Y401352D01*
X423772Y401326D01*
X423753Y401306D01*
X423740Y401293D01*
X423736Y401290D01*
X423677Y401208D01*
X423622Y401113D01*
X423576Y401014D01*
X423536Y400906D01*
X423503Y400794D01*
X423477Y400680D01*
X423454Y400565D01*
X423435Y400453D01*
X423421Y400348D01*
X423412Y400250D01*
X423402Y400158D01*
X423398Y400119D01*
Y400083D01*
X423395Y400047D01*
Y400017D01*
X423392Y399991D01*
Y399968D01*
Y399948D01*
Y399935D01*
Y399928D01*
Y399925D01*
X423395Y399761D01*
X423408Y399610D01*
X423425Y399469D01*
X423448Y399341D01*
X423474Y399223D01*
X423503Y399118D01*
X423533Y399020D01*
X423566Y398935D01*
X423599Y398863D01*
X423628Y398797D01*
X423658Y398744D01*
X423684Y398698D01*
X423707Y398666D01*
X423723Y398643D01*
X423736Y398626D01*
X423740Y398623D01*
X423808Y398551D01*
X423881Y398489D01*
X423953Y398436D01*
X424031Y398390D01*
X424107Y398351D01*
X424182Y398318D01*
X424258Y398292D01*
X424327Y398269D01*
X424396Y398252D01*
X424455Y398239D01*
X424510Y398233D01*
X424560Y398226D01*
X424599Y398223D01*
X424625Y398220D01*
X424651D01*
X424727Y398223D01*
X424799Y398229D01*
X424865Y398239D01*
X424930Y398256D01*
X424993Y398272D01*
X425048Y398292D01*
X425101Y398311D01*
X425150Y398331D01*
X425193Y398354D01*
X425229Y398374D01*
X425261Y398393D01*
X425291Y398410D01*
X425311Y398426D01*
X425327Y398436D01*
X425337Y398443D01*
X425340Y398446D01*
X425393Y398489D01*
X425439Y398538D01*
X425481Y398587D01*
X425521Y398639D01*
X425554Y398689D01*
X425583Y398741D01*
X425612Y398790D01*
X425635Y398839D01*
X425655Y398885D01*
X425672Y398928D01*
X425685Y398967D01*
X425695Y399000D01*
X425704Y399026D01*
X425711Y399049D01*
X425714Y399063D01*
Y399066D01*
X426721Y398826D01*
X426688Y398715D01*
X426649Y398613D01*
X426610Y398515D01*
X426570Y398426D01*
X426528Y398341D01*
X426485Y398266D01*
X426442Y398197D01*
X426400Y398134D01*
X426360Y398079D01*
X426324Y398029D01*
X426292Y397990D01*
X426262Y397954D01*
X426239Y397928D01*
X426223Y397911D01*
X426209Y397898D01*
X426206Y397895D01*
X426095Y397800D01*
X425977Y397714D01*
X425852Y397642D01*
X425727Y397580D01*
X425603Y397528D01*
X425478Y397482D01*
X425357Y397449D01*
X425239Y397419D01*
X425127Y397396D01*
X425029Y397380D01*
X424937Y397367D01*
X424894Y397363D01*
X424858Y397360D01*
X424822Y397357D01*
X424792Y397354D01*
X424766D01*
X424743Y397350D01*
X424704D01*
X424606Y397354D01*
X424510Y397357D01*
X424419Y397367D01*
X424327Y397380D01*
X424153Y397416D01*
X423989Y397459D01*
X423838Y397511D01*
X423697Y397570D01*
X423569Y397633D01*
X423451Y397698D01*
X423346Y397764D01*
X423300Y397793D01*
X423254Y397826D01*
X423215Y397855D01*
X423175Y397885D01*
X423143Y397911D01*
X423110Y397937D01*
X423084Y397960D01*
X423061Y397980D01*
X423038Y398000D01*
X423021Y398016D01*
X423008Y398029D01*
X422998Y398039D01*
X422995Y398042D01*
X422992Y398046D01*
X422933Y398111D01*
X422877Y398183D01*
X422824Y398256D01*
X422779Y398328D01*
X422733Y398407D01*
X422690Y398485D01*
X422618Y398646D01*
X422552Y398807D01*
X422500Y398971D01*
X422457Y399128D01*
X422424Y399282D01*
X422398Y399430D01*
X422385Y399499D01*
X422375Y399564D01*
X422369Y399627D01*
X422362Y399686D01*
X422356Y399742D01*
X422352Y399794D01*
X422349Y399840D01*
X422346Y399879D01*
Y399915D01*
X422342Y399945D01*
Y399968D01*
Y399988D01*
Y399997D01*
Y400001D01*
X422346Y400112D01*
X422349Y400217D01*
X422359Y400322D01*
X422369Y400424D01*
X422401Y400617D01*
X422444Y400794D01*
X422467Y400880D01*
X422493Y400962D01*
X422519Y401040D01*
X422546Y401116D01*
X422575Y401188D01*
X422605Y401257D01*
X422634Y401323D01*
X422667Y401385D01*
X422697Y401444D01*
X422726Y401500D01*
X422756Y401549D01*
X422785Y401598D01*
X422811Y401641D01*
X422838Y401680D01*
X422864Y401719D01*
X422887Y401752D01*
X422910Y401782D01*
X422929Y401805D01*
X422946Y401828D01*
X422962Y401844D01*
X422972Y401860D01*
X422982Y401870D01*
X422985Y401873D01*
X422989Y401877D01*
X423051Y401939D01*
X423113Y401998D01*
X423179Y402051D01*
X423248Y402103D01*
X423313Y402149D01*
X423382Y402195D01*
X423520Y402274D01*
X423661Y402339D01*
X423799Y402395D01*
X423930Y402441D01*
X424058Y402477D01*
X424179Y402503D01*
X424291Y402526D01*
X424340Y402533D01*
X424389Y402543D01*
X424435Y402546D01*
X424474Y402553D01*
X424510Y402556D01*
X424543Y402559D01*
X424573D01*
X424596Y402562D01*
X424642D01*
X424789Y402559D01*
D02*
G37*
G36*
X479808Y399843D02*
X478383D01*
Y400566D01*
X479808D01*
Y399843D01*
D02*
G37*
G36*
X476240Y401572D02*
X476309Y401567D01*
X476376Y401562D01*
X476435Y401558D01*
X476491Y401550D01*
X476541Y401543D01*
X476587Y401535D01*
X476629Y401528D01*
X476664Y401521D01*
X476696Y401513D01*
X476720Y401508D01*
X476740Y401504D01*
X476755Y401499D01*
X476764Y401496D01*
X476767D01*
X476828Y401474D01*
X476888Y401452D01*
X476942Y401427D01*
X476993Y401403D01*
X477040Y401378D01*
X477084Y401353D01*
X477126Y401329D01*
X477161Y401304D01*
X477195Y401282D01*
X477222Y401260D01*
X477247Y401243D01*
X477266Y401226D01*
X477284Y401213D01*
X477293Y401201D01*
X477301Y401196D01*
X477303Y401194D01*
X477352Y401144D01*
X477397Y401090D01*
X477438Y401036D01*
X477478Y400982D01*
X477515Y400925D01*
X477547Y400871D01*
X477579Y400817D01*
X477606Y400763D01*
X477628Y400716D01*
X477650Y400669D01*
X477667Y400630D01*
X477682Y400596D01*
X477694Y400566D01*
X477702Y400544D01*
X477707Y400532D01*
X477709Y400527D01*
X477729Y400463D01*
X477748Y400394D01*
X477776Y400256D01*
X477798Y400123D01*
X477805Y400057D01*
X477810Y399995D01*
X477815Y399939D01*
X477820Y399885D01*
X477822Y399838D01*
Y399799D01*
X477825Y399764D01*
Y399740D01*
Y399732D01*
Y399725D01*
Y399722D01*
Y399720D01*
X477822Y399622D01*
X477820Y399528D01*
X477812Y399440D01*
X477805Y399356D01*
X477795Y399277D01*
X477785Y399203D01*
X477773Y399137D01*
X477763Y399073D01*
X477751Y399019D01*
X477739Y398970D01*
X477729Y398928D01*
X477719Y398891D01*
X477712Y398864D01*
X477704Y398844D01*
X477702Y398832D01*
X477699Y398827D01*
X477675Y398761D01*
X477648Y398697D01*
X477621Y398635D01*
X477591Y398579D01*
X477562Y398524D01*
X477532Y398475D01*
X477500Y398429D01*
X477473Y398384D01*
X477446Y398347D01*
X477419Y398313D01*
X477397Y398283D01*
X477377Y398259D01*
X477360Y398239D01*
X477348Y398227D01*
X477340Y398217D01*
X477338Y398214D01*
X477293Y398170D01*
X477247Y398128D01*
X477198Y398089D01*
X477148Y398055D01*
X477102Y398023D01*
X477055Y397993D01*
X477008Y397968D01*
X476966Y397946D01*
X476924Y397927D01*
X476888Y397909D01*
X476853Y397895D01*
X476826Y397885D01*
X476801Y397875D01*
X476784Y397870D01*
X476774Y397865D01*
X476769D01*
X476720Y397853D01*
X476666Y397840D01*
X476610Y397833D01*
X476553Y397823D01*
X476432Y397811D01*
X476373Y397806D01*
X476317Y397804D01*
X476263Y397799D01*
X476211Y397796D01*
X476167D01*
X476127Y397794D01*
X474654D01*
Y401575D01*
X476167D01*
X476240Y401572D01*
D02*
G37*
G36*
X481712D02*
X481825D01*
X481876Y401570D01*
X481972D01*
X482017Y401567D01*
X482058D01*
X482095Y401565D01*
X482132D01*
X482199Y401562D01*
X482255Y401560D01*
X482302Y401558D01*
X482344D01*
X482376Y401555D01*
X482400Y401553D01*
X482420D01*
X482432Y401550D01*
X482442D01*
X482499Y401543D01*
X482550Y401533D01*
X482602Y401521D01*
X482649Y401508D01*
X482696Y401494D01*
X482737Y401479D01*
X482774Y401462D01*
X482811Y401447D01*
X482843Y401432D01*
X482870Y401417D01*
X482895Y401405D01*
X482914Y401393D01*
X482929Y401385D01*
X482942Y401378D01*
X482949Y401373D01*
X482951Y401371D01*
X483025Y401312D01*
X483092Y401248D01*
X483148Y401184D01*
X483195Y401122D01*
X483215Y401093D01*
X483232Y401066D01*
X483247Y401043D01*
X483259Y401021D01*
X483269Y401004D01*
X483276Y400992D01*
X483279Y400984D01*
X483281Y400982D01*
X483303Y400935D01*
X483320Y400891D01*
X483338Y400844D01*
X483350Y400800D01*
X483372Y400716D01*
X483379Y400677D01*
X483387Y400640D01*
X483392Y400606D01*
X483394Y400574D01*
X483399Y400547D01*
Y400524D01*
X483402Y400505D01*
Y400492D01*
Y400483D01*
Y400480D01*
X483399Y400419D01*
X483394Y400362D01*
X483384Y400306D01*
X483372Y400254D01*
X483357Y400202D01*
X483343Y400155D01*
X483325Y400111D01*
X483308Y400072D01*
X483291Y400035D01*
X483274Y400003D01*
X483259Y399976D01*
X483244Y399954D01*
X483232Y399934D01*
X483222Y399919D01*
X483217Y399912D01*
X483215Y399909D01*
X483178Y399865D01*
X483138Y399826D01*
X483097Y399786D01*
X483055Y399752D01*
X483010Y399722D01*
X482966Y399693D01*
X482922Y399668D01*
X482880Y399646D01*
X482841Y399626D01*
X482804Y399609D01*
X482769Y399594D01*
X482740Y399585D01*
X482718Y399575D01*
X482698Y399570D01*
X482688Y399565D01*
X482683D01*
X482727Y399543D01*
X482772Y399518D01*
X482811Y399494D01*
X482848Y399467D01*
X482882Y399440D01*
X482914Y399410D01*
X482944Y399383D01*
X482971Y399358D01*
X482993Y399331D01*
X483013Y399309D01*
X483033Y399287D01*
X483045Y399270D01*
X483057Y399255D01*
X483065Y399243D01*
X483070Y399235D01*
X483072Y399233D01*
X483097Y399191D01*
X483119Y399149D01*
X483138Y399105D01*
X483156Y399063D01*
X483168Y399021D01*
X483180Y398982D01*
X483190Y398943D01*
X483197Y398906D01*
X483202Y398871D01*
X483207Y398842D01*
X483210Y398815D01*
X483212Y398790D01*
X483215Y398773D01*
Y398758D01*
Y398748D01*
Y398746D01*
Y398699D01*
X483210Y398657D01*
X483197Y398574D01*
X483178Y398497D01*
X483168Y398463D01*
X483158Y398431D01*
X483146Y398404D01*
X483136Y398379D01*
X483126Y398357D01*
X483116Y398337D01*
X483109Y398323D01*
X483104Y398313D01*
X483102Y398306D01*
X483099Y398303D01*
X483052Y398232D01*
X483006Y398170D01*
X482956Y398116D01*
X482910Y398072D01*
X482870Y398035D01*
X482853Y398023D01*
X482838Y398010D01*
X482826Y398000D01*
X482816Y397993D01*
X482811Y397991D01*
X482809Y397988D01*
X482742Y397946D01*
X482673Y397912D01*
X482607Y397885D01*
X482546Y397865D01*
X482518Y397855D01*
X482491Y397848D01*
X482469Y397843D01*
X482450Y397838D01*
X482435Y397836D01*
X482422Y397833D01*
X482415Y397831D01*
X482413D01*
X482368Y397823D01*
X482322Y397818D01*
X482270Y397814D01*
X482216Y397809D01*
X482105Y397804D01*
X482049Y397801D01*
X481997Y397799D01*
X481945Y397796D01*
X481898D01*
X481854Y397794D01*
X480233D01*
Y401575D01*
X481650D01*
X481712Y401572D01*
D02*
G37*
G36*
X459439Y400938D02*
X457540D01*
Y397823D01*
X456775D01*
Y401575D01*
X459439D01*
Y400938D01*
D02*
G37*
G36*
X453992Y400148D02*
X454585D01*
X454674Y400146D01*
X454757Y400143D01*
X454834Y400141D01*
X454905Y400136D01*
X454969Y400131D01*
X455028Y400126D01*
X455082Y400121D01*
X455129Y400116D01*
X455171Y400111D01*
X455205Y400106D01*
X455232Y400101D01*
X455254Y400099D01*
X455271Y400096D01*
X455281Y400094D01*
X455284D01*
X455358Y400074D01*
X455429Y400050D01*
X455495Y400020D01*
X455554Y399991D01*
X455581Y399976D01*
X455606Y399961D01*
X455626Y399949D01*
X455643Y399939D01*
X455658Y399929D01*
X455667Y399922D01*
X455675Y399919D01*
X455677Y399917D01*
X455749Y399863D01*
X455810Y399801D01*
X455867Y399740D01*
X455913Y399681D01*
X455933Y399654D01*
X455950Y399626D01*
X455965Y399604D01*
X455977Y399585D01*
X455987Y399568D01*
X455995Y399555D01*
X455997Y399548D01*
X456000Y399545D01*
X456022Y399499D01*
X456041Y399452D01*
X456059Y399403D01*
X456073Y399353D01*
X456096Y399255D01*
X456105Y399206D01*
X456113Y399162D01*
X456118Y399120D01*
X456120Y399080D01*
X456123Y399046D01*
X456125Y399016D01*
X456128Y398992D01*
Y398972D01*
Y398962D01*
Y398957D01*
X456125Y398874D01*
X456118Y398795D01*
X456108Y398721D01*
X456093Y398652D01*
X456076Y398586D01*
X456059Y398527D01*
X456037Y398470D01*
X456017Y398419D01*
X455997Y398374D01*
X455977Y398335D01*
X455958Y398301D01*
X455941Y398273D01*
X455926Y398251D01*
X455916Y398234D01*
X455909Y398224D01*
X455906Y398222D01*
X455864Y398170D01*
X455820Y398123D01*
X455776Y398082D01*
X455729Y398042D01*
X455682Y398010D01*
X455638Y397978D01*
X455594Y397951D01*
X455552Y397929D01*
X455513Y397909D01*
X455476Y397892D01*
X455444Y397880D01*
X455417Y397868D01*
X455395Y397860D01*
X455377Y397855D01*
X455367Y397850D01*
X455363D01*
X455340Y397845D01*
X455318Y397840D01*
X455262Y397831D01*
X455200Y397823D01*
X455131Y397818D01*
X455057Y397811D01*
X454981Y397809D01*
X454905Y397804D01*
X454829Y397801D01*
X454755Y397799D01*
X454686Y397796D01*
X454622D01*
X454568Y397794D01*
X453230D01*
Y401575D01*
X453992D01*
Y400148D01*
D02*
G37*
G36*
X465279Y401572D02*
X465392D01*
X465444Y401570D01*
X465540D01*
X465584Y401567D01*
X465626D01*
X465662Y401565D01*
X465699D01*
X465766Y401562D01*
X465822Y401560D01*
X465869Y401558D01*
X465911D01*
X465943Y401555D01*
X465968Y401553D01*
X465987D01*
X466000Y401550D01*
X466009D01*
X466066Y401543D01*
X466118Y401533D01*
X466169Y401521D01*
X466216Y401508D01*
X466263Y401494D01*
X466305Y401479D01*
X466341Y401462D01*
X466378Y401447D01*
X466410Y401432D01*
X466437Y401417D01*
X466462Y401405D01*
X466482Y401393D01*
X466497Y401385D01*
X466509Y401378D01*
X466516Y401373D01*
X466519Y401371D01*
X466592Y401312D01*
X466659Y401248D01*
X466715Y401184D01*
X466762Y401122D01*
X466782Y401093D01*
X466799Y401066D01*
X466814Y401043D01*
X466826Y401021D01*
X466836Y401004D01*
X466843Y400992D01*
X466846Y400984D01*
X466848Y400982D01*
X466870Y400935D01*
X466888Y400891D01*
X466905Y400844D01*
X466917Y400800D01*
X466939Y400716D01*
X466947Y400677D01*
X466954Y400640D01*
X466959Y400606D01*
X466961Y400574D01*
X466966Y400547D01*
Y400524D01*
X466969Y400505D01*
Y400492D01*
Y400483D01*
Y400480D01*
X466966Y400419D01*
X466961Y400362D01*
X466952Y400306D01*
X466939Y400254D01*
X466924Y400202D01*
X466910Y400155D01*
X466892Y400111D01*
X466875Y400072D01*
X466858Y400035D01*
X466841Y400003D01*
X466826Y399976D01*
X466811Y399954D01*
X466799Y399934D01*
X466789Y399919D01*
X466784Y399912D01*
X466782Y399909D01*
X466745Y399865D01*
X466706Y399826D01*
X466664Y399786D01*
X466622Y399752D01*
X466578Y399722D01*
X466533Y399693D01*
X466489Y399668D01*
X466447Y399646D01*
X466408Y399626D01*
X466371Y399609D01*
X466337Y399594D01*
X466307Y399585D01*
X466285Y399575D01*
X466265Y399570D01*
X466255Y399565D01*
X466251D01*
X466295Y399543D01*
X466339Y399518D01*
X466378Y399494D01*
X466415Y399467D01*
X466450Y399440D01*
X466482Y399410D01*
X466511Y399383D01*
X466538Y399358D01*
X466560Y399331D01*
X466580Y399309D01*
X466600Y399287D01*
X466612Y399270D01*
X466624Y399255D01*
X466632Y399243D01*
X466637Y399235D01*
X466639Y399233D01*
X466664Y399191D01*
X466686Y399149D01*
X466706Y399105D01*
X466723Y399063D01*
X466735Y399021D01*
X466747Y398982D01*
X466757Y398943D01*
X466765Y398906D01*
X466770Y398871D01*
X466774Y398842D01*
X466777Y398815D01*
X466779Y398790D01*
X466782Y398773D01*
Y398758D01*
Y398748D01*
Y398746D01*
Y398699D01*
X466777Y398657D01*
X466765Y398574D01*
X466745Y398497D01*
X466735Y398463D01*
X466725Y398431D01*
X466713Y398404D01*
X466703Y398379D01*
X466693Y398357D01*
X466683Y398337D01*
X466676Y398323D01*
X466671Y398313D01*
X466669Y398306D01*
X466666Y398303D01*
X466619Y398232D01*
X466573Y398170D01*
X466524Y398116D01*
X466477Y398072D01*
X466437Y398035D01*
X466420Y398023D01*
X466405Y398010D01*
X466393Y398000D01*
X466383Y397993D01*
X466378Y397991D01*
X466376Y397988D01*
X466309Y397946D01*
X466241Y397912D01*
X466174Y397885D01*
X466113Y397865D01*
X466086Y397855D01*
X466059Y397848D01*
X466036Y397843D01*
X466017Y397838D01*
X466002Y397836D01*
X465990Y397833D01*
X465982Y397831D01*
X465980D01*
X465936Y397823D01*
X465889Y397818D01*
X465837Y397814D01*
X465783Y397809D01*
X465672Y397804D01*
X465616Y397801D01*
X465564Y397799D01*
X465513Y397796D01*
X465466D01*
X465421Y397794D01*
X463800D01*
Y401575D01*
X465217D01*
X465279Y401572D01*
D02*
G37*
G36*
X470113Y397794D02*
X469348D01*
Y401575D01*
X470113D01*
Y397794D01*
D02*
G37*
G36*
X499091Y401634D02*
X499141Y401631D01*
X499234Y401617D01*
X499278Y401607D01*
X499323Y401597D01*
X499362Y401585D01*
X499399Y401572D01*
X499433Y401562D01*
X499463Y401550D01*
X499490Y401540D01*
X499512Y401531D01*
X499529Y401523D01*
X499544Y401516D01*
X499551Y401513D01*
X499554Y401511D01*
X499640Y401459D01*
X499682Y401432D01*
X499719Y401405D01*
X499753Y401376D01*
X499785Y401346D01*
X499815Y401319D01*
X499842Y401292D01*
X499866Y401265D01*
X499889Y401243D01*
X499906Y401221D01*
X499921Y401203D01*
X499933Y401189D01*
X499940Y401176D01*
X499945Y401169D01*
X499948Y401166D01*
Y401575D01*
X500622D01*
Y398837D01*
X499896D01*
Y399993D01*
Y400047D01*
Y400099D01*
X499893Y400148D01*
Y400192D01*
X499891Y400278D01*
X499889Y400357D01*
X499884Y400423D01*
X499879Y400485D01*
X499874Y400537D01*
X499869Y400583D01*
X499864Y400620D01*
X499859Y400652D01*
X499854Y400679D01*
X499849Y400699D01*
X499847Y400714D01*
X499844Y400724D01*
X499842Y400729D01*
Y400731D01*
X499817Y400785D01*
X499788Y400834D01*
X499753Y400876D01*
X499721Y400913D01*
X499689Y400943D01*
X499665Y400965D01*
X499655Y400975D01*
X499647Y400980D01*
X499643Y400982D01*
X499640Y400984D01*
X499583Y401019D01*
X499527Y401043D01*
X499470Y401061D01*
X499419Y401073D01*
X499374Y401080D01*
X499355Y401083D01*
X499340D01*
X499325Y401085D01*
X499308D01*
X499249Y401083D01*
X499197Y401073D01*
X499153Y401061D01*
X499114Y401046D01*
X499082Y401034D01*
X499059Y401021D01*
X499045Y401012D01*
X499042Y401009D01*
X499040D01*
X499003Y400977D01*
X498973Y400945D01*
X498946Y400911D01*
X498927Y400876D01*
X498912Y400847D01*
X498900Y400824D01*
X498897Y400815D01*
X498895Y400807D01*
X498892Y400805D01*
Y400802D01*
X498890Y400788D01*
X498885Y400773D01*
X498880Y400734D01*
X498875Y400689D01*
X498870Y400638D01*
X498865Y400581D01*
X498863Y400522D01*
X498858Y400399D01*
X498855Y400340D01*
Y400283D01*
Y400232D01*
X498853Y400187D01*
Y400148D01*
Y400133D01*
Y400118D01*
Y400109D01*
Y400101D01*
Y400096D01*
Y400094D01*
Y398837D01*
X498127D01*
Y400569D01*
Y400640D01*
X498132Y400706D01*
X498137Y400768D01*
X498142Y400827D01*
X498149Y400881D01*
X498159Y400933D01*
X498167Y400977D01*
X498176Y401019D01*
X498186Y401056D01*
X498194Y401085D01*
X498203Y401115D01*
X498211Y401137D01*
X498216Y401154D01*
X498221Y401166D01*
X498225Y401174D01*
Y401176D01*
X498245Y401216D01*
X498267Y401253D01*
X498317Y401321D01*
X498344Y401351D01*
X498368Y401380D01*
X498395Y401405D01*
X498422Y401427D01*
X498445Y401449D01*
X498469Y401467D01*
X498489Y401481D01*
X498508Y401494D01*
X498523Y401504D01*
X498533Y401511D01*
X498540Y401513D01*
X498543Y401516D01*
X498585Y401538D01*
X498627Y401555D01*
X498671Y401572D01*
X498713Y401585D01*
X498796Y401607D01*
X498836Y401614D01*
X498873Y401621D01*
X498909Y401626D01*
X498941Y401629D01*
X498969Y401631D01*
X498993Y401634D01*
X499013Y401636D01*
X499040D01*
X499091Y401634D01*
D02*
G37*
G36*
X489844Y401631D02*
X489928Y401621D01*
X490004Y401609D01*
X490041Y401599D01*
X490073Y401592D01*
X490103Y401585D01*
X490130Y401575D01*
X490152Y401567D01*
X490171Y401562D01*
X490186Y401555D01*
X490199Y401553D01*
X490206Y401548D01*
X490208D01*
X490287Y401511D01*
X490358Y401467D01*
X490427Y401422D01*
X490457Y401400D01*
X490486Y401378D01*
X490511Y401358D01*
X490536Y401339D01*
X490555Y401321D01*
X490573Y401307D01*
X490587Y401294D01*
X490597Y401285D01*
X490602Y401280D01*
X490604Y401277D01*
X490609Y401287D01*
X490612Y401299D01*
X490622Y401326D01*
X490627Y401339D01*
X490629Y401351D01*
X490631Y401358D01*
Y401361D01*
X490646Y401410D01*
X490661Y401454D01*
X490671Y401491D01*
X490681Y401521D01*
X490691Y401545D01*
X490695Y401562D01*
X490700Y401572D01*
Y401575D01*
X491419D01*
X491387Y401504D01*
X491357Y401435D01*
X491335Y401373D01*
X491318Y401319D01*
X491311Y401294D01*
X491306Y401272D01*
X491298Y401255D01*
X491296Y401238D01*
X491293Y401226D01*
X491291Y401216D01*
X491288Y401211D01*
Y401208D01*
X491283Y401174D01*
X491276Y401137D01*
X491274Y401095D01*
X491269Y401053D01*
X491261Y400965D01*
X491259Y400876D01*
X491256Y400837D01*
Y400797D01*
X491254Y400763D01*
Y400734D01*
Y400709D01*
Y400689D01*
Y400679D01*
Y400674D01*
X491261Y399828D01*
Y399742D01*
X491256Y399666D01*
X491251Y399592D01*
X491247Y399528D01*
X491239Y399469D01*
X491229Y399415D01*
X491222Y399368D01*
X491212Y399326D01*
X491202Y399292D01*
X491195Y399262D01*
X491185Y399235D01*
X491178Y399216D01*
X491173Y399201D01*
X491168Y399189D01*
X491163Y399184D01*
Y399181D01*
X491143Y399149D01*
X491121Y399117D01*
X491069Y399061D01*
X491015Y399011D01*
X490959Y398967D01*
X490909Y398935D01*
X490887Y398920D01*
X490868Y398908D01*
X490850Y398901D01*
X490838Y398893D01*
X490831Y398891D01*
X490828Y398888D01*
X490782Y398869D01*
X490730Y398849D01*
X490673Y398834D01*
X490617Y398822D01*
X490496Y398800D01*
X490437Y398793D01*
X490381Y398788D01*
X490324Y398783D01*
X490272Y398778D01*
X490228Y398775D01*
X490186D01*
X490154Y398773D01*
X490107D01*
X490012Y398775D01*
X489921Y398780D01*
X489834Y398790D01*
X489756Y398802D01*
X489684Y398817D01*
X489618Y398834D01*
X489559Y398852D01*
X489505Y398869D01*
X489458Y398886D01*
X489416Y398903D01*
X489382Y398920D01*
X489355Y398935D01*
X489333Y398948D01*
X489315Y398957D01*
X489306Y398962D01*
X489303Y398965D01*
X489254Y399004D01*
X489210Y399046D01*
X489168Y399090D01*
X489128Y399137D01*
X489094Y399186D01*
X489062Y399235D01*
X489035Y399285D01*
X489010Y399331D01*
X488988Y399376D01*
X488969Y399417D01*
X488954Y399454D01*
X488941Y399489D01*
X488932Y399516D01*
X488924Y399535D01*
X488922Y399548D01*
X488919Y399553D01*
X489579Y399671D01*
X489591Y399636D01*
X489606Y399604D01*
X489620Y399575D01*
X489635Y399550D01*
X489662Y399503D01*
X489692Y399467D01*
X489716Y399440D01*
X489736Y399420D01*
X489748Y399408D01*
X489753Y399405D01*
X489798Y399380D01*
X489847Y399361D01*
X489896Y399348D01*
X489945Y399339D01*
X489990Y399334D01*
X490007Y399331D01*
X490024Y399329D01*
X490107D01*
X490154Y399334D01*
X490199Y399336D01*
X490238Y399344D01*
X490272Y399348D01*
X490304Y399356D01*
X490331Y399366D01*
X490358Y399373D01*
X490378Y399380D01*
X490398Y399390D01*
X490413Y399398D01*
X490425Y399403D01*
X490432Y399410D01*
X490440Y399412D01*
X490445Y399417D01*
X490462Y399435D01*
X490479Y399457D01*
X490504Y399501D01*
X490523Y399550D01*
X490536Y399599D01*
X490543Y399644D01*
X490545Y399663D01*
Y399681D01*
X490548Y399695D01*
Y399705D01*
Y399713D01*
Y399715D01*
Y399789D01*
X490509Y399804D01*
X490462Y399821D01*
X490410Y399836D01*
X490356Y399850D01*
X490299Y399865D01*
X490240Y399880D01*
X490122Y399907D01*
X490068Y399919D01*
X490017Y399932D01*
X489967Y399941D01*
X489928Y399949D01*
X489893Y399956D01*
X489866Y399961D01*
X489857Y399963D01*
X489849Y399966D01*
X489844D01*
X489775Y399981D01*
X489712Y399993D01*
X489652Y400008D01*
X489596Y400023D01*
X489544Y400037D01*
X489495Y400052D01*
X489453Y400064D01*
X489414Y400077D01*
X489379Y400089D01*
X489350Y400101D01*
X489325Y400111D01*
X489303Y400118D01*
X489288Y400126D01*
X489276Y400131D01*
X489269Y400136D01*
X489266D01*
X489195Y400175D01*
X489133Y400219D01*
X489082Y400266D01*
X489037Y400310D01*
X489003Y400350D01*
X488988Y400369D01*
X488976Y400384D01*
X488969Y400396D01*
X488961Y400406D01*
X488959Y400411D01*
X488956Y400414D01*
X488937Y400448D01*
X488919Y400483D01*
X488892Y400554D01*
X488873Y400625D01*
X488860Y400689D01*
X488855Y400719D01*
X488850Y400743D01*
X488848Y400768D01*
Y400788D01*
X488846Y400805D01*
Y400817D01*
Y400824D01*
Y400827D01*
X488848Y400891D01*
X488855Y400952D01*
X488868Y401012D01*
X488885Y401066D01*
X488902Y401117D01*
X488922Y401164D01*
X488944Y401208D01*
X488969Y401250D01*
X488991Y401285D01*
X489013Y401316D01*
X489033Y401344D01*
X489052Y401366D01*
X489067Y401383D01*
X489079Y401398D01*
X489087Y401405D01*
X489089Y401407D01*
X489136Y401447D01*
X489187Y401484D01*
X489242Y401513D01*
X489296Y401540D01*
X489352Y401562D01*
X489406Y401580D01*
X489461Y401594D01*
X489515Y401607D01*
X489564Y401617D01*
X489608Y401624D01*
X489650Y401629D01*
X489687Y401634D01*
X489716D01*
X489736Y401636D01*
X489756D01*
X489844Y401631D01*
D02*
G37*
G36*
X468949Y399843D02*
X467525D01*
Y400566D01*
X468949D01*
Y399843D01*
D02*
G37*
G36*
X452472Y397794D02*
X451326D01*
X450647Y400374D01*
X449960Y397794D01*
X448819D01*
Y401575D01*
X449527D01*
Y398598D01*
X450275Y401575D01*
X451011D01*
X451761Y398598D01*
Y401575D01*
X452472D01*
Y397794D01*
D02*
G37*
G36*
X484735Y400729D02*
Y400665D01*
Y400603D01*
X484737Y400544D01*
Y400488D01*
X484740Y400436D01*
Y400384D01*
X484742Y400335D01*
X484745Y400291D01*
X484750Y400207D01*
X484755Y400131D01*
X484760Y400064D01*
X484764Y400008D01*
X484769Y399959D01*
X484774Y399917D01*
X484779Y399882D01*
X484784Y399855D01*
X484789Y399836D01*
X484792Y399821D01*
X484794Y399814D01*
Y399811D01*
X484806Y399772D01*
X484819Y399735D01*
X484833Y399703D01*
X484846Y399671D01*
X484860Y399644D01*
X484875Y399619D01*
X484887Y399597D01*
X484900Y399577D01*
X484912Y399560D01*
X484924Y399545D01*
X484944Y399526D01*
X484956Y399513D01*
X484961Y399508D01*
X485003Y399481D01*
X485047Y399459D01*
X485089Y399445D01*
X485131Y399435D01*
X485165Y399430D01*
X485195Y399425D01*
X485219D01*
X485249Y399427D01*
X485279Y399430D01*
X485340Y399442D01*
X485397Y399462D01*
X485448Y399484D01*
X485493Y399506D01*
X485512Y399516D01*
X485527Y399523D01*
X485542Y399533D01*
X485552Y399538D01*
X485557Y399540D01*
X485559Y399543D01*
X485785Y398911D01*
X485741Y398886D01*
X485699Y398864D01*
X485655Y398847D01*
X485613Y398832D01*
X485532Y398807D01*
X485495Y398797D01*
X485461Y398790D01*
X485429Y398785D01*
X485399Y398780D01*
X485372Y398778D01*
X485350Y398775D01*
X485333Y398773D01*
X485308D01*
X485244Y398778D01*
X485185Y398788D01*
X485131Y398800D01*
X485084Y398817D01*
X485047Y398834D01*
X485030Y398842D01*
X485018Y398847D01*
X485008Y398854D01*
X485001Y398856D01*
X484996Y398861D01*
X484993D01*
X484966Y398881D01*
X484941Y398903D01*
X484914Y398928D01*
X484887Y398955D01*
X484836Y399016D01*
X484787Y399076D01*
X484745Y399134D01*
X484727Y399159D01*
X484713Y399181D01*
X484700Y399199D01*
X484691Y399213D01*
X484686Y399223D01*
X484683Y399225D01*
Y398837D01*
X484009D01*
Y401575D01*
X484735D01*
Y400729D01*
D02*
G37*
G36*
X496277Y401631D02*
X496383Y401619D01*
X496484Y401599D01*
X496580Y401572D01*
X496668Y401540D01*
X496752Y401506D01*
X496828Y401469D01*
X496900Y401432D01*
X496961Y401393D01*
X497015Y401356D01*
X497064Y401321D01*
X497104Y401292D01*
X497133Y401265D01*
X497158Y401245D01*
X497170Y401233D01*
X497175Y401228D01*
X497247Y401149D01*
X497308Y401066D01*
X497362Y400982D01*
X497406Y400893D01*
X497446Y400807D01*
X497478Y400721D01*
X497505Y400640D01*
X497527Y400559D01*
X497542Y400485D01*
X497554Y400416D01*
X497564Y400355D01*
X497569Y400301D01*
X497571Y400278D01*
X497574Y400256D01*
Y400239D01*
X497576Y400224D01*
Y400212D01*
Y400205D01*
Y400200D01*
Y400197D01*
X497571Y400084D01*
X497559Y399976D01*
X497539Y399875D01*
X497515Y399779D01*
X497483Y399688D01*
X497451Y399604D01*
X497414Y399528D01*
X497377Y399457D01*
X497340Y399395D01*
X497303Y399339D01*
X497271Y399292D01*
X497239Y399250D01*
X497215Y399221D01*
X497195Y399199D01*
X497183Y399184D01*
X497178Y399179D01*
X497101Y399107D01*
X497020Y399046D01*
X496937Y398989D01*
X496850Y398945D01*
X496767Y398906D01*
X496681Y398871D01*
X496599Y398844D01*
X496521Y398825D01*
X496445Y398807D01*
X496378Y398795D01*
X496317Y398785D01*
X496263Y398780D01*
X496240Y398778D01*
X496218Y398775D01*
X496201D01*
X496186Y398773D01*
X496159D01*
X496085Y398775D01*
X496014Y398780D01*
X495943Y398790D01*
X495876Y398800D01*
X495812Y398815D01*
X495753Y398829D01*
X495697Y398847D01*
X495645Y398861D01*
X495598Y398879D01*
X495556Y398896D01*
X495519Y398911D01*
X495488Y398925D01*
X495463Y398935D01*
X495446Y398945D01*
X495436Y398950D01*
X495431Y398952D01*
X495372Y398987D01*
X495315Y399026D01*
X495264Y399066D01*
X495215Y399107D01*
X495170Y399152D01*
X495128Y399194D01*
X495089Y399235D01*
X495057Y399277D01*
X495025Y399317D01*
X495001Y399353D01*
X494978Y399385D01*
X494959Y399412D01*
X494946Y399437D01*
X494934Y399454D01*
X494929Y399464D01*
X494927Y399469D01*
X494895Y399533D01*
X494868Y399597D01*
X494845Y399658D01*
X494823Y399720D01*
X494806Y399781D01*
X494794Y399838D01*
X494781Y399892D01*
X494772Y399944D01*
X494764Y399993D01*
X494759Y400035D01*
X494755Y400074D01*
X494752Y400106D01*
Y400131D01*
X494750Y400150D01*
Y400163D01*
Y400168D01*
X494752Y400254D01*
X494757Y400337D01*
X494767Y400416D01*
X494777Y400492D01*
X494791Y400564D01*
X494806Y400628D01*
X494821Y400689D01*
X494838Y400746D01*
X494855Y400795D01*
X494870Y400839D01*
X494885Y400879D01*
X494900Y400911D01*
X494909Y400935D01*
X494919Y400955D01*
X494924Y400965D01*
X494927Y400970D01*
X494961Y401029D01*
X495001Y401085D01*
X495040Y401137D01*
X495082Y401186D01*
X495126Y401230D01*
X495168Y401270D01*
X495212Y401307D01*
X495254Y401341D01*
X495291Y401371D01*
X495328Y401395D01*
X495362Y401417D01*
X495389Y401435D01*
X495414Y401449D01*
X495431Y401459D01*
X495441Y401464D01*
X495446Y401467D01*
X495510Y401496D01*
X495574Y401523D01*
X495640Y401545D01*
X495702Y401565D01*
X495763Y401582D01*
X495825Y401594D01*
X495881Y401607D01*
X495933Y401614D01*
X495982Y401621D01*
X496026Y401626D01*
X496066Y401631D01*
X496100Y401634D01*
X496127Y401636D01*
X496164D01*
X496277Y401631D01*
D02*
G37*
G36*
X423169Y447350D02*
X422444D01*
X421198Y452562D01*
X421906D01*
X423169Y447350D01*
D02*
G37*
G36*
X420643Y447436D02*
X419695D01*
Y450804D01*
X417632Y447436D01*
X416642D01*
Y452477D01*
X417586D01*
Y449191D01*
X419620Y452477D01*
X420643D01*
Y447436D01*
D02*
G37*
G36*
X425944Y452559D02*
X426085Y452546D01*
X426219Y452526D01*
X426347Y452500D01*
X426465Y452470D01*
X426577Y452434D01*
X426679Y452398D01*
X426770Y452362D01*
X426852Y452326D01*
X426925Y452290D01*
X426987Y452254D01*
X427039Y452224D01*
X427082Y452198D01*
X427111Y452179D01*
X427128Y452165D01*
X427134Y452162D01*
X427230Y452083D01*
X427318Y451995D01*
X427400Y451900D01*
X427476Y451801D01*
X427544Y451700D01*
X427607Y451598D01*
X427663Y451500D01*
X427712Y451401D01*
X427754Y451306D01*
X427790Y451221D01*
X427823Y451142D01*
X427849Y451073D01*
X427859Y451044D01*
X427869Y451017D01*
X427876Y450994D01*
X427882Y450975D01*
X427885Y450958D01*
X427889Y450949D01*
X427892Y450942D01*
Y450939D01*
X426905Y450624D01*
X426879Y450726D01*
X426849Y450817D01*
X426820Y450906D01*
X426784Y450985D01*
X426751Y451057D01*
X426715Y451126D01*
X426679Y451185D01*
X426646Y451237D01*
X426613Y451286D01*
X426583Y451326D01*
X426554Y451359D01*
X426531Y451388D01*
X426511Y451411D01*
X426495Y451424D01*
X426485Y451434D01*
X426482Y451437D01*
X426426Y451483D01*
X426367Y451523D01*
X426308Y451555D01*
X426249Y451585D01*
X426190Y451611D01*
X426134Y451631D01*
X426078Y451647D01*
X426026Y451660D01*
X425977Y451670D01*
X425931Y451680D01*
X425888Y451687D01*
X425855Y451690D01*
X425826D01*
X425803Y451693D01*
X425786D01*
X425685Y451690D01*
X425590Y451677D01*
X425498Y451657D01*
X425416Y451631D01*
X425334Y451598D01*
X425261Y451565D01*
X425193Y451529D01*
X425134Y451490D01*
X425078Y451454D01*
X425029Y451418D01*
X424989Y451381D01*
X424953Y451352D01*
X424927Y451326D01*
X424907Y451306D01*
X424894Y451293D01*
X424891Y451290D01*
X424832Y451208D01*
X424776Y451113D01*
X424730Y451014D01*
X424691Y450906D01*
X424658Y450794D01*
X424632Y450680D01*
X424609Y450565D01*
X424589Y450453D01*
X424576Y450348D01*
X424566Y450250D01*
X424556Y450158D01*
X424553Y450119D01*
Y450083D01*
X424550Y450047D01*
Y450017D01*
X424546Y449991D01*
Y449968D01*
Y449948D01*
Y449935D01*
Y449929D01*
Y449925D01*
X424550Y449761D01*
X424563Y449610D01*
X424579Y449469D01*
X424602Y449341D01*
X424628Y449223D01*
X424658Y449118D01*
X424688Y449020D01*
X424720Y448935D01*
X424753Y448863D01*
X424783Y448797D01*
X424812Y448744D01*
X424838Y448699D01*
X424861Y448666D01*
X424878Y448643D01*
X424891Y448626D01*
X424894Y448623D01*
X424963Y448551D01*
X425035Y448489D01*
X425107Y448436D01*
X425186Y448390D01*
X425261Y448351D01*
X425337Y448318D01*
X425412Y448292D01*
X425481Y448269D01*
X425550Y448252D01*
X425609Y448239D01*
X425665Y448233D01*
X425714Y448226D01*
X425753Y448223D01*
X425780Y448220D01*
X425806D01*
X425881Y448223D01*
X425954Y448229D01*
X426019Y448239D01*
X426085Y448256D01*
X426147Y448272D01*
X426203Y448292D01*
X426255Y448311D01*
X426305Y448331D01*
X426347Y448354D01*
X426383Y448374D01*
X426416Y448393D01*
X426446Y448410D01*
X426465Y448426D01*
X426482Y448436D01*
X426492Y448443D01*
X426495Y448446D01*
X426547Y448489D01*
X426593Y448538D01*
X426636Y448587D01*
X426675Y448639D01*
X426708Y448689D01*
X426738Y448741D01*
X426767Y448790D01*
X426790Y448840D01*
X426810Y448885D01*
X426826Y448928D01*
X426839Y448967D01*
X426849Y449000D01*
X426859Y449026D01*
X426865Y449049D01*
X426869Y449063D01*
Y449066D01*
X427876Y448826D01*
X427843Y448715D01*
X427804Y448613D01*
X427764Y448515D01*
X427725Y448426D01*
X427682Y448341D01*
X427639Y448266D01*
X427597Y448197D01*
X427554Y448134D01*
X427515Y448079D01*
X427479Y448029D01*
X427446Y447990D01*
X427417Y447954D01*
X427393Y447928D01*
X427377Y447911D01*
X427364Y447898D01*
X427361Y447895D01*
X427249Y447800D01*
X427131Y447715D01*
X427006Y447642D01*
X426882Y447580D01*
X426757Y447528D01*
X426633Y447482D01*
X426511Y447449D01*
X426393Y447419D01*
X426282Y447396D01*
X426183Y447380D01*
X426091Y447367D01*
X426049Y447364D01*
X426013Y447360D01*
X425977Y447357D01*
X425947Y447354D01*
X425921D01*
X425898Y447350D01*
X425858D01*
X425760Y447354D01*
X425665Y447357D01*
X425573Y447367D01*
X425481Y447380D01*
X425308Y447416D01*
X425143Y447459D01*
X424993Y447511D01*
X424852Y447570D01*
X424724Y447633D01*
X424606Y447698D01*
X424501Y447764D01*
X424455Y447793D01*
X424409Y447826D01*
X424369Y447856D01*
X424330Y447885D01*
X424297Y447911D01*
X424264Y447937D01*
X424238Y447961D01*
X424215Y447980D01*
X424192Y448000D01*
X424176Y448016D01*
X424163Y448029D01*
X424153Y448039D01*
X424150Y448042D01*
X424146Y448046D01*
X424087Y448111D01*
X424031Y448183D01*
X423979Y448256D01*
X423933Y448328D01*
X423887Y448407D01*
X423845Y448485D01*
X423772Y448646D01*
X423707Y448807D01*
X423654Y448971D01*
X423612Y449128D01*
X423579Y449282D01*
X423553Y449430D01*
X423539Y449499D01*
X423530Y449564D01*
X423523Y449627D01*
X423517Y449686D01*
X423510Y449742D01*
X423507Y449794D01*
X423503Y449840D01*
X423500Y449879D01*
Y449915D01*
X423497Y449945D01*
Y449968D01*
Y449988D01*
Y449997D01*
Y450001D01*
X423500Y450112D01*
X423503Y450217D01*
X423513Y450322D01*
X423523Y450424D01*
X423556Y450617D01*
X423599Y450794D01*
X423622Y450880D01*
X423648Y450962D01*
X423674Y451040D01*
X423700Y451116D01*
X423730Y451188D01*
X423759Y451257D01*
X423789Y451323D01*
X423822Y451385D01*
X423851Y451444D01*
X423881Y451500D01*
X423910Y451549D01*
X423940Y451598D01*
X423966Y451641D01*
X423992Y451680D01*
X424018Y451719D01*
X424041Y451752D01*
X424064Y451782D01*
X424084Y451805D01*
X424100Y451828D01*
X424117Y451844D01*
X424127Y451860D01*
X424136Y451870D01*
X424140Y451873D01*
X424143Y451877D01*
X424205Y451939D01*
X424268Y451998D01*
X424333Y452051D01*
X424402Y452103D01*
X424468Y452149D01*
X424537Y452195D01*
X424674Y452274D01*
X424816Y452339D01*
X424953Y452395D01*
X425084Y452441D01*
X425212Y452477D01*
X425334Y452503D01*
X425445Y452526D01*
X425494Y452533D01*
X425544Y452543D01*
X425590Y452546D01*
X425629Y452553D01*
X425665Y452556D01*
X425698Y452559D01*
X425727D01*
X425750Y452562D01*
X425796D01*
X425944Y452559D01*
D02*
G37*
G36*
X417659Y440575D02*
X418449D01*
X418567Y440571D01*
X418679Y440568D01*
X418780Y440565D01*
X418875Y440558D01*
X418961Y440552D01*
X419039Y440545D01*
X419111Y440539D01*
X419174Y440532D01*
X419230Y440525D01*
X419276Y440519D01*
X419312Y440512D01*
X419341Y440509D01*
X419364Y440506D01*
X419377Y440503D01*
X419381D01*
X419479Y440476D01*
X419574Y440443D01*
X419663Y440404D01*
X419741Y440365D01*
X419777Y440345D01*
X419810Y440325D01*
X419836Y440309D01*
X419859Y440296D01*
X419879Y440283D01*
X419892Y440273D01*
X419902Y440270D01*
X419905Y440266D01*
X420000Y440194D01*
X420082Y440112D01*
X420158Y440030D01*
X420220Y439951D01*
X420246Y439915D01*
X420269Y439879D01*
X420289Y439850D01*
X420305Y439823D01*
X420319Y439801D01*
X420328Y439784D01*
X420332Y439774D01*
X420335Y439771D01*
X420365Y439709D01*
X420391Y439646D01*
X420414Y439581D01*
X420433Y439515D01*
X420463Y439384D01*
X420476Y439318D01*
X420486Y439259D01*
X420492Y439204D01*
X420496Y439151D01*
X420499Y439105D01*
X420502Y439066D01*
X420506Y439033D01*
Y439007D01*
Y438994D01*
Y438987D01*
X420502Y438876D01*
X420492Y438771D01*
X420479Y438672D01*
X420460Y438580D01*
X420437Y438492D01*
X420414Y438413D01*
X420384Y438338D01*
X420358Y438269D01*
X420332Y438210D01*
X420305Y438157D01*
X420279Y438111D01*
X420256Y438075D01*
X420237Y438046D01*
X420224Y438023D01*
X420214Y438010D01*
X420210Y438006D01*
X420155Y437937D01*
X420096Y437875D01*
X420037Y437819D01*
X419974Y437767D01*
X419912Y437724D01*
X419853Y437682D01*
X419794Y437646D01*
X419738Y437616D01*
X419686Y437590D01*
X419636Y437567D01*
X419594Y437550D01*
X419558Y437534D01*
X419528Y437524D01*
X419505Y437518D01*
X419492Y437511D01*
X419486D01*
X419456Y437505D01*
X419426Y437498D01*
X419351Y437485D01*
X419269Y437475D01*
X419177Y437468D01*
X419079Y437459D01*
X418977Y437455D01*
X418875Y437449D01*
X418774Y437445D01*
X418675Y437442D01*
X418583Y437439D01*
X418498D01*
X418426Y437436D01*
X416642D01*
Y442477D01*
X417659D01*
Y440575D01*
D02*
G37*
G36*
X423841Y442559D02*
X423956Y442553D01*
X424071Y442539D01*
X424179Y442526D01*
X424287Y442510D01*
X424386Y442490D01*
X424484Y442467D01*
X424573Y442444D01*
X424655Y442425D01*
X424730Y442402D01*
X424792Y442382D01*
X424848Y442366D01*
X424894Y442352D01*
X424927Y442339D01*
X424937Y442336D01*
X424947Y442333D01*
X424950Y442329D01*
X424953D01*
X425065Y442283D01*
X425170Y442238D01*
X425265Y442192D01*
X425357Y442146D01*
X425439Y442100D01*
X425514Y442054D01*
X425583Y442011D01*
X425645Y441969D01*
X425701Y441929D01*
X425750Y441896D01*
X425790Y441864D01*
X425822Y441837D01*
X425849Y441815D01*
X425868Y441798D01*
X425878Y441788D01*
X425881Y441785D01*
Y439774D01*
X423687D01*
Y440624D01*
X424855D01*
Y441263D01*
X424763Y441329D01*
X424671Y441388D01*
X424576Y441441D01*
X424491Y441483D01*
X424451Y441503D01*
X424415Y441519D01*
X424382Y441532D01*
X424353Y441545D01*
X424333Y441555D01*
X424314Y441562D01*
X424304Y441569D01*
X424300D01*
X424182Y441611D01*
X424064Y441641D01*
X423956Y441664D01*
X423907Y441670D01*
X423861Y441677D01*
X423818Y441683D01*
X423779Y441687D01*
X423746Y441690D01*
X423717D01*
X423694Y441693D01*
X423661D01*
X423543Y441687D01*
X423431Y441673D01*
X423323Y441650D01*
X423225Y441624D01*
X423133Y441588D01*
X423047Y441552D01*
X422965Y441513D01*
X422897Y441470D01*
X422831Y441427D01*
X422775Y441388D01*
X422726Y441352D01*
X422687Y441316D01*
X422657Y441290D01*
X422634Y441267D01*
X422618Y441250D01*
X422615Y441247D01*
X422546Y441158D01*
X422483Y441060D01*
X422428Y440955D01*
X422385Y440847D01*
X422346Y440735D01*
X422313Y440624D01*
X422287Y440512D01*
X422264Y440404D01*
X422247Y440302D01*
X422234Y440207D01*
X422227Y440122D01*
X422224Y440083D01*
X422221Y440047D01*
X422218Y440014D01*
Y439984D01*
X422214Y439958D01*
Y439938D01*
Y439922D01*
Y439909D01*
Y439902D01*
Y439899D01*
X422218Y439748D01*
X422231Y439607D01*
X422251Y439473D01*
X422277Y439351D01*
X422306Y439240D01*
X422339Y439135D01*
X422375Y439043D01*
X422411Y438958D01*
X422447Y438885D01*
X422483Y438820D01*
X422516Y438767D01*
X422546Y438721D01*
X422572Y438689D01*
X422592Y438662D01*
X422605Y438646D01*
X422608Y438643D01*
X422683Y438567D01*
X422765Y438502D01*
X422851Y438446D01*
X422939Y438397D01*
X423028Y438357D01*
X423116Y438321D01*
X423205Y438295D01*
X423287Y438272D01*
X423366Y438256D01*
X423438Y438243D01*
X423503Y438233D01*
X423559Y438226D01*
X423605Y438223D01*
X423641Y438220D01*
X423671D01*
X423753Y438223D01*
X423828Y438229D01*
X423900Y438239D01*
X423969Y438252D01*
X424035Y438269D01*
X424094Y438288D01*
X424150Y438308D01*
X424202Y438328D01*
X424248Y438347D01*
X424287Y438367D01*
X424320Y438387D01*
X424350Y438403D01*
X424373Y438416D01*
X424389Y438426D01*
X424399Y438433D01*
X424402Y438436D01*
X424455Y438479D01*
X424504Y438521D01*
X424550Y438571D01*
X424589Y438617D01*
X424625Y438666D01*
X424661Y438715D01*
X424688Y438761D01*
X424714Y438807D01*
X424737Y438853D01*
X424756Y438892D01*
X424773Y438928D01*
X424783Y438958D01*
X424792Y438984D01*
X424799Y439004D01*
X424806Y439017D01*
Y439020D01*
X425816Y438833D01*
X425783Y438705D01*
X425744Y438587D01*
X425698Y438475D01*
X425645Y438371D01*
X425593Y438272D01*
X425534Y438183D01*
X425478Y438101D01*
X425419Y438026D01*
X425363Y437964D01*
X425311Y437905D01*
X425265Y437855D01*
X425222Y437816D01*
X425186Y437783D01*
X425160Y437764D01*
X425143Y437747D01*
X425137Y437744D01*
X425032Y437675D01*
X424924Y437613D01*
X424806Y437560D01*
X424684Y437518D01*
X424563Y437478D01*
X424442Y437445D01*
X424320Y437419D01*
X424205Y437400D01*
X424097Y437383D01*
X423995Y437370D01*
X423904Y437363D01*
X423864Y437360D01*
X423825Y437357D01*
X423792Y437354D01*
X423759D01*
X423733Y437350D01*
X423671D01*
X423539Y437354D01*
X423412Y437360D01*
X423290Y437373D01*
X423179Y437390D01*
X423070Y437409D01*
X422972Y437429D01*
X422880Y437452D01*
X422798Y437475D01*
X422723Y437498D01*
X422654Y437521D01*
X422598Y437541D01*
X422552Y437560D01*
X422513Y437577D01*
X422487Y437590D01*
X422470Y437596D01*
X422464Y437600D01*
X422349Y437665D01*
X422241Y437734D01*
X422139Y437810D01*
X422044Y437885D01*
X421959Y437964D01*
X421877Y438042D01*
X421804Y438118D01*
X421742Y438193D01*
X421683Y438266D01*
X421634Y438331D01*
X421591Y438390D01*
X421558Y438439D01*
X421532Y438482D01*
X421513Y438515D01*
X421499Y438534D01*
X421496Y438538D01*
Y438541D01*
X421437Y438656D01*
X421388Y438777D01*
X421342Y438895D01*
X421306Y439017D01*
X421273Y439135D01*
X421247Y439250D01*
X421224Y439361D01*
X421208Y439469D01*
X421191Y439568D01*
X421181Y439656D01*
X421175Y439738D01*
X421171Y439807D01*
X421168Y439837D01*
Y439863D01*
X421165Y439886D01*
Y439902D01*
Y439919D01*
Y439928D01*
Y439935D01*
Y439938D01*
X421168Y440073D01*
X421178Y440204D01*
X421191Y440332D01*
X421211Y440457D01*
X421234Y440571D01*
X421260Y440683D01*
X421286Y440788D01*
X421312Y440883D01*
X421339Y440972D01*
X421368Y441050D01*
X421391Y441119D01*
X421414Y441175D01*
X421434Y441221D01*
X421447Y441254D01*
X421454Y441267D01*
X421457Y441277D01*
X421460Y441280D01*
Y441283D01*
X421519Y441395D01*
X421585Y441500D01*
X421654Y441598D01*
X421726Y441690D01*
X421798Y441775D01*
X421870Y441854D01*
X421945Y441926D01*
X422014Y441988D01*
X422083Y442044D01*
X422146Y442093D01*
X422201Y442136D01*
X422251Y442169D01*
X422290Y442195D01*
X422319Y442215D01*
X422339Y442228D01*
X422346Y442231D01*
X422457Y442290D01*
X422575Y442339D01*
X422690Y442385D01*
X422808Y442421D01*
X422926Y442454D01*
X423041Y442480D01*
X423152Y442503D01*
X423257Y442520D01*
X423356Y442536D01*
X423444Y442546D01*
X423523Y442553D01*
X423592Y442556D01*
X423622Y442559D01*
X423651D01*
X423671Y442562D01*
X423727D01*
X423841Y442559D01*
D02*
G37*
G36*
X429089D02*
X429230Y442546D01*
X429365Y442526D01*
X429493Y442500D01*
X429611Y442471D01*
X429722Y442434D01*
X429824Y442398D01*
X429916Y442362D01*
X429998Y442326D01*
X430070Y442290D01*
X430132Y442254D01*
X430185Y442225D01*
X430228Y442198D01*
X430257Y442179D01*
X430273Y442165D01*
X430280Y442162D01*
X430375Y442083D01*
X430464Y441995D01*
X430546Y441900D01*
X430621Y441801D01*
X430690Y441700D01*
X430752Y441598D01*
X430808Y441500D01*
X430857Y441401D01*
X430900Y441306D01*
X430936Y441221D01*
X430969Y441142D01*
X430995Y441073D01*
X431005Y441044D01*
X431015Y441017D01*
X431021Y440995D01*
X431028Y440975D01*
X431031Y440958D01*
X431034Y440949D01*
X431038Y440942D01*
Y440939D01*
X430050Y440624D01*
X430024Y440726D01*
X429995Y440817D01*
X429965Y440906D01*
X429929Y440985D01*
X429896Y441057D01*
X429860Y441126D01*
X429824Y441185D01*
X429791Y441237D01*
X429758Y441286D01*
X429729Y441326D01*
X429699Y441359D01*
X429676Y441388D01*
X429657Y441411D01*
X429640Y441424D01*
X429631Y441434D01*
X429627Y441437D01*
X429571Y441483D01*
X429512Y441523D01*
X429453Y441555D01*
X429394Y441585D01*
X429335Y441611D01*
X429280Y441631D01*
X429224Y441647D01*
X429171Y441660D01*
X429122Y441670D01*
X429076Y441680D01*
X429034Y441687D01*
X429001Y441690D01*
X428971D01*
X428948Y441693D01*
X428932D01*
X428830Y441690D01*
X428735Y441677D01*
X428643Y441657D01*
X428561Y441631D01*
X428479Y441598D01*
X428407Y441565D01*
X428338Y441529D01*
X428279Y441490D01*
X428223Y441454D01*
X428174Y441418D01*
X428135Y441382D01*
X428099Y441352D01*
X428073Y441326D01*
X428053Y441306D01*
X428040Y441293D01*
X428036Y441290D01*
X427977Y441208D01*
X427922Y441113D01*
X427876Y441014D01*
X427836Y440906D01*
X427804Y440794D01*
X427777Y440680D01*
X427754Y440565D01*
X427735Y440453D01*
X427722Y440348D01*
X427712Y440250D01*
X427702Y440158D01*
X427699Y440119D01*
Y440083D01*
X427695Y440047D01*
Y440017D01*
X427692Y439991D01*
Y439968D01*
Y439948D01*
Y439935D01*
Y439928D01*
Y439925D01*
X427695Y439761D01*
X427708Y439610D01*
X427725Y439469D01*
X427748Y439341D01*
X427774Y439223D01*
X427804Y439118D01*
X427833Y439020D01*
X427866Y438935D01*
X427899Y438863D01*
X427928Y438797D01*
X427958Y438744D01*
X427984Y438698D01*
X428007Y438666D01*
X428023Y438643D01*
X428036Y438626D01*
X428040Y438623D01*
X428109Y438551D01*
X428181Y438489D01*
X428253Y438436D01*
X428332Y438390D01*
X428407Y438351D01*
X428482Y438318D01*
X428558Y438292D01*
X428627Y438269D01*
X428696Y438252D01*
X428755Y438239D01*
X428811Y438233D01*
X428860Y438226D01*
X428899Y438223D01*
X428925Y438220D01*
X428952D01*
X429027Y438223D01*
X429099Y438229D01*
X429165Y438239D01*
X429230Y438256D01*
X429293Y438272D01*
X429348Y438292D01*
X429401Y438311D01*
X429450Y438331D01*
X429493Y438354D01*
X429529Y438374D01*
X429562Y438393D01*
X429591Y438410D01*
X429611Y438426D01*
X429627Y438436D01*
X429637Y438443D01*
X429640Y438446D01*
X429693Y438489D01*
X429739Y438538D01*
X429781Y438587D01*
X429821Y438639D01*
X429853Y438689D01*
X429883Y438741D01*
X429913Y438790D01*
X429936Y438839D01*
X429955Y438885D01*
X429972Y438928D01*
X429985Y438967D01*
X429995Y439000D01*
X430004Y439026D01*
X430011Y439049D01*
X430014Y439063D01*
Y439066D01*
X431021Y438826D01*
X430988Y438715D01*
X430949Y438613D01*
X430910Y438515D01*
X430870Y438426D01*
X430828Y438341D01*
X430785Y438266D01*
X430742Y438197D01*
X430700Y438134D01*
X430660Y438079D01*
X430624Y438029D01*
X430592Y437990D01*
X430562Y437954D01*
X430539Y437928D01*
X430523Y437911D01*
X430510Y437898D01*
X430506Y437895D01*
X430395Y437800D01*
X430277Y437714D01*
X430152Y437642D01*
X430027Y437580D01*
X429903Y437528D01*
X429778Y437482D01*
X429657Y437449D01*
X429539Y437419D01*
X429427Y437396D01*
X429329Y437380D01*
X429237Y437367D01*
X429194Y437363D01*
X429158Y437360D01*
X429122Y437357D01*
X429093Y437354D01*
X429066D01*
X429043Y437350D01*
X429004D01*
X428906Y437354D01*
X428811Y437357D01*
X428719Y437367D01*
X428627Y437380D01*
X428453Y437416D01*
X428289Y437459D01*
X428138Y437511D01*
X427997Y437570D01*
X427869Y437633D01*
X427751Y437698D01*
X427646Y437764D01*
X427600Y437793D01*
X427554Y437826D01*
X427515Y437855D01*
X427476Y437885D01*
X427443Y437911D01*
X427410Y437937D01*
X427384Y437960D01*
X427361Y437980D01*
X427338Y438000D01*
X427321Y438016D01*
X427308Y438029D01*
X427298Y438039D01*
X427295Y438042D01*
X427292Y438046D01*
X427233Y438111D01*
X427177Y438183D01*
X427125Y438256D01*
X427079Y438328D01*
X427033Y438407D01*
X426990Y438485D01*
X426918Y438646D01*
X426852Y438807D01*
X426800Y438971D01*
X426757Y439128D01*
X426724Y439282D01*
X426698Y439430D01*
X426685Y439499D01*
X426675Y439564D01*
X426669Y439627D01*
X426662Y439686D01*
X426656Y439742D01*
X426652Y439794D01*
X426649Y439840D01*
X426646Y439879D01*
Y439915D01*
X426642Y439945D01*
Y439968D01*
Y439988D01*
Y439997D01*
Y440001D01*
X426646Y440112D01*
X426649Y440217D01*
X426659Y440322D01*
X426669Y440424D01*
X426701Y440617D01*
X426744Y440794D01*
X426767Y440880D01*
X426793Y440962D01*
X426820Y441040D01*
X426846Y441116D01*
X426875Y441188D01*
X426905Y441257D01*
X426934Y441323D01*
X426967Y441385D01*
X426997Y441444D01*
X427026Y441500D01*
X427056Y441549D01*
X427085Y441598D01*
X427111Y441641D01*
X427138Y441680D01*
X427164Y441719D01*
X427187Y441752D01*
X427210Y441782D01*
X427230Y441805D01*
X427246Y441828D01*
X427262Y441844D01*
X427272Y441860D01*
X427282Y441870D01*
X427285Y441874D01*
X427289Y441877D01*
X427351Y441939D01*
X427413Y441998D01*
X427479Y442051D01*
X427548Y442103D01*
X427613Y442149D01*
X427682Y442195D01*
X427820Y442274D01*
X427961Y442339D01*
X428099Y442395D01*
X428230Y442441D01*
X428358Y442477D01*
X428479Y442503D01*
X428591Y442526D01*
X428640Y442533D01*
X428689Y442543D01*
X428735Y442546D01*
X428774Y442553D01*
X428811Y442556D01*
X428843Y442559D01*
X428873D01*
X428896Y442562D01*
X428942D01*
X429089Y442559D01*
D02*
G37*
G36*
X526220Y460226D02*
Y460124D01*
X526217Y460026D01*
X526210Y459934D01*
X526204Y459846D01*
X526197Y459767D01*
X526187Y459692D01*
X526178Y459626D01*
X526168Y459564D01*
X526158Y459508D01*
X526148Y459462D01*
X526138Y459419D01*
X526132Y459386D01*
X526125Y459360D01*
X526119Y459341D01*
X526115Y459328D01*
Y459324D01*
X526086Y459242D01*
X526056Y459164D01*
X526023Y459091D01*
X525990Y459023D01*
X525958Y458960D01*
X525925Y458901D01*
X525892Y458845D01*
X525859Y458799D01*
X525830Y458753D01*
X525800Y458717D01*
X525777Y458685D01*
X525754Y458658D01*
X525738Y458635D01*
X525722Y458622D01*
X525715Y458612D01*
X525712Y458609D01*
X525646Y458544D01*
X525574Y458485D01*
X525502Y458429D01*
X525430Y458376D01*
X525354Y458327D01*
X525282Y458285D01*
X525210Y458242D01*
X525138Y458206D01*
X525075Y458176D01*
X525013Y458147D01*
X524961Y458124D01*
X524915Y458104D01*
X524875Y458088D01*
X524846Y458078D01*
X524829Y458071D01*
X524823Y458068D01*
X524738Y458042D01*
X524646Y458015D01*
X524462Y457979D01*
X524285Y457950D01*
X524196Y457940D01*
X524114Y457934D01*
X524039Y457927D01*
X523967Y457920D01*
X523904Y457917D01*
X523852D01*
X523806Y457914D01*
X523747D01*
X523616Y457917D01*
X523491Y457920D01*
X523373Y457930D01*
X523262Y457940D01*
X523157Y457953D01*
X523058Y457966D01*
X522970Y457983D01*
X522884Y457996D01*
X522812Y458012D01*
X522747Y458029D01*
X522691Y458042D01*
X522642Y458055D01*
X522606Y458065D01*
X522579Y458075D01*
X522563Y458078D01*
X522556Y458081D01*
X522468Y458114D01*
X522382Y458150D01*
X522300Y458186D01*
X522225Y458225D01*
X522153Y458265D01*
X522087Y458304D01*
X522025Y458347D01*
X521966Y458383D01*
X521917Y458419D01*
X521871Y458455D01*
X521832Y458485D01*
X521799Y458511D01*
X521772Y458534D01*
X521756Y458550D01*
X521743Y458560D01*
X521740Y458563D01*
X521681Y458622D01*
X521625Y458685D01*
X521572Y458750D01*
X521526Y458816D01*
X521484Y458878D01*
X521444Y458941D01*
X521412Y459003D01*
X521382Y459059D01*
X521356Y459114D01*
X521333Y459164D01*
X521313Y459209D01*
X521300Y459245D01*
X521287Y459278D01*
X521280Y459301D01*
X521274Y459314D01*
Y459321D01*
X521257Y459386D01*
X521241Y459459D01*
X521231Y459534D01*
X521218Y459610D01*
X521202Y459770D01*
X521195Y459849D01*
X521192Y459925D01*
X521185Y459997D01*
X521182Y460066D01*
Y460124D01*
X521179Y460177D01*
Y460223D01*
Y460256D01*
Y460266D01*
Y460275D01*
Y460279D01*
Y460282D01*
Y462142D01*
X526220D01*
Y460226D01*
D02*
G37*
G36*
Y465313D02*
Y465212D01*
X526217Y465113D01*
X526210Y465022D01*
X526204Y464933D01*
X526197Y464854D01*
X526187Y464779D01*
X526178Y464713D01*
X526168Y464651D01*
X526158Y464595D01*
X526148Y464549D01*
X526138Y464507D01*
X526132Y464474D01*
X526125Y464448D01*
X526119Y464428D01*
X526115Y464415D01*
Y464411D01*
X526086Y464329D01*
X526056Y464251D01*
X526023Y464179D01*
X525990Y464110D01*
X525958Y464047D01*
X525925Y463988D01*
X525892Y463933D01*
X525859Y463887D01*
X525830Y463841D01*
X525800Y463805D01*
X525777Y463772D01*
X525754Y463746D01*
X525738Y463723D01*
X525722Y463710D01*
X525715Y463700D01*
X525712Y463696D01*
X525646Y463631D01*
X525574Y463572D01*
X525502Y463516D01*
X525430Y463464D01*
X525354Y463414D01*
X525282Y463372D01*
X525210Y463329D01*
X525138Y463293D01*
X525075Y463264D01*
X525013Y463234D01*
X524961Y463211D01*
X524915Y463191D01*
X524875Y463175D01*
X524846Y463165D01*
X524829Y463159D01*
X524823Y463155D01*
X524738Y463129D01*
X524646Y463103D01*
X524462Y463067D01*
X524285Y463037D01*
X524196Y463027D01*
X524114Y463021D01*
X524039Y463014D01*
X523967Y463008D01*
X523904Y463004D01*
X523852D01*
X523806Y463001D01*
X523747D01*
X523616Y463004D01*
X523491Y463008D01*
X523373Y463018D01*
X523262Y463027D01*
X523157Y463040D01*
X523058Y463054D01*
X522970Y463070D01*
X522884Y463083D01*
X522812Y463099D01*
X522747Y463116D01*
X522691Y463129D01*
X522642Y463142D01*
X522606Y463152D01*
X522579Y463162D01*
X522563Y463165D01*
X522556Y463168D01*
X522468Y463201D01*
X522382Y463237D01*
X522300Y463273D01*
X522225Y463313D01*
X522153Y463352D01*
X522087Y463391D01*
X522025Y463434D01*
X521966Y463470D01*
X521917Y463506D01*
X521871Y463542D01*
X521832Y463572D01*
X521799Y463598D01*
X521772Y463621D01*
X521756Y463637D01*
X521743Y463647D01*
X521740Y463651D01*
X521681Y463710D01*
X521625Y463772D01*
X521572Y463837D01*
X521526Y463903D01*
X521484Y463965D01*
X521444Y464028D01*
X521412Y464090D01*
X521382Y464146D01*
X521356Y464202D01*
X521333Y464251D01*
X521313Y464297D01*
X521300Y464333D01*
X521287Y464366D01*
X521280Y464389D01*
X521274Y464402D01*
Y464408D01*
X521257Y464474D01*
X521241Y464546D01*
X521231Y464621D01*
X521218Y464697D01*
X521202Y464858D01*
X521195Y464936D01*
X521192Y465012D01*
X521185Y465084D01*
X521182Y465153D01*
Y465212D01*
X521179Y465264D01*
Y465310D01*
Y465343D01*
Y465353D01*
Y465363D01*
Y465366D01*
Y465369D01*
Y467229D01*
X526220D01*
Y465313D01*
D02*
G37*
G36*
Y470640D02*
Y469555D01*
X521179Y467747D01*
Y468826D01*
X524911Y470063D01*
X521179Y471339D01*
Y472441D01*
X526220Y470640D01*
D02*
G37*
G36*
X490787Y459787D02*
Y459685D01*
X490784Y459587D01*
X490777Y459495D01*
X490771Y459406D01*
X490764Y459328D01*
X490754Y459252D01*
X490744Y459187D01*
X490735Y459124D01*
X490725Y459068D01*
X490715Y459023D01*
X490705Y458980D01*
X490698Y458947D01*
X490692Y458921D01*
X490685Y458901D01*
X490682Y458888D01*
Y458885D01*
X490653Y458803D01*
X490623Y458724D01*
X490590Y458652D01*
X490557Y458583D01*
X490525Y458521D01*
X490492Y458462D01*
X490459Y458406D01*
X490426Y458360D01*
X490397Y458314D01*
X490367Y458278D01*
X490344Y458245D01*
X490321Y458219D01*
X490305Y458196D01*
X490288Y458183D01*
X490282Y458173D01*
X490279Y458170D01*
X490213Y458104D01*
X490141Y458045D01*
X490069Y457989D01*
X489997Y457937D01*
X489921Y457888D01*
X489849Y457845D01*
X489777Y457802D01*
X489705Y457766D01*
X489642Y457737D01*
X489580Y457707D01*
X489528Y457684D01*
X489482Y457664D01*
X489442Y457648D01*
X489413Y457638D01*
X489396Y457632D01*
X489390Y457628D01*
X489304Y457602D01*
X489213Y457576D01*
X489029Y457540D01*
X488852Y457510D01*
X488763Y457501D01*
X488681Y457494D01*
X488606Y457487D01*
X488534Y457481D01*
X488471Y457478D01*
X488419D01*
X488373Y457474D01*
X488314D01*
X488183Y457478D01*
X488058Y457481D01*
X487940Y457491D01*
X487828Y457501D01*
X487723Y457514D01*
X487625Y457527D01*
X487537Y457543D01*
X487451Y457556D01*
X487379Y457573D01*
X487314Y457589D01*
X487258Y457602D01*
X487209Y457615D01*
X487173Y457625D01*
X487146Y457635D01*
X487130Y457638D01*
X487123Y457642D01*
X487035Y457674D01*
X486949Y457711D01*
X486868Y457747D01*
X486792Y457786D01*
X486720Y457825D01*
X486654Y457865D01*
X486592Y457907D01*
X486533Y457943D01*
X486484Y457979D01*
X486438Y458015D01*
X486398Y458045D01*
X486366Y458071D01*
X486339Y458094D01*
X486323Y458111D01*
X486310Y458120D01*
X486307Y458124D01*
X486247Y458183D01*
X486192Y458245D01*
X486139Y458311D01*
X486093Y458376D01*
X486051Y458439D01*
X486011Y458501D01*
X485979Y458563D01*
X485949Y458619D01*
X485923Y458675D01*
X485900Y458724D01*
X485880Y458770D01*
X485867Y458806D01*
X485854Y458839D01*
X485847Y458862D01*
X485841Y458875D01*
Y458881D01*
X485824Y458947D01*
X485808Y459019D01*
X485798Y459095D01*
X485785Y459170D01*
X485769Y459331D01*
X485762Y459410D01*
X485759Y459485D01*
X485752Y459557D01*
X485749Y459626D01*
Y459685D01*
X485746Y459737D01*
Y459783D01*
Y459816D01*
Y459826D01*
Y459836D01*
Y459839D01*
Y459842D01*
Y461702D01*
X490787D01*
Y459787D01*
D02*
G37*
G36*
Y465832D02*
X487500D01*
X490787Y463798D01*
Y462775D01*
X485746D01*
Y463723D01*
X489114D01*
X485746Y465786D01*
Y466776D01*
X490787D01*
Y465832D01*
D02*
G37*
G36*
X488383Y472441D02*
X488514Y472431D01*
X488642Y472418D01*
X488767Y472398D01*
X488881Y472375D01*
X488993Y472349D01*
X489098Y472323D01*
X489193Y472297D01*
X489282Y472270D01*
X489360Y472241D01*
X489429Y472218D01*
X489485Y472195D01*
X489531Y472175D01*
X489564Y472162D01*
X489577Y472156D01*
X489587Y472152D01*
X489590Y472149D01*
X489593D01*
X489705Y472090D01*
X489810Y472024D01*
X489908Y471955D01*
X490000Y471883D01*
X490085Y471811D01*
X490164Y471739D01*
X490236Y471664D01*
X490298Y471595D01*
X490354Y471526D01*
X490403Y471463D01*
X490446Y471408D01*
X490479Y471359D01*
X490505Y471319D01*
X490525Y471290D01*
X490538Y471270D01*
X490541Y471263D01*
X490600Y471152D01*
X490649Y471034D01*
X490695Y470919D01*
X490731Y470801D01*
X490764Y470683D01*
X490790Y470568D01*
X490813Y470457D01*
X490830Y470352D01*
X490846Y470253D01*
X490856Y470165D01*
X490863Y470086D01*
X490866Y470017D01*
X490869Y469987D01*
Y469958D01*
X490872Y469938D01*
Y469919D01*
Y469902D01*
Y469892D01*
Y469886D01*
Y469882D01*
X490869Y469768D01*
X490863Y469653D01*
X490849Y469538D01*
X490836Y469430D01*
X490820Y469322D01*
X490800Y469223D01*
X490777Y469125D01*
X490754Y469036D01*
X490735Y468954D01*
X490712Y468879D01*
X490692Y468817D01*
X490675Y468761D01*
X490662Y468715D01*
X490649Y468682D01*
X490646Y468672D01*
X490643Y468662D01*
X490639Y468659D01*
Y468656D01*
X490593Y468544D01*
X490548Y468439D01*
X490502Y468344D01*
X490456Y468252D01*
X490410Y468170D01*
X490364Y468095D01*
X490321Y468026D01*
X490279Y467964D01*
X490239Y467908D01*
X490206Y467859D01*
X490174Y467819D01*
X490147Y467787D01*
X490125Y467760D01*
X490108Y467741D01*
X490098Y467731D01*
X490095Y467728D01*
X488084D01*
Y469922D01*
X488934D01*
Y468754D01*
X489573D01*
X489639Y468846D01*
X489698Y468938D01*
X489751Y469033D01*
X489793Y469118D01*
X489813Y469158D01*
X489829Y469194D01*
X489842Y469227D01*
X489855Y469256D01*
X489865Y469276D01*
X489872Y469295D01*
X489879Y469305D01*
Y469309D01*
X489921Y469427D01*
X489951Y469545D01*
X489974Y469653D01*
X489980Y469702D01*
X489987Y469748D01*
X489993Y469791D01*
X489997Y469830D01*
X490000Y469863D01*
Y469892D01*
X490003Y469915D01*
Y469935D01*
Y469945D01*
Y469948D01*
X489997Y470066D01*
X489983Y470178D01*
X489960Y470286D01*
X489934Y470384D01*
X489898Y470476D01*
X489862Y470562D01*
X489823Y470644D01*
X489780Y470712D01*
X489737Y470778D01*
X489698Y470834D01*
X489662Y470883D01*
X489626Y470922D01*
X489600Y470952D01*
X489577Y470975D01*
X489560Y470991D01*
X489557Y470995D01*
X489468Y471063D01*
X489370Y471126D01*
X489265Y471181D01*
X489157Y471224D01*
X489045Y471263D01*
X488934Y471296D01*
X488822Y471322D01*
X488714Y471345D01*
X488612Y471362D01*
X488517Y471375D01*
X488432Y471382D01*
X488393Y471385D01*
X488357Y471388D01*
X488324Y471391D01*
X488294D01*
X488268Y471395D01*
X488209D01*
X488058Y471391D01*
X487917Y471378D01*
X487783Y471359D01*
X487661Y471332D01*
X487550Y471303D01*
X487445Y471270D01*
X487353Y471234D01*
X487268Y471198D01*
X487195Y471162D01*
X487130Y471126D01*
X487077Y471093D01*
X487032Y471063D01*
X486999Y471037D01*
X486972Y471017D01*
X486956Y471004D01*
X486953Y471001D01*
X486877Y470926D01*
X486812Y470844D01*
X486756Y470758D01*
X486707Y470670D01*
X486667Y470581D01*
X486631Y470493D01*
X486605Y470404D01*
X486582Y470322D01*
X486566Y470243D01*
X486553Y470171D01*
X486543Y470106D01*
X486536Y470050D01*
X486533Y470004D01*
X486530Y469968D01*
Y469955D01*
Y469945D01*
Y469942D01*
Y469938D01*
X486533Y469856D01*
X486540Y469781D01*
X486549Y469709D01*
X486562Y469640D01*
X486579Y469574D01*
X486598Y469515D01*
X486618Y469459D01*
X486638Y469407D01*
X486657Y469361D01*
X486677Y469322D01*
X486697Y469289D01*
X486713Y469259D01*
X486726Y469236D01*
X486736Y469220D01*
X486743Y469210D01*
X486746Y469207D01*
X486789Y469154D01*
X486831Y469105D01*
X486881Y469059D01*
X486927Y469020D01*
X486976Y468984D01*
X487025Y468948D01*
X487071Y468922D01*
X487117Y468895D01*
X487163Y468872D01*
X487202Y468853D01*
X487238Y468836D01*
X487268Y468826D01*
X487294Y468817D01*
X487314Y468810D01*
X487327Y468803D01*
X487330D01*
X487143Y467793D01*
X487015Y467826D01*
X486897Y467865D01*
X486786Y467911D01*
X486681Y467964D01*
X486582Y468016D01*
X486493Y468075D01*
X486412Y468131D01*
X486336Y468190D01*
X486274Y468246D01*
X486215Y468298D01*
X486166Y468344D01*
X486126Y468387D01*
X486093Y468423D01*
X486074Y468449D01*
X486057Y468466D01*
X486054Y468472D01*
X485985Y468577D01*
X485923Y468685D01*
X485870Y468803D01*
X485828Y468925D01*
X485788Y469046D01*
X485755Y469168D01*
X485729Y469289D01*
X485710Y469404D01*
X485693Y469512D01*
X485680Y469614D01*
X485674Y469705D01*
X485670Y469745D01*
X485667Y469784D01*
X485664Y469817D01*
Y469850D01*
X485660Y469876D01*
Y469896D01*
Y469915D01*
Y469929D01*
Y469935D01*
Y469938D01*
X485664Y470070D01*
X485670Y470197D01*
X485683Y470319D01*
X485700Y470430D01*
X485719Y470539D01*
X485739Y470637D01*
X485762Y470729D01*
X485785Y470811D01*
X485808Y470886D01*
X485831Y470955D01*
X485851Y471011D01*
X485870Y471057D01*
X485887Y471096D01*
X485900Y471122D01*
X485906Y471139D01*
X485910Y471145D01*
X485975Y471260D01*
X486044Y471368D01*
X486120Y471470D01*
X486195Y471565D01*
X486274Y471651D01*
X486352Y471733D01*
X486428Y471805D01*
X486503Y471867D01*
X486576Y471926D01*
X486641Y471975D01*
X486700Y472018D01*
X486749Y472051D01*
X486792Y472077D01*
X486825Y472097D01*
X486844Y472110D01*
X486848Y472113D01*
X486851D01*
X486966Y472172D01*
X487087Y472221D01*
X487205Y472267D01*
X487327Y472303D01*
X487445Y472336D01*
X487560Y472362D01*
X487671Y472385D01*
X487779Y472402D01*
X487878Y472418D01*
X487966Y472428D01*
X488048Y472434D01*
X488117Y472438D01*
X488147Y472441D01*
X488173D01*
X488196Y472444D01*
X488248D01*
X488383Y472441D01*
D02*
G37*
G36*
X417659Y430575D02*
X418449D01*
X418567Y430571D01*
X418679Y430568D01*
X418780Y430565D01*
X418875Y430558D01*
X418961Y430552D01*
X419039Y430545D01*
X419111Y430539D01*
X419174Y430532D01*
X419230Y430525D01*
X419276Y430519D01*
X419312Y430512D01*
X419341Y430509D01*
X419364Y430506D01*
X419377Y430503D01*
X419381D01*
X419479Y430476D01*
X419574Y430443D01*
X419663Y430404D01*
X419741Y430365D01*
X419777Y430345D01*
X419810Y430325D01*
X419836Y430309D01*
X419859Y430296D01*
X419879Y430283D01*
X419892Y430273D01*
X419902Y430270D01*
X419905Y430266D01*
X420000Y430194D01*
X420082Y430112D01*
X420158Y430030D01*
X420220Y429951D01*
X420246Y429915D01*
X420269Y429879D01*
X420289Y429850D01*
X420305Y429823D01*
X420319Y429801D01*
X420328Y429784D01*
X420332Y429774D01*
X420335Y429771D01*
X420365Y429709D01*
X420391Y429646D01*
X420414Y429581D01*
X420433Y429515D01*
X420463Y429384D01*
X420476Y429318D01*
X420486Y429259D01*
X420492Y429204D01*
X420496Y429151D01*
X420499Y429105D01*
X420502Y429066D01*
X420506Y429033D01*
Y429007D01*
Y428994D01*
Y428987D01*
X420502Y428876D01*
X420492Y428771D01*
X420479Y428672D01*
X420460Y428580D01*
X420437Y428492D01*
X420414Y428413D01*
X420384Y428338D01*
X420358Y428269D01*
X420332Y428210D01*
X420305Y428157D01*
X420279Y428111D01*
X420256Y428075D01*
X420237Y428046D01*
X420224Y428023D01*
X420214Y428010D01*
X420210Y428006D01*
X420155Y427938D01*
X420096Y427875D01*
X420037Y427819D01*
X419974Y427767D01*
X419912Y427724D01*
X419853Y427682D01*
X419794Y427646D01*
X419738Y427616D01*
X419686Y427590D01*
X419636Y427567D01*
X419594Y427551D01*
X419558Y427534D01*
X419528Y427524D01*
X419505Y427518D01*
X419492Y427511D01*
X419486D01*
X419456Y427505D01*
X419426Y427498D01*
X419351Y427485D01*
X419269Y427475D01*
X419177Y427468D01*
X419079Y427459D01*
X418977Y427455D01*
X418875Y427449D01*
X418774Y427446D01*
X418675Y427442D01*
X418583Y427439D01*
X418498D01*
X418426Y427436D01*
X416642D01*
Y432477D01*
X417659D01*
Y430575D01*
D02*
G37*
G36*
X428935Y432474D02*
X429027Y432467D01*
X429115Y432461D01*
X429194Y432454D01*
X429270Y432444D01*
X429335Y432434D01*
X429398Y432425D01*
X429453Y432415D01*
X429499Y432405D01*
X429542Y432395D01*
X429575Y432388D01*
X429601Y432382D01*
X429621Y432375D01*
X429634Y432372D01*
X429637D01*
X429719Y432343D01*
X429798Y432313D01*
X429870Y432280D01*
X429939Y432247D01*
X430001Y432215D01*
X430060Y432182D01*
X430116Y432149D01*
X430162Y432116D01*
X430208Y432087D01*
X430244Y432057D01*
X430277Y432034D01*
X430303Y432011D01*
X430326Y431995D01*
X430339Y431979D01*
X430349Y431972D01*
X430352Y431969D01*
X430418Y431903D01*
X430477Y431831D01*
X430533Y431759D01*
X430585Y431687D01*
X430634Y431611D01*
X430677Y431539D01*
X430720Y431467D01*
X430756Y431395D01*
X430785Y431332D01*
X430815Y431270D01*
X430838Y431217D01*
X430857Y431172D01*
X430874Y431132D01*
X430884Y431103D01*
X430890Y431086D01*
X430893Y431080D01*
X430920Y430995D01*
X430946Y430903D01*
X430982Y430719D01*
X431011Y430542D01*
X431021Y430453D01*
X431028Y430371D01*
X431034Y430296D01*
X431041Y430224D01*
X431044Y430161D01*
Y430109D01*
X431047Y430063D01*
Y430030D01*
Y430020D01*
Y430011D01*
Y430007D01*
Y430004D01*
X431044Y429873D01*
X431041Y429748D01*
X431031Y429630D01*
X431021Y429519D01*
X431008Y429414D01*
X430995Y429315D01*
X430979Y429227D01*
X430966Y429141D01*
X430949Y429069D01*
X430933Y429003D01*
X430920Y428948D01*
X430906Y428899D01*
X430897Y428862D01*
X430887Y428836D01*
X430884Y428820D01*
X430880Y428813D01*
X430847Y428725D01*
X430811Y428639D01*
X430775Y428557D01*
X430736Y428482D01*
X430696Y428410D01*
X430657Y428344D01*
X430615Y428282D01*
X430578Y428223D01*
X430542Y428174D01*
X430506Y428128D01*
X430477Y428088D01*
X430450Y428056D01*
X430428Y428029D01*
X430411Y428013D01*
X430401Y428000D01*
X430398Y427997D01*
X430339Y427938D01*
X430277Y427882D01*
X430211Y427829D01*
X430146Y427783D01*
X430083Y427741D01*
X430021Y427701D01*
X429958Y427669D01*
X429903Y427639D01*
X429847Y427613D01*
X429798Y427590D01*
X429752Y427570D01*
X429716Y427557D01*
X429683Y427544D01*
X429660Y427537D01*
X429647Y427531D01*
X429640D01*
X429575Y427514D01*
X429503Y427498D01*
X429427Y427488D01*
X429352Y427475D01*
X429191Y427459D01*
X429112Y427452D01*
X429037Y427449D01*
X428965Y427442D01*
X428896Y427439D01*
X428837D01*
X428784Y427436D01*
X426820D01*
Y432477D01*
X428837D01*
X428935Y432474D01*
D02*
G37*
G36*
X419315Y422559D02*
X419430Y422552D01*
X419545Y422539D01*
X419653Y422526D01*
X419761Y422510D01*
X419859Y422490D01*
X419958Y422467D01*
X420046Y422444D01*
X420128Y422425D01*
X420204Y422402D01*
X420266Y422382D01*
X420322Y422366D01*
X420368Y422352D01*
X420401Y422339D01*
X420410Y422336D01*
X420420Y422333D01*
X420424Y422329D01*
X420427D01*
X420538Y422284D01*
X420643Y422238D01*
X420738Y422192D01*
X420830Y422146D01*
X420912Y422100D01*
X420988Y422054D01*
X421057Y422011D01*
X421119Y421969D01*
X421175Y421929D01*
X421224Y421897D01*
X421263Y421864D01*
X421296Y421837D01*
X421322Y421814D01*
X421342Y421798D01*
X421352Y421788D01*
X421355Y421785D01*
Y419774D01*
X419161D01*
Y420624D01*
X420328D01*
Y421263D01*
X420237Y421329D01*
X420145Y421388D01*
X420050Y421441D01*
X419964Y421483D01*
X419925Y421503D01*
X419889Y421519D01*
X419856Y421532D01*
X419827Y421546D01*
X419807Y421555D01*
X419787Y421562D01*
X419777Y421568D01*
X419774D01*
X419656Y421611D01*
X419538Y421641D01*
X419430Y421664D01*
X419381Y421670D01*
X419335Y421677D01*
X419292Y421683D01*
X419253Y421687D01*
X419220Y421690D01*
X419190D01*
X419167Y421693D01*
X419135D01*
X419016Y421687D01*
X418905Y421673D01*
X418797Y421651D01*
X418698Y421624D01*
X418606Y421588D01*
X418521Y421552D01*
X418439Y421513D01*
X418370Y421470D01*
X418305Y421427D01*
X418249Y421388D01*
X418200Y421352D01*
X418160Y421316D01*
X418131Y421290D01*
X418108Y421267D01*
X418091Y421250D01*
X418088Y421247D01*
X418019Y421159D01*
X417957Y421060D01*
X417901Y420955D01*
X417859Y420847D01*
X417819Y420735D01*
X417786Y420624D01*
X417760Y420512D01*
X417737Y420404D01*
X417721Y420302D01*
X417708Y420207D01*
X417701Y420122D01*
X417698Y420083D01*
X417695Y420047D01*
X417691Y420014D01*
Y419984D01*
X417688Y419958D01*
Y419938D01*
Y419922D01*
Y419909D01*
Y419902D01*
Y419899D01*
X417691Y419748D01*
X417704Y419607D01*
X417724Y419473D01*
X417750Y419351D01*
X417780Y419240D01*
X417813Y419135D01*
X417849Y419043D01*
X417885Y418958D01*
X417921Y418885D01*
X417957Y418820D01*
X417990Y418767D01*
X418019Y418721D01*
X418046Y418689D01*
X418065Y418662D01*
X418078Y418646D01*
X418082Y418643D01*
X418157Y418567D01*
X418239Y418502D01*
X418324Y418446D01*
X418413Y418397D01*
X418502Y418357D01*
X418590Y418321D01*
X418679Y418295D01*
X418761Y418272D01*
X418839Y418256D01*
X418912Y418243D01*
X418977Y418233D01*
X419033Y418226D01*
X419079Y418223D01*
X419115Y418220D01*
X419144D01*
X419226Y418223D01*
X419302Y418229D01*
X419374Y418239D01*
X419443Y418252D01*
X419508Y418269D01*
X419567Y418289D01*
X419623Y418308D01*
X419676Y418328D01*
X419722Y418348D01*
X419761Y418367D01*
X419794Y418387D01*
X419823Y418403D01*
X419846Y418416D01*
X419863Y418426D01*
X419873Y418433D01*
X419876Y418436D01*
X419928Y418479D01*
X419978Y418521D01*
X420023Y418571D01*
X420063Y418616D01*
X420099Y418666D01*
X420135Y418715D01*
X420161Y418761D01*
X420187Y418807D01*
X420210Y418853D01*
X420230Y418892D01*
X420246Y418928D01*
X420256Y418958D01*
X420266Y418984D01*
X420273Y419003D01*
X420279Y419017D01*
Y419020D01*
X421289Y418833D01*
X421257Y418705D01*
X421217Y418587D01*
X421171Y418475D01*
X421119Y418370D01*
X421066Y418272D01*
X421007Y418184D01*
X420952Y418102D01*
X420893Y418026D01*
X420837Y417964D01*
X420784Y417905D01*
X420738Y417856D01*
X420696Y417816D01*
X420660Y417783D01*
X420634Y417764D01*
X420617Y417747D01*
X420611Y417744D01*
X420506Y417675D01*
X420397Y417613D01*
X420279Y417560D01*
X420158Y417518D01*
X420037Y417478D01*
X419915Y417446D01*
X419794Y417419D01*
X419679Y417400D01*
X419571Y417383D01*
X419469Y417370D01*
X419377Y417364D01*
X419338Y417360D01*
X419299Y417357D01*
X419266Y417354D01*
X419233D01*
X419207Y417350D01*
X419144D01*
X419013Y417354D01*
X418885Y417360D01*
X418764Y417373D01*
X418652Y417390D01*
X418544Y417409D01*
X418446Y417429D01*
X418354Y417452D01*
X418272Y417475D01*
X418196Y417498D01*
X418127Y417521D01*
X418072Y417541D01*
X418026Y417560D01*
X417986Y417577D01*
X417960Y417590D01*
X417944Y417596D01*
X417937Y417600D01*
X417823Y417665D01*
X417714Y417734D01*
X417613Y417810D01*
X417518Y417885D01*
X417432Y417964D01*
X417350Y418043D01*
X417278Y418118D01*
X417216Y418193D01*
X417157Y418265D01*
X417107Y418331D01*
X417065Y418390D01*
X417032Y418439D01*
X417006Y418482D01*
X416986Y418515D01*
X416973Y418535D01*
X416970Y418538D01*
Y418541D01*
X416911Y418656D01*
X416861Y418777D01*
X416816Y418895D01*
X416780Y419017D01*
X416747Y419135D01*
X416720Y419249D01*
X416698Y419361D01*
X416681Y419469D01*
X416665Y419568D01*
X416655Y419656D01*
X416648Y419738D01*
X416645Y419807D01*
X416642Y419837D01*
Y419863D01*
X416638Y419886D01*
Y419902D01*
Y419919D01*
Y419929D01*
Y419935D01*
Y419938D01*
X416642Y420073D01*
X416652Y420204D01*
X416665Y420332D01*
X416684Y420457D01*
X416707Y420571D01*
X416734Y420683D01*
X416760Y420788D01*
X416786Y420883D01*
X416812Y420971D01*
X416842Y421050D01*
X416865Y421119D01*
X416888Y421175D01*
X416907Y421221D01*
X416921Y421254D01*
X416927Y421267D01*
X416930Y421277D01*
X416934Y421280D01*
Y421283D01*
X416993Y421395D01*
X417058Y421500D01*
X417127Y421598D01*
X417199Y421690D01*
X417272Y421775D01*
X417344Y421854D01*
X417419Y421926D01*
X417488Y421988D01*
X417557Y422044D01*
X417619Y422093D01*
X417675Y422136D01*
X417724Y422169D01*
X417764Y422195D01*
X417793Y422215D01*
X417813Y422228D01*
X417819Y422231D01*
X417931Y422290D01*
X418049Y422339D01*
X418164Y422385D01*
X418282Y422421D01*
X418400Y422454D01*
X418515Y422480D01*
X418626Y422503D01*
X418731Y422520D01*
X418829Y422536D01*
X418918Y422546D01*
X418997Y422552D01*
X419066Y422556D01*
X419095Y422559D01*
X419125D01*
X419144Y422562D01*
X419200D01*
X419315Y422559D01*
D02*
G37*
G36*
X429496Y422474D02*
X429588Y422467D01*
X429676Y422461D01*
X429755Y422454D01*
X429831Y422444D01*
X429896Y422434D01*
X429958Y422425D01*
X430014Y422415D01*
X430060Y422405D01*
X430103Y422395D01*
X430136Y422389D01*
X430162Y422382D01*
X430182Y422375D01*
X430195Y422372D01*
X430198D01*
X430280Y422343D01*
X430359Y422313D01*
X430431Y422280D01*
X430500Y422247D01*
X430562Y422215D01*
X430621Y422182D01*
X430677Y422149D01*
X430723Y422116D01*
X430769Y422087D01*
X430805Y422057D01*
X430838Y422034D01*
X430864Y422011D01*
X430887Y421995D01*
X430900Y421979D01*
X430910Y421972D01*
X430913Y421969D01*
X430979Y421903D01*
X431038Y421831D01*
X431093Y421759D01*
X431146Y421687D01*
X431195Y421611D01*
X431238Y421539D01*
X431280Y421467D01*
X431316Y421395D01*
X431346Y421332D01*
X431376Y421270D01*
X431398Y421217D01*
X431418Y421172D01*
X431434Y421132D01*
X431444Y421103D01*
X431451Y421086D01*
X431454Y421080D01*
X431480Y420995D01*
X431507Y420903D01*
X431543Y420719D01*
X431572Y420542D01*
X431582Y420453D01*
X431589Y420371D01*
X431595Y420296D01*
X431602Y420224D01*
X431605Y420161D01*
Y420109D01*
X431608Y420063D01*
Y420030D01*
Y420020D01*
Y420011D01*
Y420007D01*
Y420004D01*
X431605Y419873D01*
X431602Y419748D01*
X431592Y419630D01*
X431582Y419519D01*
X431569Y419414D01*
X431556Y419315D01*
X431539Y419227D01*
X431526Y419141D01*
X431510Y419069D01*
X431494Y419003D01*
X431480Y418948D01*
X431467Y418899D01*
X431458Y418862D01*
X431448Y418836D01*
X431444Y418820D01*
X431441Y418813D01*
X431408Y418725D01*
X431372Y418639D01*
X431336Y418557D01*
X431297Y418482D01*
X431257Y418410D01*
X431218Y418344D01*
X431175Y418282D01*
X431139Y418223D01*
X431103Y418174D01*
X431067Y418128D01*
X431038Y418088D01*
X431011Y418056D01*
X430988Y418029D01*
X430972Y418013D01*
X430962Y418000D01*
X430959Y417997D01*
X430900Y417938D01*
X430838Y417882D01*
X430772Y417829D01*
X430706Y417783D01*
X430644Y417741D01*
X430582Y417701D01*
X430519Y417669D01*
X430464Y417639D01*
X430408Y417613D01*
X430359Y417590D01*
X430313Y417570D01*
X430277Y417557D01*
X430244Y417544D01*
X430221Y417537D01*
X430208Y417531D01*
X430201D01*
X430136Y417514D01*
X430063Y417498D01*
X429988Y417488D01*
X429913Y417475D01*
X429752Y417459D01*
X429673Y417452D01*
X429598Y417449D01*
X429526Y417442D01*
X429457Y417439D01*
X429398D01*
X429345Y417436D01*
X427380D01*
Y422477D01*
X429398D01*
X429496Y422474D01*
D02*
G37*
G36*
X426308Y417436D02*
X425360D01*
Y420804D01*
X423297Y417436D01*
X422306D01*
Y422477D01*
X423251D01*
Y419191D01*
X425284Y422477D01*
X426308D01*
Y417436D01*
D02*
G37*
G36*
X423841Y432559D02*
X423956Y432552D01*
X424071Y432539D01*
X424179Y432526D01*
X424287Y432510D01*
X424386Y432490D01*
X424484Y432467D01*
X424573Y432444D01*
X424655Y432425D01*
X424730Y432402D01*
X424792Y432382D01*
X424848Y432366D01*
X424894Y432352D01*
X424927Y432339D01*
X424937Y432336D01*
X424947Y432333D01*
X424950Y432329D01*
X424953D01*
X425065Y432283D01*
X425170Y432238D01*
X425265Y432192D01*
X425357Y432146D01*
X425439Y432100D01*
X425514Y432054D01*
X425583Y432011D01*
X425645Y431969D01*
X425701Y431929D01*
X425750Y431896D01*
X425790Y431864D01*
X425822Y431837D01*
X425849Y431814D01*
X425868Y431798D01*
X425878Y431788D01*
X425881Y431785D01*
Y429774D01*
X423687D01*
Y430624D01*
X424855D01*
Y431263D01*
X424763Y431329D01*
X424671Y431388D01*
X424576Y431441D01*
X424491Y431483D01*
X424451Y431503D01*
X424415Y431519D01*
X424382Y431532D01*
X424353Y431545D01*
X424333Y431555D01*
X424314Y431562D01*
X424304Y431568D01*
X424300D01*
X424182Y431611D01*
X424064Y431641D01*
X423956Y431664D01*
X423907Y431670D01*
X423861Y431677D01*
X423818Y431683D01*
X423779Y431687D01*
X423746Y431690D01*
X423717D01*
X423694Y431693D01*
X423661D01*
X423543Y431687D01*
X423431Y431673D01*
X423323Y431650D01*
X423225Y431624D01*
X423133Y431588D01*
X423047Y431552D01*
X422965Y431513D01*
X422897Y431470D01*
X422831Y431427D01*
X422775Y431388D01*
X422726Y431352D01*
X422687Y431316D01*
X422657Y431290D01*
X422634Y431267D01*
X422618Y431250D01*
X422615Y431247D01*
X422546Y431158D01*
X422483Y431060D01*
X422428Y430955D01*
X422385Y430847D01*
X422346Y430735D01*
X422313Y430624D01*
X422287Y430512D01*
X422264Y430404D01*
X422247Y430302D01*
X422234Y430207D01*
X422227Y430122D01*
X422224Y430083D01*
X422221Y430047D01*
X422218Y430014D01*
Y429984D01*
X422214Y429958D01*
Y429938D01*
Y429922D01*
Y429909D01*
Y429902D01*
Y429899D01*
X422218Y429748D01*
X422231Y429607D01*
X422251Y429473D01*
X422277Y429351D01*
X422306Y429240D01*
X422339Y429135D01*
X422375Y429043D01*
X422411Y428958D01*
X422447Y428885D01*
X422483Y428820D01*
X422516Y428767D01*
X422546Y428721D01*
X422572Y428689D01*
X422592Y428662D01*
X422605Y428646D01*
X422608Y428643D01*
X422683Y428567D01*
X422765Y428502D01*
X422851Y428446D01*
X422939Y428397D01*
X423028Y428357D01*
X423116Y428321D01*
X423205Y428295D01*
X423287Y428272D01*
X423366Y428256D01*
X423438Y428243D01*
X423503Y428233D01*
X423559Y428226D01*
X423605Y428223D01*
X423641Y428220D01*
X423671D01*
X423753Y428223D01*
X423828Y428229D01*
X423900Y428239D01*
X423969Y428252D01*
X424035Y428269D01*
X424094Y428289D01*
X424150Y428308D01*
X424202Y428328D01*
X424248Y428347D01*
X424287Y428367D01*
X424320Y428387D01*
X424350Y428403D01*
X424373Y428416D01*
X424389Y428426D01*
X424399Y428433D01*
X424402Y428436D01*
X424455Y428479D01*
X424504Y428521D01*
X424550Y428571D01*
X424589Y428617D01*
X424625Y428666D01*
X424661Y428715D01*
X424688Y428761D01*
X424714Y428807D01*
X424737Y428853D01*
X424756Y428892D01*
X424773Y428928D01*
X424783Y428958D01*
X424792Y428984D01*
X424799Y429003D01*
X424806Y429017D01*
Y429020D01*
X425816Y428833D01*
X425783Y428705D01*
X425744Y428587D01*
X425698Y428475D01*
X425645Y428371D01*
X425593Y428272D01*
X425534Y428184D01*
X425478Y428101D01*
X425419Y428026D01*
X425363Y427964D01*
X425311Y427905D01*
X425265Y427855D01*
X425222Y427816D01*
X425186Y427783D01*
X425160Y427764D01*
X425143Y427747D01*
X425137Y427744D01*
X425032Y427675D01*
X424924Y427613D01*
X424806Y427560D01*
X424684Y427518D01*
X424563Y427478D01*
X424442Y427446D01*
X424320Y427419D01*
X424205Y427400D01*
X424097Y427383D01*
X423995Y427370D01*
X423904Y427363D01*
X423864Y427360D01*
X423825Y427357D01*
X423792Y427354D01*
X423759D01*
X423733Y427350D01*
X423671D01*
X423539Y427354D01*
X423412Y427360D01*
X423290Y427373D01*
X423179Y427390D01*
X423070Y427409D01*
X422972Y427429D01*
X422880Y427452D01*
X422798Y427475D01*
X422723Y427498D01*
X422654Y427521D01*
X422598Y427541D01*
X422552Y427560D01*
X422513Y427577D01*
X422487Y427590D01*
X422470Y427596D01*
X422464Y427600D01*
X422349Y427665D01*
X422241Y427734D01*
X422139Y427810D01*
X422044Y427885D01*
X421959Y427964D01*
X421877Y428043D01*
X421804Y428118D01*
X421742Y428193D01*
X421683Y428265D01*
X421634Y428331D01*
X421591Y428390D01*
X421558Y428439D01*
X421532Y428482D01*
X421513Y428515D01*
X421499Y428535D01*
X421496Y428538D01*
Y428541D01*
X421437Y428656D01*
X421388Y428777D01*
X421342Y428895D01*
X421306Y429017D01*
X421273Y429135D01*
X421247Y429249D01*
X421224Y429361D01*
X421208Y429469D01*
X421191Y429568D01*
X421181Y429656D01*
X421175Y429738D01*
X421171Y429807D01*
X421168Y429837D01*
Y429863D01*
X421165Y429886D01*
Y429902D01*
Y429919D01*
Y429928D01*
Y429935D01*
Y429938D01*
X421168Y430073D01*
X421178Y430204D01*
X421191Y430332D01*
X421211Y430457D01*
X421234Y430571D01*
X421260Y430683D01*
X421286Y430788D01*
X421312Y430883D01*
X421339Y430971D01*
X421368Y431050D01*
X421391Y431119D01*
X421414Y431175D01*
X421434Y431221D01*
X421447Y431254D01*
X421454Y431267D01*
X421457Y431277D01*
X421460Y431280D01*
Y431283D01*
X421519Y431395D01*
X421585Y431500D01*
X421654Y431598D01*
X421726Y431690D01*
X421798Y431775D01*
X421870Y431854D01*
X421945Y431926D01*
X422014Y431988D01*
X422083Y432044D01*
X422146Y432093D01*
X422201Y432136D01*
X422251Y432169D01*
X422290Y432195D01*
X422319Y432215D01*
X422339Y432228D01*
X422346Y432231D01*
X422457Y432290D01*
X422575Y432339D01*
X422690Y432385D01*
X422808Y432421D01*
X422926Y432454D01*
X423041Y432480D01*
X423152Y432503D01*
X423257Y432520D01*
X423356Y432536D01*
X423444Y432546D01*
X423523Y432552D01*
X423592Y432556D01*
X423622Y432559D01*
X423651D01*
X423671Y432562D01*
X423727D01*
X423841Y432559D01*
D02*
G37*
%LPC*%
G36*
X481687Y399297D02*
X480996D01*
Y398424D01*
X481697D01*
X481766Y398426D01*
X481827D01*
X481879Y398429D01*
X481965D01*
X481997Y398431D01*
X482024D01*
X482046Y398433D01*
X482061D01*
X482073Y398436D01*
X482088D01*
X482154Y398448D01*
X482213Y398468D01*
X482263Y398490D01*
X482304Y398512D01*
X482336Y398534D01*
X482359Y398554D01*
X482371Y398566D01*
X482376Y398569D01*
Y398571D01*
X482408Y398615D01*
X482432Y398660D01*
X482450Y398709D01*
X482459Y398753D01*
X482467Y398793D01*
X482469Y398810D01*
Y398825D01*
X482472Y398837D01*
Y398847D01*
Y398852D01*
Y398854D01*
Y398888D01*
X482467Y398918D01*
X482454Y398977D01*
X482435Y399026D01*
X482415Y399071D01*
X482395Y399105D01*
X482376Y399130D01*
X482368Y399137D01*
X482364Y399144D01*
X482361Y399147D01*
X482359Y399149D01*
X482314Y399189D01*
X482265Y399218D01*
X482213Y399243D01*
X482164Y399260D01*
X482120Y399272D01*
X482100Y399275D01*
X482083Y399280D01*
X482071Y399282D01*
X482061D01*
X482054Y399285D01*
X482051D01*
X482026Y399287D01*
X481997Y399289D01*
X481960D01*
X481918Y399292D01*
X481874D01*
X481830Y399294D01*
X481734D01*
X481687Y399297D01*
D02*
G37*
G36*
X465254D02*
X464563D01*
Y398424D01*
X465264D01*
X465333Y398426D01*
X465394D01*
X465446Y398429D01*
X465532D01*
X465564Y398431D01*
X465591D01*
X465613Y398433D01*
X465628D01*
X465640Y398436D01*
X465655D01*
X465722Y398448D01*
X465781Y398468D01*
X465830Y398490D01*
X465872Y398512D01*
X465904Y398534D01*
X465926Y398554D01*
X465938Y398566D01*
X465943Y398569D01*
Y398571D01*
X465975Y398615D01*
X466000Y398660D01*
X466017Y398709D01*
X466027Y398753D01*
X466034Y398793D01*
X466036Y398810D01*
Y398825D01*
X466039Y398837D01*
Y398847D01*
Y398852D01*
Y398854D01*
Y398888D01*
X466034Y398918D01*
X466022Y398977D01*
X466002Y399026D01*
X465982Y399071D01*
X465963Y399105D01*
X465943Y399130D01*
X465936Y399137D01*
X465931Y399144D01*
X465928Y399147D01*
X465926Y399149D01*
X465881Y399189D01*
X465832Y399218D01*
X465781Y399243D01*
X465731Y399260D01*
X465687Y399272D01*
X465667Y399275D01*
X465650Y399280D01*
X465638Y399282D01*
X465628D01*
X465621Y399285D01*
X465618D01*
X465594Y399287D01*
X465564Y399289D01*
X465527D01*
X465485Y399292D01*
X465441D01*
X465397Y399294D01*
X465301D01*
X465254Y399297D01*
D02*
G37*
G36*
X476066Y400938D02*
X475416D01*
Y398433D01*
X475844D01*
X475923Y398436D01*
X475992D01*
X476056Y398438D01*
X476113Y398441D01*
X476164Y398446D01*
X476211Y398448D01*
X476250Y398451D01*
X476285Y398456D01*
X476312Y398458D01*
X476336Y398460D01*
X476356Y398465D01*
X476371Y398468D01*
X476381D01*
X476386Y398470D01*
X476388D01*
X476464Y398492D01*
X476533Y398517D01*
X476595Y398547D01*
X476619Y398564D01*
X476644Y398579D01*
X476666Y398591D01*
X476686Y398606D01*
X476700Y398618D01*
X476715Y398628D01*
X476725Y398638D01*
X476732Y398645D01*
X476737Y398647D01*
X476740Y398650D01*
X476789Y398704D01*
X476833Y398761D01*
X476870Y398822D01*
X476900Y398881D01*
X476915Y398908D01*
X476924Y398933D01*
X476934Y398955D01*
X476942Y398975D01*
X476949Y398992D01*
X476954Y399004D01*
X476956Y399011D01*
Y399014D01*
X476971Y399061D01*
X476983Y399110D01*
X476993Y399164D01*
X477003Y399218D01*
X477015Y399329D01*
X477020Y399385D01*
X477025Y399440D01*
X477028Y399489D01*
X477030Y399535D01*
X477033Y399580D01*
X477035Y399617D01*
Y399646D01*
Y399668D01*
Y399683D01*
Y399686D01*
Y399688D01*
Y399767D01*
X477033Y399843D01*
X477028Y399914D01*
X477023Y399981D01*
X477018Y400042D01*
X477010Y400099D01*
X477003Y400153D01*
X476996Y400200D01*
X476988Y400242D01*
X476981Y400278D01*
X476974Y400308D01*
X476969Y400335D01*
X476964Y400355D01*
X476959Y400369D01*
X476956Y400379D01*
Y400382D01*
X476942Y400428D01*
X476927Y400470D01*
X476910Y400510D01*
X476892Y400547D01*
X476878Y400578D01*
X476860Y400608D01*
X476843Y400635D01*
X476828Y400660D01*
X476814Y400679D01*
X476799Y400697D01*
X476789Y400711D01*
X476777Y400724D01*
X476769Y400734D01*
X476762Y400741D01*
X476760Y400743D01*
X476757Y400746D01*
X476708Y400785D01*
X476656Y400817D01*
X476607Y400844D01*
X476558Y400866D01*
X476514Y400884D01*
X476496Y400888D01*
X476482Y400893D01*
X476467Y400898D01*
X476457Y400901D01*
X476452Y400903D01*
X476450D01*
X476420Y400908D01*
X476388Y400915D01*
X476354Y400918D01*
X476317Y400923D01*
X476240Y400930D01*
X476164Y400933D01*
X476130Y400935D01*
X476095D01*
X476066Y400938D01*
D02*
G37*
G36*
X454484Y399506D02*
X453992D01*
Y398433D01*
X454504D01*
X454565Y398436D01*
X454622Y398438D01*
X454671Y398441D01*
X454718D01*
X454757Y398443D01*
X454792Y398446D01*
X454821Y398448D01*
X454846Y398451D01*
X454868Y398453D01*
X454885Y398456D01*
X454898Y398458D01*
X454905D01*
X454910Y398460D01*
X454912D01*
X454979Y398478D01*
X455038Y398500D01*
X455089Y398527D01*
X455134Y398556D01*
X455171Y398583D01*
X455183Y398596D01*
X455195Y398606D01*
X455205Y398615D01*
X455212Y398623D01*
X455215Y398625D01*
X455217Y398628D01*
X455239Y398652D01*
X455259Y398679D01*
X455274Y398709D01*
X455289Y398736D01*
X455311Y398793D01*
X455326Y398847D01*
X455333Y398896D01*
X455338Y398916D01*
Y398933D01*
X455340Y398948D01*
Y398957D01*
Y398965D01*
Y398967D01*
X455335Y399029D01*
X455326Y399083D01*
X455313Y399134D01*
X455296Y399176D01*
X455279Y399213D01*
X455271Y399228D01*
X455267Y399240D01*
X455259Y399250D01*
X455257Y399257D01*
X455252Y399260D01*
Y399262D01*
X455217Y399307D01*
X455178Y399344D01*
X455139Y399376D01*
X455099Y399403D01*
X455065Y399422D01*
X455038Y399435D01*
X455028Y399440D01*
X455021Y399445D01*
X455016Y399447D01*
X455013D01*
X454981Y399457D01*
X454944Y399467D01*
X454903Y399474D01*
X454856Y399481D01*
X454807Y399486D01*
X454757Y399491D01*
X454657Y399499D01*
X454607Y399501D01*
X454561Y399503D01*
X454521D01*
X454484Y399506D01*
D02*
G37*
G36*
X429263Y421628D02*
X428397D01*
Y418289D01*
X428968D01*
X429073Y418292D01*
X429165D01*
X429250Y418295D01*
X429325Y418298D01*
X429394Y418305D01*
X429457Y418308D01*
X429509Y418311D01*
X429555Y418318D01*
X429591Y418321D01*
X429624Y418325D01*
X429650Y418331D01*
X429670Y418334D01*
X429683D01*
X429690Y418338D01*
X429693D01*
X429795Y418367D01*
X429886Y418400D01*
X429968Y418439D01*
X430001Y418462D01*
X430034Y418482D01*
X430063Y418498D01*
X430090Y418518D01*
X430109Y418535D01*
X430129Y418548D01*
X430142Y418561D01*
X430152Y418571D01*
X430159Y418574D01*
X430162Y418577D01*
X430228Y418649D01*
X430287Y418725D01*
X430336Y418807D01*
X430375Y418885D01*
X430395Y418922D01*
X430408Y418954D01*
X430421Y418984D01*
X430431Y419010D01*
X430441Y419033D01*
X430447Y419049D01*
X430450Y419059D01*
Y419063D01*
X430470Y419125D01*
X430487Y419191D01*
X430500Y419263D01*
X430513Y419335D01*
X430529Y419482D01*
X430536Y419558D01*
X430542Y419630D01*
X430546Y419696D01*
X430549Y419758D01*
X430552Y419817D01*
X430555Y419866D01*
Y419906D01*
Y419935D01*
Y419955D01*
Y419958D01*
Y419961D01*
Y420066D01*
X430552Y420168D01*
X430546Y420263D01*
X430539Y420352D01*
X430533Y420434D01*
X430523Y420509D01*
X430513Y420581D01*
X430503Y420644D01*
X430493Y420699D01*
X430483Y420749D01*
X430474Y420788D01*
X430467Y420824D01*
X430460Y420850D01*
X430454Y420870D01*
X430450Y420883D01*
Y420886D01*
X430431Y420949D01*
X430411Y421004D01*
X430388Y421057D01*
X430365Y421106D01*
X430346Y421149D01*
X430323Y421188D01*
X430300Y421224D01*
X430280Y421257D01*
X430260Y421283D01*
X430241Y421306D01*
X430228Y421326D01*
X430211Y421342D01*
X430201Y421355D01*
X430191Y421365D01*
X430188Y421368D01*
X430185Y421372D01*
X430119Y421424D01*
X430050Y421467D01*
X429985Y421503D01*
X429919Y421532D01*
X429860Y421555D01*
X429837Y421562D01*
X429817Y421568D01*
X429798Y421575D01*
X429785Y421578D01*
X429778Y421582D01*
X429775D01*
X429736Y421588D01*
X429693Y421598D01*
X429647Y421601D01*
X429598Y421608D01*
X429496Y421618D01*
X429394Y421621D01*
X429348Y421624D01*
X429303D01*
X429263Y421628D01*
D02*
G37*
G36*
X423736Y411627D02*
X422870D01*
Y408288D01*
X423441D01*
X423546Y408292D01*
X423638D01*
X423723Y408295D01*
X423799Y408298D01*
X423868Y408305D01*
X423930Y408308D01*
X423982Y408311D01*
X424028Y408318D01*
X424064Y408321D01*
X424097Y408325D01*
X424123Y408331D01*
X424143Y408334D01*
X424156D01*
X424163Y408338D01*
X424166D01*
X424268Y408367D01*
X424360Y408400D01*
X424442Y408439D01*
X424474Y408462D01*
X424507Y408482D01*
X424537Y408498D01*
X424563Y408518D01*
X424583Y408534D01*
X424602Y408548D01*
X424615Y408561D01*
X424625Y408571D01*
X424632Y408574D01*
X424635Y408577D01*
X424701Y408649D01*
X424760Y408725D01*
X424809Y408807D01*
X424848Y408885D01*
X424868Y408921D01*
X424881Y408954D01*
X424894Y408984D01*
X424904Y409010D01*
X424914Y409033D01*
X424920Y409049D01*
X424924Y409059D01*
Y409063D01*
X424943Y409125D01*
X424960Y409191D01*
X424973Y409263D01*
X424986Y409335D01*
X425002Y409482D01*
X425009Y409558D01*
X425015Y409630D01*
X425019Y409696D01*
X425022Y409758D01*
X425025Y409817D01*
X425029Y409866D01*
Y409905D01*
Y409935D01*
Y409955D01*
Y409958D01*
Y409961D01*
Y410066D01*
X425025Y410168D01*
X425019Y410263D01*
X425012Y410352D01*
X425006Y410434D01*
X424996Y410509D01*
X424986Y410581D01*
X424976Y410643D01*
X424966Y410699D01*
X424957Y410748D01*
X424947Y410788D01*
X424940Y410824D01*
X424934Y410850D01*
X424927Y410870D01*
X424924Y410883D01*
Y410886D01*
X424904Y410949D01*
X424884Y411004D01*
X424861Y411057D01*
X424838Y411106D01*
X424819Y411149D01*
X424796Y411188D01*
X424773Y411224D01*
X424753Y411257D01*
X424733Y411283D01*
X424714Y411306D01*
X424701Y411326D01*
X424684Y411342D01*
X424674Y411355D01*
X424665Y411365D01*
X424661Y411368D01*
X424658Y411372D01*
X424592Y411424D01*
X424523Y411467D01*
X424458Y411503D01*
X424392Y411532D01*
X424333Y411555D01*
X424310Y411562D01*
X424291Y411568D01*
X424271Y411575D01*
X424258Y411578D01*
X424251Y411582D01*
X424248D01*
X424209Y411588D01*
X424166Y411598D01*
X424120Y411601D01*
X424071Y411608D01*
X423969Y411618D01*
X423868Y411621D01*
X423822Y411624D01*
X423776D01*
X423736Y411627D01*
D02*
G37*
G36*
X525371Y466212D02*
X522032D01*
Y465753D01*
Y465641D01*
X522035Y465536D01*
Y465445D01*
X522038Y465359D01*
X522041Y465284D01*
X522048Y465215D01*
X522051Y465153D01*
X522054Y465100D01*
X522061Y465054D01*
X522064Y465018D01*
X522068Y464986D01*
X522074Y464959D01*
X522078Y464940D01*
Y464926D01*
X522081Y464920D01*
Y464917D01*
X522110Y464815D01*
X522143Y464723D01*
X522182Y464641D01*
X522205Y464608D01*
X522225Y464575D01*
X522241Y464546D01*
X522261Y464520D01*
X522278Y464500D01*
X522291Y464480D01*
X522304Y464467D01*
X522314Y464457D01*
X522317Y464451D01*
X522320Y464448D01*
X522392Y464382D01*
X522468Y464323D01*
X522550Y464274D01*
X522628Y464234D01*
X522665Y464215D01*
X522697Y464202D01*
X522727Y464188D01*
X522753Y464179D01*
X522776Y464169D01*
X522792Y464162D01*
X522802Y464159D01*
X522806D01*
X522868Y464139D01*
X522934Y464123D01*
X523006Y464110D01*
X523078Y464097D01*
X523225Y464080D01*
X523301Y464074D01*
X523373Y464067D01*
X523439Y464064D01*
X523501Y464060D01*
X523560Y464057D01*
X523609Y464054D01*
X523809D01*
X523911Y464057D01*
X524006Y464064D01*
X524095Y464070D01*
X524177Y464077D01*
X524252Y464087D01*
X524324Y464097D01*
X524387Y464107D01*
X524442Y464116D01*
X524492Y464126D01*
X524531Y464136D01*
X524567Y464143D01*
X524593Y464149D01*
X524613Y464156D01*
X524626Y464159D01*
X524629D01*
X524692Y464179D01*
X524747Y464198D01*
X524800Y464221D01*
X524849Y464244D01*
X524892Y464264D01*
X524931Y464287D01*
X524967Y464310D01*
X525000Y464329D01*
X525026Y464349D01*
X525049Y464369D01*
X525069Y464382D01*
X525085Y464398D01*
X525098Y464408D01*
X525108Y464418D01*
X525111Y464421D01*
X525115Y464425D01*
X525167Y464490D01*
X525210Y464559D01*
X525246Y464625D01*
X525276Y464690D01*
X525298Y464749D01*
X525305Y464772D01*
X525312Y464792D01*
X525318Y464812D01*
X525321Y464825D01*
X525325Y464831D01*
Y464835D01*
X525331Y464874D01*
X525341Y464917D01*
X525344Y464963D01*
X525351Y465012D01*
X525361Y465113D01*
X525364Y465215D01*
X525367Y465261D01*
Y465307D01*
X525371Y465346D01*
Y465382D01*
Y465412D01*
Y465432D01*
Y465445D01*
Y465451D01*
Y466212D01*
D02*
G37*
G36*
X428824Y411627D02*
X427958D01*
Y408288D01*
X428528D01*
X428633Y408292D01*
X428725D01*
X428811Y408295D01*
X428886Y408298D01*
X428955Y408305D01*
X429017Y408308D01*
X429070Y408311D01*
X429115Y408318D01*
X429152Y408321D01*
X429184Y408325D01*
X429211Y408331D01*
X429230Y408334D01*
X429244D01*
X429250Y408338D01*
X429253D01*
X429355Y408367D01*
X429447Y408400D01*
X429529Y408439D01*
X429562Y408462D01*
X429594Y408482D01*
X429624Y408498D01*
X429650Y408518D01*
X429670Y408534D01*
X429690Y408548D01*
X429703Y408561D01*
X429712Y408571D01*
X429719Y408574D01*
X429722Y408577D01*
X429788Y408649D01*
X429847Y408725D01*
X429896Y408807D01*
X429936Y408885D01*
X429955Y408921D01*
X429968Y408954D01*
X429982Y408984D01*
X429991Y409010D01*
X430001Y409033D01*
X430008Y409049D01*
X430011Y409059D01*
Y409063D01*
X430031Y409125D01*
X430047Y409191D01*
X430060Y409263D01*
X430073Y409335D01*
X430090Y409482D01*
X430096Y409558D01*
X430103Y409630D01*
X430106Y409696D01*
X430109Y409758D01*
X430113Y409817D01*
X430116Y409866D01*
Y409905D01*
Y409935D01*
Y409955D01*
Y409958D01*
Y409961D01*
Y410066D01*
X430113Y410168D01*
X430106Y410263D01*
X430099Y410352D01*
X430093Y410434D01*
X430083Y410509D01*
X430073Y410581D01*
X430063Y410643D01*
X430054Y410699D01*
X430044Y410748D01*
X430034Y410788D01*
X430027Y410824D01*
X430021Y410850D01*
X430014Y410870D01*
X430011Y410883D01*
Y410886D01*
X429991Y410949D01*
X429972Y411004D01*
X429949Y411057D01*
X429926Y411106D01*
X429906Y411149D01*
X429883Y411188D01*
X429860Y411224D01*
X429840Y411257D01*
X429821Y411283D01*
X429801Y411306D01*
X429788Y411326D01*
X429772Y411342D01*
X429762Y411355D01*
X429752Y411365D01*
X429749Y411368D01*
X429745Y411372D01*
X429680Y411424D01*
X429611Y411467D01*
X429545Y411503D01*
X429480Y411532D01*
X429421Y411555D01*
X429398Y411562D01*
X429378Y411568D01*
X429358Y411575D01*
X429345Y411578D01*
X429339Y411582D01*
X429335D01*
X429296Y411588D01*
X429253Y411598D01*
X429207Y411601D01*
X429158Y411608D01*
X429057Y411618D01*
X428955Y411621D01*
X428909Y411624D01*
X428863D01*
X428824Y411627D01*
D02*
G37*
G36*
X525371Y461125D02*
X522032D01*
Y460666D01*
Y460554D01*
X522035Y460449D01*
Y460357D01*
X522038Y460272D01*
X522041Y460197D01*
X522048Y460128D01*
X522051Y460066D01*
X522054Y460013D01*
X522061Y459967D01*
X522064Y459931D01*
X522068Y459898D01*
X522074Y459872D01*
X522078Y459852D01*
Y459839D01*
X522081Y459833D01*
Y459829D01*
X522110Y459728D01*
X522143Y459636D01*
X522182Y459554D01*
X522205Y459521D01*
X522225Y459488D01*
X522241Y459459D01*
X522261Y459433D01*
X522278Y459413D01*
X522291Y459393D01*
X522304Y459380D01*
X522314Y459370D01*
X522317Y459364D01*
X522320Y459360D01*
X522392Y459295D01*
X522468Y459236D01*
X522550Y459187D01*
X522628Y459147D01*
X522665Y459127D01*
X522697Y459114D01*
X522727Y459101D01*
X522753Y459091D01*
X522776Y459082D01*
X522792Y459075D01*
X522802Y459072D01*
X522806D01*
X522868Y459052D01*
X522934Y459036D01*
X523006Y459023D01*
X523078Y459009D01*
X523225Y458993D01*
X523301Y458986D01*
X523373Y458980D01*
X523439Y458977D01*
X523501Y458973D01*
X523560Y458970D01*
X523609Y458967D01*
X523809D01*
X523911Y458970D01*
X524006Y458977D01*
X524095Y458983D01*
X524177Y458990D01*
X524252Y458999D01*
X524324Y459009D01*
X524387Y459019D01*
X524442Y459029D01*
X524492Y459039D01*
X524531Y459049D01*
X524567Y459055D01*
X524593Y459062D01*
X524613Y459068D01*
X524626Y459072D01*
X524629D01*
X524692Y459091D01*
X524747Y459111D01*
X524800Y459134D01*
X524849Y459157D01*
X524892Y459177D01*
X524931Y459200D01*
X524967Y459223D01*
X525000Y459242D01*
X525026Y459262D01*
X525049Y459282D01*
X525069Y459295D01*
X525085Y459311D01*
X525098Y459321D01*
X525108Y459331D01*
X525111Y459334D01*
X525115Y459337D01*
X525167Y459403D01*
X525210Y459472D01*
X525246Y459537D01*
X525276Y459603D01*
X525298Y459662D01*
X525305Y459685D01*
X525312Y459705D01*
X525318Y459724D01*
X525321Y459737D01*
X525325Y459744D01*
Y459747D01*
X525331Y459787D01*
X525341Y459829D01*
X525344Y459875D01*
X525351Y459925D01*
X525361Y460026D01*
X525364Y460128D01*
X525367Y460174D01*
Y460220D01*
X525371Y460259D01*
Y460295D01*
Y460325D01*
Y460344D01*
Y460357D01*
Y460364D01*
Y461125D01*
D02*
G37*
G36*
X418315Y439719D02*
X417659D01*
Y438288D01*
X418341D01*
X418423Y438292D01*
X418498Y438295D01*
X418564Y438298D01*
X418626D01*
X418679Y438302D01*
X418724Y438305D01*
X418764Y438308D01*
X418797Y438311D01*
X418826Y438315D01*
X418849Y438318D01*
X418865Y438321D01*
X418875D01*
X418882Y438325D01*
X418885D01*
X418974Y438347D01*
X419053Y438377D01*
X419121Y438413D01*
X419180Y438452D01*
X419230Y438489D01*
X419246Y438505D01*
X419262Y438518D01*
X419276Y438531D01*
X419285Y438541D01*
X419289Y438544D01*
X419292Y438548D01*
X419321Y438580D01*
X419348Y438617D01*
X419367Y438656D01*
X419387Y438692D01*
X419417Y438767D01*
X419436Y438839D01*
X419446Y438905D01*
X419453Y438931D01*
Y438954D01*
X419456Y438974D01*
Y438987D01*
Y438997D01*
Y439000D01*
X419449Y439082D01*
X419436Y439154D01*
X419420Y439223D01*
X419397Y439279D01*
X419374Y439328D01*
X419364Y439348D01*
X419357Y439364D01*
X419348Y439377D01*
X419344Y439387D01*
X419338Y439391D01*
Y439394D01*
X419292Y439453D01*
X419240Y439502D01*
X419187Y439545D01*
X419135Y439581D01*
X419089Y439607D01*
X419053Y439623D01*
X419039Y439630D01*
X419030Y439637D01*
X419023Y439640D01*
X419020D01*
X418977Y439653D01*
X418928Y439666D01*
X418872Y439676D01*
X418810Y439686D01*
X418744Y439692D01*
X418679Y439699D01*
X418544Y439709D01*
X418478Y439712D01*
X418416Y439715D01*
X418364D01*
X418315Y439719D01*
D02*
G37*
G36*
X496174Y401046D02*
X496162D01*
X496110Y401043D01*
X496061Y401036D01*
X496011Y401026D01*
X495967Y401012D01*
X495925Y400997D01*
X495886Y400977D01*
X495849Y400957D01*
X495817Y400938D01*
X495788Y400918D01*
X495761Y400898D01*
X495739Y400879D01*
X495719Y400864D01*
X495704Y400849D01*
X495694Y400839D01*
X495687Y400832D01*
X495684Y400829D01*
X495650Y400788D01*
X495620Y400741D01*
X495596Y400692D01*
X495574Y400640D01*
X495554Y400588D01*
X495539Y400537D01*
X495527Y400488D01*
X495517Y400436D01*
X495510Y400389D01*
X495502Y400347D01*
X495497Y400308D01*
X495495Y400274D01*
Y400246D01*
X495493Y400224D01*
Y400212D01*
Y400207D01*
X495495Y400133D01*
X495500Y400062D01*
X495510Y399998D01*
X495522Y399937D01*
X495537Y399882D01*
X495554Y399831D01*
X495571Y399784D01*
X495588Y399742D01*
X495606Y399705D01*
X495623Y399673D01*
X495640Y399644D01*
X495655Y399622D01*
X495667Y399604D01*
X495677Y399592D01*
X495682Y399585D01*
X495684Y399582D01*
X495721Y399543D01*
X495761Y399511D01*
X495800Y399481D01*
X495842Y399457D01*
X495881Y399437D01*
X495921Y399417D01*
X495960Y399405D01*
X495997Y399393D01*
X496031Y399383D01*
X496061Y399378D01*
X496090Y399373D01*
X496115Y399368D01*
X496135D01*
X496149Y399366D01*
X496162D01*
X496213Y399368D01*
X496265Y399376D01*
X496312Y399385D01*
X496356Y399400D01*
X496398Y399415D01*
X496437Y399435D01*
X496474Y399454D01*
X496509Y399474D01*
X496538Y399494D01*
X496563Y399513D01*
X496585Y399533D01*
X496604Y399548D01*
X496619Y399563D01*
X496629Y399572D01*
X496636Y399580D01*
X496639Y399582D01*
X496673Y399624D01*
X496703Y399671D01*
X496727Y399720D01*
X496749Y399769D01*
X496769Y399821D01*
X496784Y399872D01*
X496796Y399924D01*
X496806Y399971D01*
X496813Y400018D01*
X496821Y400062D01*
X496826Y400099D01*
X496828Y400133D01*
X496831Y400160D01*
Y400182D01*
Y400195D01*
Y400200D01*
X496828Y400276D01*
X496823Y400345D01*
X496813Y400411D01*
X496801Y400473D01*
X496786Y400529D01*
X496769Y400581D01*
X496752Y400628D01*
X496735Y400669D01*
X496718Y400706D01*
X496700Y400738D01*
X496683Y400766D01*
X496668Y400790D01*
X496656Y400807D01*
X496646Y400820D01*
X496641Y400827D01*
X496639Y400829D01*
X496602Y400866D01*
X496563Y400901D01*
X496523Y400930D01*
X496484Y400955D01*
X496442Y400975D01*
X496403Y400992D01*
X496366Y401007D01*
X496329Y401019D01*
X496294Y401029D01*
X496263Y401034D01*
X496233Y401039D01*
X496208Y401043D01*
X496189D01*
X496174Y401046D01*
D02*
G37*
G36*
X481803Y400938D02*
X480996D01*
Y399927D01*
X481707D01*
X481793Y399929D01*
X481869Y399932D01*
X481938Y399934D01*
X482002Y399939D01*
X482056Y399944D01*
X482105Y399949D01*
X482147Y399954D01*
X482184Y399959D01*
X482213Y399963D01*
X482238Y399968D01*
X482258Y399973D01*
X482272Y399976D01*
X482282Y399978D01*
X482287Y399981D01*
X482290D01*
X482346Y400003D01*
X482393Y400030D01*
X482435Y400060D01*
X482469Y400089D01*
X482494Y400114D01*
X482514Y400136D01*
X482523Y400150D01*
X482528Y400153D01*
Y400155D01*
X482555Y400202D01*
X482578Y400249D01*
X482592Y400298D01*
X482602Y400342D01*
X482607Y400384D01*
X482610Y400401D01*
X482612Y400414D01*
Y400426D01*
Y400436D01*
Y400441D01*
Y400443D01*
Y400480D01*
X482607Y400515D01*
X482595Y400578D01*
X482578Y400633D01*
X482558Y400679D01*
X482548Y400699D01*
X482538Y400716D01*
X482528Y400731D01*
X482521Y400743D01*
X482514Y400753D01*
X482509Y400761D01*
X482506Y400763D01*
X482504Y400766D01*
X482462Y400805D01*
X482415Y400839D01*
X482371Y400864D01*
X482327Y400884D01*
X482287Y400898D01*
X482270Y400903D01*
X482255Y400908D01*
X482245Y400911D01*
X482235Y400913D01*
X482231Y400915D01*
X482228D01*
X482204Y400920D01*
X482174Y400923D01*
X482137Y400925D01*
X482098Y400928D01*
X482056Y400930D01*
X482012Y400933D01*
X481923Y400935D01*
X481840D01*
X481803Y400938D01*
D02*
G37*
G36*
X433806Y399568D02*
X432934D01*
Y398288D01*
X434029D01*
X434108Y398292D01*
X434177D01*
X434236Y398295D01*
X434334D01*
X434370Y398298D01*
X434400D01*
X434423Y398302D01*
X434442D01*
X434455Y398305D01*
X434472D01*
X434560Y398325D01*
X434636Y398354D01*
X434701Y398387D01*
X434757Y398420D01*
X434800Y398452D01*
X434829Y398479D01*
X434849Y398498D01*
X434856Y398502D01*
Y398505D01*
X434902Y398567D01*
X434934Y398633D01*
X434957Y398702D01*
X434974Y398767D01*
X434983Y398826D01*
X434987Y398849D01*
Y398872D01*
X434990Y398889D01*
Y398905D01*
Y398912D01*
Y398915D01*
X434987Y398997D01*
X434974Y399069D01*
X434957Y399135D01*
X434941Y399187D01*
X434921Y399233D01*
X434905Y399266D01*
X434898Y399276D01*
X434892Y399286D01*
X434888Y399289D01*
Y399292D01*
X434846Y399345D01*
X434800Y399391D01*
X434754Y399427D01*
X434708Y399456D01*
X434665Y399479D01*
X434632Y399492D01*
X434619Y399499D01*
X434610Y399502D01*
X434606Y399505D01*
X434603D01*
X434564Y399515D01*
X434511Y399525D01*
X434449Y399535D01*
X434383Y399541D01*
X434311Y399548D01*
X434232Y399551D01*
X434078Y399561D01*
X433999D01*
X433931Y399564D01*
X433862D01*
X433806Y399568D01*
D02*
G37*
G36*
X465370Y400938D02*
X464563D01*
Y399927D01*
X465274D01*
X465360Y399929D01*
X465436Y399932D01*
X465505Y399934D01*
X465569Y399939D01*
X465623Y399944D01*
X465672Y399949D01*
X465714Y399954D01*
X465751Y399959D01*
X465781Y399963D01*
X465805Y399968D01*
X465825Y399973D01*
X465840Y399976D01*
X465849Y399978D01*
X465854Y399981D01*
X465857D01*
X465913Y400003D01*
X465960Y400030D01*
X466002Y400060D01*
X466036Y400089D01*
X466061Y400114D01*
X466081Y400136D01*
X466091Y400150D01*
X466095Y400153D01*
Y400155D01*
X466122Y400202D01*
X466145Y400249D01*
X466159Y400298D01*
X466169Y400342D01*
X466174Y400384D01*
X466177Y400401D01*
X466179Y400414D01*
Y400426D01*
Y400436D01*
Y400441D01*
Y400443D01*
Y400480D01*
X466174Y400515D01*
X466162Y400578D01*
X466145Y400633D01*
X466125Y400679D01*
X466115Y400699D01*
X466105Y400716D01*
X466095Y400731D01*
X466088Y400743D01*
X466081Y400753D01*
X466076Y400761D01*
X466073Y400763D01*
X466071Y400766D01*
X466029Y400805D01*
X465982Y400839D01*
X465938Y400864D01*
X465894Y400884D01*
X465854Y400898D01*
X465837Y400903D01*
X465822Y400908D01*
X465813Y400911D01*
X465803Y400913D01*
X465798Y400915D01*
X465795D01*
X465771Y400920D01*
X465741Y400923D01*
X465704Y400925D01*
X465665Y400928D01*
X465623Y400930D01*
X465579Y400933D01*
X465490Y400935D01*
X465407D01*
X465370Y400938D01*
D02*
G37*
G36*
X418315Y429719D02*
X417659D01*
Y428289D01*
X418341D01*
X418423Y428292D01*
X418498Y428295D01*
X418564Y428298D01*
X418626D01*
X418679Y428302D01*
X418724Y428305D01*
X418764Y428308D01*
X418797Y428311D01*
X418826Y428315D01*
X418849Y428318D01*
X418865Y428321D01*
X418875D01*
X418882Y428325D01*
X418885D01*
X418974Y428347D01*
X419053Y428377D01*
X419121Y428413D01*
X419180Y428452D01*
X419230Y428489D01*
X419246Y428505D01*
X419262Y428518D01*
X419276Y428531D01*
X419285Y428541D01*
X419289Y428544D01*
X419292Y428548D01*
X419321Y428580D01*
X419348Y428617D01*
X419367Y428656D01*
X419387Y428692D01*
X419417Y428767D01*
X419436Y428839D01*
X419446Y428905D01*
X419453Y428931D01*
Y428954D01*
X419456Y428974D01*
Y428987D01*
Y428997D01*
Y429000D01*
X419449Y429082D01*
X419436Y429154D01*
X419420Y429223D01*
X419397Y429279D01*
X419374Y429328D01*
X419364Y429348D01*
X419357Y429364D01*
X419348Y429377D01*
X419344Y429387D01*
X419338Y429391D01*
Y429394D01*
X419292Y429453D01*
X419240Y429502D01*
X419187Y429545D01*
X419135Y429581D01*
X419089Y429607D01*
X419053Y429623D01*
X419039Y429630D01*
X419030Y429637D01*
X419023Y429640D01*
X419020D01*
X418977Y429653D01*
X418928Y429666D01*
X418872Y429676D01*
X418810Y429686D01*
X418744Y429692D01*
X418679Y429699D01*
X418544Y429709D01*
X418478Y429712D01*
X418416Y429715D01*
X418364D01*
X418315Y429719D01*
D02*
G37*
G36*
X489937Y460685D02*
X486598D01*
Y460226D01*
Y460115D01*
X486602Y460010D01*
Y459918D01*
X486605Y459833D01*
X486608Y459757D01*
X486615Y459688D01*
X486618Y459626D01*
X486622Y459574D01*
X486628Y459528D01*
X486631Y459491D01*
X486635Y459459D01*
X486641Y459433D01*
X486644Y459413D01*
Y459400D01*
X486648Y459393D01*
Y459390D01*
X486677Y459288D01*
X486710Y459196D01*
X486749Y459114D01*
X486772Y459082D01*
X486792Y459049D01*
X486808Y459019D01*
X486828Y458993D01*
X486844Y458973D01*
X486858Y458954D01*
X486871Y458941D01*
X486881Y458931D01*
X486884Y458924D01*
X486887Y458921D01*
X486959Y458855D01*
X487035Y458796D01*
X487117Y458747D01*
X487195Y458708D01*
X487231Y458688D01*
X487264Y458675D01*
X487294Y458662D01*
X487320Y458652D01*
X487343Y458642D01*
X487360Y458635D01*
X487369Y458632D01*
X487373D01*
X487435Y458612D01*
X487500Y458596D01*
X487573Y458583D01*
X487645Y458570D01*
X487792Y458553D01*
X487868Y458547D01*
X487940Y458540D01*
X488006Y458537D01*
X488068Y458534D01*
X488127Y458531D01*
X488176Y458527D01*
X488376D01*
X488478Y458531D01*
X488573Y458537D01*
X488662Y458544D01*
X488744Y458550D01*
X488819Y458560D01*
X488891Y458570D01*
X488953Y458580D01*
X489009Y458590D01*
X489058Y458599D01*
X489098Y458609D01*
X489134Y458616D01*
X489160Y458622D01*
X489180Y458629D01*
X489193Y458632D01*
X489196D01*
X489259Y458652D01*
X489314Y458672D01*
X489367Y458695D01*
X489416Y458717D01*
X489459Y458737D01*
X489498Y458760D01*
X489534Y458783D01*
X489567Y458803D01*
X489593Y458822D01*
X489616Y458842D01*
X489636Y458855D01*
X489652Y458872D01*
X489665Y458881D01*
X489675Y458891D01*
X489678Y458894D01*
X489682Y458898D01*
X489734Y458963D01*
X489777Y459032D01*
X489813Y459098D01*
X489842Y459164D01*
X489865Y459223D01*
X489872Y459245D01*
X489879Y459265D01*
X489885Y459285D01*
X489888Y459298D01*
X489892Y459305D01*
Y459308D01*
X489898Y459347D01*
X489908Y459390D01*
X489911Y459436D01*
X489918Y459485D01*
X489928Y459587D01*
X489931Y459688D01*
X489934Y459734D01*
Y459780D01*
X489937Y459820D01*
Y459856D01*
Y459885D01*
Y459905D01*
Y459918D01*
Y459925D01*
Y460685D01*
D02*
G37*
G36*
X461987Y400079D02*
X460954D01*
X461466Y398677D01*
X461987Y400079D01*
D02*
G37*
G36*
X489992Y401127D02*
X489972D01*
X489940Y401125D01*
X489911Y401122D01*
X489854Y401110D01*
X489805Y401093D01*
X489763Y401070D01*
X489729Y401051D01*
X489704Y401034D01*
X489697Y401026D01*
X489689Y401021D01*
X489687Y401016D01*
X489684D01*
X489665Y400994D01*
X489647Y400972D01*
X489618Y400928D01*
X489598Y400884D01*
X489586Y400844D01*
X489576Y400807D01*
X489574Y400778D01*
X489571Y400768D01*
Y400761D01*
Y400756D01*
Y400753D01*
X489574Y400724D01*
X489576Y400697D01*
X489584Y400672D01*
X489593Y400647D01*
X489615Y400603D01*
X489643Y400566D01*
X489667Y400537D01*
X489689Y400515D01*
X489699Y400507D01*
X489707Y400502D01*
X489709Y400497D01*
X489712D01*
X489731Y400485D01*
X489756Y400475D01*
X489783Y400463D01*
X489812Y400451D01*
X489879Y400431D01*
X489945Y400411D01*
X489977Y400404D01*
X490007Y400396D01*
X490034Y400389D01*
X490058Y400382D01*
X490078Y400379D01*
X490095Y400374D01*
X490105Y400372D01*
X490107D01*
X490162Y400360D01*
X490213Y400347D01*
X490260Y400337D01*
X490304Y400328D01*
X490344Y400318D01*
X490381Y400308D01*
X490413Y400298D01*
X490442Y400291D01*
X490467Y400286D01*
X490489Y400278D01*
X490506Y400274D01*
X490521Y400269D01*
X490533Y400266D01*
X490541Y400264D01*
X490545Y400261D01*
X490548D01*
Y400404D01*
Y400451D01*
Y400495D01*
X490545Y400534D01*
X490543Y400569D01*
X490541Y400601D01*
Y400630D01*
X490538Y400657D01*
X490536Y400679D01*
X490533Y400699D01*
X490531Y400714D01*
X490528Y400729D01*
X490526Y400738D01*
X490523Y400748D01*
Y400753D01*
X490521Y400758D01*
X490501Y400810D01*
X490477Y400856D01*
X490447Y400896D01*
X490417Y400933D01*
X490390Y400960D01*
X490368Y400982D01*
X490351Y400994D01*
X490349Y400999D01*
X490346D01*
X490312Y401021D01*
X490280Y401041D01*
X490245Y401058D01*
X490213Y401073D01*
X490149Y401095D01*
X490093Y401110D01*
X490068Y401117D01*
X490044Y401120D01*
X490024Y401122D01*
X490007Y401125D01*
X489992Y401127D01*
D02*
G37*
G36*
X487724Y399971D02*
X486641D01*
X486644Y399917D01*
X486646Y399865D01*
X486654Y399818D01*
X486663Y399772D01*
X486676Y399730D01*
X486688Y399693D01*
X486703Y399656D01*
X486718Y399624D01*
X486730Y399597D01*
X486745Y399572D01*
X486757Y399550D01*
X486769Y399533D01*
X486779Y399518D01*
X486787Y399508D01*
X486792Y399503D01*
X486794Y399501D01*
X486823Y399471D01*
X486855Y399445D01*
X486887Y399422D01*
X486919Y399400D01*
X486954Y399385D01*
X486986Y399371D01*
X487018Y399358D01*
X487047Y399351D01*
X487077Y399344D01*
X487101Y399339D01*
X487126Y399334D01*
X487146Y399331D01*
X487163Y399329D01*
X487185D01*
X487227Y399331D01*
X487264Y399336D01*
X487303Y399344D01*
X487338Y399353D01*
X487401Y399380D01*
X487431Y399395D01*
X487456Y399410D01*
X487480Y399427D01*
X487500Y399442D01*
X487520Y399454D01*
X487534Y399467D01*
X487547Y399479D01*
X487554Y399486D01*
X487559Y399491D01*
X487561Y399494D01*
X487589Y399526D01*
X487613Y399560D01*
X487635Y399597D01*
X487652Y399636D01*
X487667Y399676D01*
X487682Y399715D01*
X487702Y399794D01*
X487709Y399828D01*
X487714Y399863D01*
X487716Y399892D01*
X487721Y399919D01*
Y399941D01*
X487724Y399956D01*
Y399968D01*
Y399971D01*
D02*
G37*
G36*
X428702Y431628D02*
X427836D01*
Y428289D01*
X428407D01*
X428512Y428292D01*
X428604D01*
X428689Y428295D01*
X428765Y428298D01*
X428833Y428305D01*
X428896Y428308D01*
X428948Y428311D01*
X428994Y428318D01*
X429030Y428321D01*
X429063Y428325D01*
X429089Y428331D01*
X429109Y428334D01*
X429122D01*
X429129Y428338D01*
X429132D01*
X429234Y428367D01*
X429325Y428400D01*
X429408Y428439D01*
X429440Y428462D01*
X429473Y428482D01*
X429503Y428498D01*
X429529Y428518D01*
X429549Y428535D01*
X429568Y428548D01*
X429581Y428561D01*
X429591Y428571D01*
X429598Y428574D01*
X429601Y428577D01*
X429667Y428649D01*
X429726Y428725D01*
X429775Y428807D01*
X429814Y428885D01*
X429834Y428922D01*
X429847Y428954D01*
X429860Y428984D01*
X429870Y429010D01*
X429880Y429033D01*
X429886Y429049D01*
X429890Y429059D01*
Y429063D01*
X429909Y429125D01*
X429926Y429190D01*
X429939Y429263D01*
X429952Y429335D01*
X429968Y429482D01*
X429975Y429558D01*
X429982Y429630D01*
X429985Y429696D01*
X429988Y429758D01*
X429991Y429817D01*
X429995Y429866D01*
Y429906D01*
Y429935D01*
Y429955D01*
Y429958D01*
Y429961D01*
Y430066D01*
X429991Y430168D01*
X429985Y430263D01*
X429978Y430352D01*
X429972Y430434D01*
X429962Y430509D01*
X429952Y430581D01*
X429942Y430644D01*
X429932Y430699D01*
X429922Y430749D01*
X429913Y430788D01*
X429906Y430824D01*
X429900Y430850D01*
X429893Y430870D01*
X429890Y430883D01*
Y430886D01*
X429870Y430949D01*
X429850Y431004D01*
X429827Y431057D01*
X429804Y431106D01*
X429785Y431149D01*
X429762Y431188D01*
X429739Y431224D01*
X429719Y431257D01*
X429699Y431283D01*
X429680Y431306D01*
X429667Y431326D01*
X429650Y431342D01*
X429640Y431355D01*
X429631Y431365D01*
X429627Y431368D01*
X429624Y431372D01*
X429558Y431424D01*
X429490Y431467D01*
X429424Y431503D01*
X429358Y431532D01*
X429299Y431555D01*
X429276Y431562D01*
X429257Y431568D01*
X429237Y431575D01*
X429224Y431578D01*
X429217Y431582D01*
X429214D01*
X429175Y431588D01*
X429132Y431598D01*
X429086Y431601D01*
X429037Y431608D01*
X428935Y431618D01*
X428833Y431621D01*
X428788Y431624D01*
X428742D01*
X428702Y431628D01*
D02*
G37*
%LPD*%
M02*
