G04*
G04 #@! TF.GenerationSoftware,Altium Limited,CircuitStudio,1.5.2 (30)*
G04*
G04 Layer_Physical_Order=1*
G04 Layer_Color=11767835*
%FSLAX25Y25*%
%MOIN*%
G70*
G01*
G75*
%ADD10R,0.02756X0.03543*%
%ADD11C,0.05906*%
%ADD12C,0.00591*%
%ADD13C,0.01000*%
%ADD14C,0.09055*%
%ADD15C,0.07874*%
%ADD16C,0.12795*%
%ADD17C,0.05906*%
%ADD18C,0.07400*%
D10*
X455315Y405512D02*
D03*
X450197D02*
D03*
D11*
X503937Y411417D02*
Y460630D01*
X443701Y398819D02*
X491339D01*
X503937Y411417D01*
X432520Y410000D02*
X443701Y398819D01*
X503937Y460630D02*
X523622Y480315D01*
X409449Y410000D02*
X432520D01*
D12*
X494685Y417697D02*
X503917D01*
X455315Y399016D02*
Y405512D01*
D13*
X404331Y412598D02*
X406693Y414961D01*
X404331Y405118D02*
Y412598D01*
Y405118D02*
X409449Y400000D01*
X406693Y414961D02*
X438583D01*
X439961Y416339D01*
X465551D01*
X450197Y405512D02*
Y415748D01*
X465551Y416339D02*
X481043D01*
X484685Y412697D01*
X409449Y430000D02*
X416221Y423228D01*
X470472D01*
X474941Y427697D01*
X494685D01*
X474035Y432697D02*
X484685D01*
X468504Y427165D02*
X474035Y432697D01*
X422284Y427165D02*
X468504D01*
X409449Y440000D02*
X422284Y427165D01*
D14*
X523622Y480315D02*
D03*
X488189D02*
D03*
D15*
X439961Y434055D02*
D03*
X465551D02*
D03*
Y416339D02*
D03*
X439961D02*
D03*
D16*
X519685Y445197D02*
D03*
Y405197D02*
D03*
D17*
X494685Y437697D02*
D03*
X484685Y432697D02*
D03*
X494685Y427697D02*
D03*
X484685Y422697D02*
D03*
X494685Y417697D02*
D03*
X484685Y412697D02*
D03*
D18*
X409449Y400197D02*
D03*
Y410197D02*
D03*
Y420197D02*
D03*
Y430197D02*
D03*
Y440197D02*
D03*
Y450197D02*
D03*
M02*
