G04*
G04 #@! TF.GenerationSoftware,Altium Limited,CircuitStudio,1.5.2 (30)*
G04*
G04 Layer_Physical_Order=2*
G04 Layer_Color=12500520*
%FSLAX25Y25*%
%MOIN*%
G70*
G01*
G75*
%ADD14C,0.09055*%
%ADD15C,0.07874*%
%ADD16C,0.12795*%
%ADD17C,0.05906*%
%ADD18C,0.07400*%
G36*
X523622Y487485D02*
X525021Y487347D01*
X526366Y486939D01*
X527605Y486276D01*
X528692Y485385D01*
X529583Y484298D01*
X530246Y483059D01*
X530654Y481714D01*
X530792Y480315D01*
X530794D01*
Y401575D01*
X530792D01*
X530654Y400176D01*
X530246Y398831D01*
X529583Y397592D01*
X528692Y396505D01*
X527605Y395614D01*
X526366Y394951D01*
X525021Y394543D01*
X523622Y394405D01*
Y394403D01*
X401575D01*
Y394405D01*
X400176Y394543D01*
X398831Y394951D01*
X397592Y395614D01*
X396505Y396505D01*
X395614Y397592D01*
X394951Y398831D01*
X394543Y400176D01*
X394405Y401575D01*
X394403D01*
Y448819D01*
X394405D01*
X394543Y450218D01*
X394951Y451563D01*
X395614Y452802D01*
X396505Y453889D01*
X397592Y454780D01*
X398831Y455443D01*
X400176Y455851D01*
X401575Y455989D01*
Y455990D01*
X472441D01*
X472441Y455990D01*
Y455963D01*
X474120Y456128D01*
X475734Y456617D01*
X477221Y457413D01*
X478525Y458483D01*
X479595Y459787D01*
X480390Y461274D01*
X480880Y462888D01*
X481045Y464567D01*
X481017D01*
X481017Y464567D01*
Y480315D01*
X481019D01*
X481157Y481714D01*
X481565Y483059D01*
X482228Y484298D01*
X483119Y485385D01*
X484206Y486276D01*
X485445Y486939D01*
X486790Y487347D01*
X488189Y487485D01*
Y487487D01*
X523622D01*
Y487485D01*
D02*
G37*
%LPC*%
G36*
X408949Y424459D02*
X408329Y424377D01*
X407285Y423945D01*
X406389Y423257D01*
X405701Y422361D01*
X405269Y421317D01*
X405187Y420697D01*
X408949D01*
Y424459D01*
D02*
G37*
G36*
X484185Y422197D02*
X481177D01*
X481233Y421772D01*
X481590Y420910D01*
X482158Y420170D01*
X482898Y419602D01*
X483760Y419245D01*
X484185Y419189D01*
Y422197D01*
D02*
G37*
G36*
X488193D02*
X485185D01*
Y419189D01*
X485610Y419245D01*
X486472Y419602D01*
X487212Y420170D01*
X487780Y420910D01*
X488137Y421772D01*
X488193Y422197D01*
D02*
G37*
G36*
X409949Y424459D02*
Y420697D01*
X413711D01*
X413629Y421317D01*
X413197Y422361D01*
X412509Y423257D01*
X411613Y423945D01*
X410569Y424377D01*
X409949Y424459D01*
D02*
G37*
G36*
X494685Y431072D02*
X493811Y430957D01*
X492997Y430620D01*
X492298Y430084D01*
X491762Y429385D01*
X491425Y428570D01*
X491310Y427697D01*
X491425Y426823D01*
X491762Y426009D01*
X492298Y425310D01*
X492997Y424774D01*
X493811Y424437D01*
X494685Y424322D01*
X495559Y424437D01*
X496373Y424774D01*
X497072Y425310D01*
X497608Y426009D01*
X497945Y426823D01*
X498060Y427697D01*
X497945Y428570D01*
X497608Y429385D01*
X497072Y430084D01*
X496373Y430620D01*
X495559Y430957D01*
X494685Y431072D01*
D02*
G37*
G36*
X409449Y434326D02*
X408380Y434185D01*
X407384Y433773D01*
X406529Y433116D01*
X405873Y432261D01*
X405461Y431265D01*
X405320Y430197D01*
X405461Y429128D01*
X405873Y428132D01*
X406529Y427277D01*
X407384Y426621D01*
X408380Y426208D01*
X409449Y426068D01*
X410518Y426208D01*
X411513Y426621D01*
X412368Y427277D01*
X413025Y428132D01*
X413437Y429128D01*
X413578Y430197D01*
X413437Y431265D01*
X413025Y432261D01*
X412368Y433116D01*
X411513Y433773D01*
X410518Y434185D01*
X409449Y434326D01*
D02*
G37*
G36*
X484185Y426205D02*
X483760Y426149D01*
X482898Y425792D01*
X482158Y425224D01*
X481590Y424484D01*
X481233Y423622D01*
X481177Y423197D01*
X484185D01*
Y426205D01*
D02*
G37*
G36*
X485185Y426205D02*
Y423197D01*
X488193D01*
X488137Y423622D01*
X487780Y424484D01*
X487212Y425224D01*
X486472Y425792D01*
X485610Y426149D01*
X485185Y426205D01*
D02*
G37*
G36*
X413711Y419697D02*
X409949D01*
Y415935D01*
X410569Y416017D01*
X411613Y416449D01*
X412509Y417137D01*
X413197Y418033D01*
X413629Y419077D01*
X413711Y419697D01*
D02*
G37*
G36*
X409449Y414326D02*
X408380Y414185D01*
X407384Y413773D01*
X406529Y413117D01*
X405873Y412261D01*
X405461Y411266D01*
X405320Y410197D01*
X405461Y409128D01*
X405873Y408132D01*
X406529Y407277D01*
X407384Y406621D01*
X408380Y406209D01*
X409449Y406068D01*
X410518Y406209D01*
X411513Y406621D01*
X412368Y407277D01*
X413025Y408132D01*
X413437Y409128D01*
X413578Y410197D01*
X413437Y411266D01*
X413025Y412261D01*
X412368Y413117D01*
X411513Y413773D01*
X410518Y414185D01*
X409449Y414326D01*
D02*
G37*
G36*
X484685Y416072D02*
X483811Y415957D01*
X482997Y415620D01*
X482298Y415084D01*
X481762Y414385D01*
X481425Y413570D01*
X481310Y412697D01*
X481425Y411823D01*
X481762Y411009D01*
X482298Y410310D01*
X482997Y409774D01*
X483811Y409437D01*
X484685Y409321D01*
X485559Y409437D01*
X486373Y409774D01*
X487072Y410310D01*
X487608Y411009D01*
X487945Y411823D01*
X488060Y412697D01*
X487945Y413570D01*
X487608Y414385D01*
X487072Y415084D01*
X486373Y415620D01*
X485559Y415957D01*
X484685Y416072D01*
D02*
G37*
G36*
X409449Y404326D02*
X408380Y404185D01*
X407384Y403773D01*
X406529Y403117D01*
X405873Y402261D01*
X405461Y401265D01*
X405320Y400197D01*
X405461Y399128D01*
X405873Y398132D01*
X406529Y397277D01*
X407384Y396621D01*
X408380Y396209D01*
X409449Y396068D01*
X410518Y396209D01*
X411513Y396621D01*
X412368Y397277D01*
X413025Y398132D01*
X413437Y399128D01*
X413578Y400197D01*
X413437Y401265D01*
X413025Y402261D01*
X412368Y403117D01*
X411513Y403773D01*
X410518Y404185D01*
X409449Y404326D01*
D02*
G37*
G36*
X519685Y412021D02*
X518354Y411890D01*
X517073Y411502D01*
X515894Y410871D01*
X514860Y410022D01*
X514011Y408988D01*
X513380Y407808D01*
X512992Y406528D01*
X512861Y405197D01*
X512992Y403865D01*
X513380Y402585D01*
X514011Y401405D01*
X514860Y400371D01*
X515894Y399523D01*
X517073Y398892D01*
X518354Y398504D01*
X519685Y398373D01*
X521016Y398504D01*
X522296Y398892D01*
X523476Y399523D01*
X524510Y400371D01*
X525359Y401405D01*
X525990Y402585D01*
X526378Y403865D01*
X526509Y405197D01*
X526378Y406528D01*
X525990Y407808D01*
X525359Y408988D01*
X524510Y410022D01*
X523476Y410871D01*
X522296Y411502D01*
X521016Y411890D01*
X519685Y412021D01*
D02*
G37*
G36*
X494685Y421072D02*
X493811Y420957D01*
X492997Y420620D01*
X492298Y420084D01*
X491762Y419384D01*
X491425Y418570D01*
X491310Y417697D01*
X491425Y416823D01*
X491762Y416009D01*
X492298Y415310D01*
X492997Y414774D01*
X493811Y414436D01*
X494685Y414322D01*
X495559Y414436D01*
X496373Y414774D01*
X497072Y415310D01*
X497608Y416009D01*
X497945Y416823D01*
X498060Y417697D01*
X497945Y418570D01*
X497608Y419384D01*
X497072Y420084D01*
X496373Y420620D01*
X495559Y420957D01*
X494685Y421072D01*
D02*
G37*
G36*
X408949Y419697D02*
X405187D01*
X405269Y419077D01*
X405701Y418033D01*
X406389Y417137D01*
X407285Y416449D01*
X408329Y416017D01*
X408949Y415935D01*
Y419697D01*
D02*
G37*
G36*
X439961Y420707D02*
X438830Y420558D01*
X437777Y420121D01*
X436872Y419427D01*
X436178Y418523D01*
X435741Y417469D01*
X435593Y416339D01*
X435741Y415208D01*
X436178Y414154D01*
X436872Y413250D01*
X437777Y412556D01*
X438830Y412119D01*
X439961Y411971D01*
X441091Y412119D01*
X442145Y412556D01*
X443049Y413250D01*
X443744Y414154D01*
X444180Y415208D01*
X444329Y416339D01*
X444180Y417469D01*
X443744Y418523D01*
X443049Y419427D01*
X442145Y420121D01*
X441091Y420558D01*
X439961Y420707D01*
D02*
G37*
G36*
X465551D02*
X464421Y420558D01*
X463367Y420121D01*
X462463Y419427D01*
X461768Y418523D01*
X461332Y417469D01*
X461183Y416339D01*
X461332Y415208D01*
X461768Y414154D01*
X462463Y413250D01*
X463367Y412556D01*
X464421Y412119D01*
X465551Y411971D01*
X466682Y412119D01*
X467735Y412556D01*
X468640Y413250D01*
X469334Y414154D01*
X469770Y415208D01*
X469919Y416339D01*
X469770Y417469D01*
X469334Y418523D01*
X468640Y419427D01*
X467735Y420121D01*
X466682Y420558D01*
X465551Y420707D01*
D02*
G37*
G36*
X484685Y436072D02*
X483811Y435957D01*
X482997Y435620D01*
X482298Y435084D01*
X481762Y434384D01*
X481425Y433570D01*
X481310Y432697D01*
X481425Y431823D01*
X481762Y431009D01*
X482298Y430310D01*
X482997Y429774D01*
X483811Y429436D01*
X484685Y429321D01*
X485559Y429436D01*
X486373Y429774D01*
X487072Y430310D01*
X487608Y431009D01*
X487945Y431823D01*
X488060Y432697D01*
X487945Y433570D01*
X487608Y434384D01*
X487072Y435084D01*
X486373Y435620D01*
X485559Y435957D01*
X484685Y436072D01*
D02*
G37*
G36*
X409449Y454326D02*
X408380Y454185D01*
X407384Y453773D01*
X406529Y453117D01*
X405873Y452261D01*
X405461Y451265D01*
X405320Y450197D01*
X405461Y449128D01*
X405873Y448132D01*
X406529Y447277D01*
X407384Y446621D01*
X408380Y446208D01*
X409449Y446068D01*
X410518Y446208D01*
X411513Y446621D01*
X412368Y447277D01*
X413025Y448132D01*
X413437Y449128D01*
X413578Y450197D01*
X413437Y451265D01*
X413025Y452261D01*
X412368Y453117D01*
X411513Y453773D01*
X410518Y454185D01*
X409449Y454326D01*
D02*
G37*
G36*
X487689Y479815D02*
X483092D01*
X483203Y478979D01*
X483718Y477734D01*
X484539Y476665D01*
X485608Y475844D01*
X486853Y475329D01*
X487689Y475218D01*
Y479815D01*
D02*
G37*
G36*
X409449Y444326D02*
X408380Y444185D01*
X407384Y443773D01*
X406529Y443117D01*
X405873Y442261D01*
X405461Y441265D01*
X405320Y440197D01*
X405461Y439128D01*
X405873Y438132D01*
X406529Y437277D01*
X407384Y436621D01*
X408380Y436208D01*
X409449Y436068D01*
X410518Y436208D01*
X411513Y436621D01*
X412368Y437277D01*
X413025Y438132D01*
X413437Y439128D01*
X413578Y440197D01*
X413437Y441265D01*
X413025Y442261D01*
X412368Y443117D01*
X411513Y443773D01*
X410518Y444185D01*
X409449Y444326D01*
D02*
G37*
G36*
X519685Y452021D02*
X518354Y451890D01*
X517073Y451502D01*
X515894Y450871D01*
X514860Y450022D01*
X514011Y448988D01*
X513380Y447808D01*
X512992Y446528D01*
X512861Y445197D01*
X512992Y443865D01*
X513380Y442585D01*
X514011Y441405D01*
X514860Y440371D01*
X515894Y439523D01*
X517073Y438892D01*
X518354Y438504D01*
X519685Y438373D01*
X521016Y438504D01*
X522296Y438892D01*
X523476Y439523D01*
X524510Y440371D01*
X525359Y441405D01*
X525990Y442585D01*
X526378Y443865D01*
X526509Y445197D01*
X526378Y446528D01*
X525990Y447808D01*
X525359Y448988D01*
X524510Y450022D01*
X523476Y450871D01*
X522296Y451502D01*
X521016Y451890D01*
X519685Y452021D01*
D02*
G37*
G36*
X487689Y485411D02*
X486853Y485301D01*
X485608Y484786D01*
X484539Y483965D01*
X483718Y482896D01*
X483203Y481651D01*
X483092Y480815D01*
X487689D01*
Y485411D01*
D02*
G37*
G36*
X488689D02*
Y480815D01*
X493285D01*
X493175Y481651D01*
X492660Y482896D01*
X491839Y483965D01*
X490770Y484786D01*
X489525Y485301D01*
X488689Y485411D01*
D02*
G37*
G36*
X493285Y479815D02*
X488689D01*
Y475218D01*
X489525Y475329D01*
X490770Y475844D01*
X491839Y476665D01*
X492660Y477734D01*
X493175Y478979D01*
X493285Y479815D01*
D02*
G37*
G36*
X523622Y485279D02*
X522337Y485110D01*
X521140Y484614D01*
X520112Y483825D01*
X519323Y482797D01*
X518827Y481600D01*
X518658Y480315D01*
X518827Y479030D01*
X519323Y477833D01*
X520112Y476805D01*
X521140Y476016D01*
X522337Y475520D01*
X523622Y475351D01*
X524907Y475520D01*
X526104Y476016D01*
X527132Y476805D01*
X527921Y477833D01*
X528417Y479030D01*
X528586Y480315D01*
X528417Y481600D01*
X527921Y482797D01*
X527132Y483825D01*
X526104Y484614D01*
X524907Y485110D01*
X523622Y485279D01*
D02*
G37*
G36*
X466051Y438556D02*
Y434555D01*
X470052D01*
X469962Y435237D01*
X469506Y436338D01*
X468780Y437284D01*
X467835Y438010D01*
X466733Y438466D01*
X466051Y438556D01*
D02*
G37*
G36*
X465051Y433555D02*
X461050D01*
X461140Y432873D01*
X461596Y431772D01*
X462322Y430826D01*
X463268Y430100D01*
X464369Y429644D01*
X465051Y429554D01*
Y433555D01*
D02*
G37*
G36*
X470052D02*
X466051D01*
Y429554D01*
X466733Y429644D01*
X467835Y430100D01*
X468780Y430826D01*
X469506Y431772D01*
X469962Y432873D01*
X470052Y433555D01*
D02*
G37*
G36*
X439461D02*
X435460D01*
X435550Y432873D01*
X436006Y431772D01*
X436731Y430826D01*
X437677Y430100D01*
X438779Y429644D01*
X439461Y429554D01*
Y433555D01*
D02*
G37*
G36*
X444461D02*
X440461D01*
Y429554D01*
X441143Y429644D01*
X442244Y430100D01*
X443190Y430826D01*
X443915Y431772D01*
X444372Y432873D01*
X444461Y433555D01*
D02*
G37*
G36*
X440461Y438556D02*
Y434555D01*
X444461D01*
X444372Y435237D01*
X443915Y436338D01*
X443190Y437284D01*
X442244Y438010D01*
X441143Y438466D01*
X440461Y438556D01*
D02*
G37*
G36*
X465051D02*
X464369Y438466D01*
X463268Y438010D01*
X462322Y437284D01*
X461596Y436338D01*
X461140Y435237D01*
X461050Y434555D01*
X465051D01*
Y438556D01*
D02*
G37*
G36*
X494685Y441072D02*
X493811Y440957D01*
X492997Y440620D01*
X492298Y440084D01*
X491762Y439385D01*
X491425Y438570D01*
X491310Y437697D01*
X491425Y436823D01*
X491762Y436009D01*
X492298Y435310D01*
X492997Y434774D01*
X493811Y434437D01*
X494685Y434321D01*
X495559Y434437D01*
X496373Y434774D01*
X497072Y435310D01*
X497608Y436009D01*
X497945Y436823D01*
X498060Y437697D01*
X497945Y438570D01*
X497608Y439385D01*
X497072Y440084D01*
X496373Y440620D01*
X495559Y440957D01*
X494685Y441072D01*
D02*
G37*
G36*
X439461Y438556D02*
X438779Y438466D01*
X437677Y438010D01*
X436731Y437284D01*
X436006Y436338D01*
X435550Y435237D01*
X435460Y434555D01*
X439461D01*
Y438556D01*
D02*
G37*
%LPD*%
D14*
X523622Y480315D02*
D03*
X488189D02*
D03*
D15*
X439961Y434055D02*
D03*
X465551D02*
D03*
Y416339D02*
D03*
X439961D02*
D03*
D16*
X519685Y445197D02*
D03*
Y405197D02*
D03*
D17*
X494685Y437697D02*
D03*
X484685Y432697D02*
D03*
X494685Y427697D02*
D03*
X484685Y422697D02*
D03*
X494685Y417697D02*
D03*
X484685Y412697D02*
D03*
D18*
X409449Y400197D02*
D03*
Y410197D02*
D03*
Y420197D02*
D03*
Y430197D02*
D03*
Y440197D02*
D03*
Y450197D02*
D03*
M02*
