G04*
G04 #@! TF.GenerationSoftware,Altium Limited,CircuitStudio,1.5.2 (30)*
G04*
G04 Layer_Color=15065295*
%FSLAX25Y25*%
%MOIN*%
G70*
G01*
G75*
G36*
X419127Y422604D02*
X419159D01*
X419192Y422600D01*
X419232Y422597D01*
X419271Y422594D01*
X419363Y422587D01*
X419464Y422574D01*
X419573Y422558D01*
X419688Y422538D01*
X419809Y422512D01*
X419930Y422479D01*
X420052Y422440D01*
X420173Y422397D01*
X420291Y422344D01*
X420399Y422282D01*
X420504Y422213D01*
X420511Y422210D01*
X420527Y422194D01*
X420553Y422174D01*
X420589Y422141D01*
X420632Y422102D01*
X420678Y422053D01*
X420731Y421994D01*
X420786Y421931D01*
X420845Y421856D01*
X420901Y421774D01*
X420960Y421685D01*
X421013Y421587D01*
X421065Y421482D01*
X421111Y421370D01*
X421150Y421252D01*
X421183Y421124D01*
X420173Y420937D01*
Y420941D01*
X420166Y420954D01*
X420160Y420973D01*
X420150Y421000D01*
X420140Y421029D01*
X420124Y421065D01*
X420104Y421105D01*
X420081Y421151D01*
X420055Y421197D01*
X420029Y421243D01*
X419993Y421292D01*
X419956Y421341D01*
X419917Y421387D01*
X419871Y421436D01*
X419822Y421479D01*
X419769Y421521D01*
X419766Y421524D01*
X419756Y421531D01*
X419740Y421541D01*
X419717Y421554D01*
X419688Y421570D01*
X419655Y421590D01*
X419615Y421610D01*
X419569Y421629D01*
X419517Y421649D01*
X419461Y421669D01*
X419402Y421689D01*
X419337Y421705D01*
X419268Y421718D01*
X419196Y421728D01*
X419120Y421735D01*
X419038Y421738D01*
X419009D01*
X418972Y421735D01*
X418927Y421731D01*
X418871Y421725D01*
X418805Y421715D01*
X418733Y421702D01*
X418654Y421685D01*
X418572Y421662D01*
X418484Y421636D01*
X418395Y421600D01*
X418307Y421561D01*
X418218Y421511D01*
X418133Y421456D01*
X418051Y421390D01*
X417975Y421315D01*
X417972Y421311D01*
X417959Y421295D01*
X417939Y421269D01*
X417913Y421236D01*
X417883Y421190D01*
X417851Y421138D01*
X417815Y421072D01*
X417779Y421000D01*
X417742Y420915D01*
X417706Y420823D01*
X417674Y420718D01*
X417644Y420606D01*
X417618Y420485D01*
X417598Y420350D01*
X417585Y420209D01*
X417582Y420058D01*
Y420055D01*
Y420049D01*
Y420035D01*
Y420019D01*
Y419999D01*
X417585Y419973D01*
Y419944D01*
X417588Y419911D01*
X417592Y419875D01*
X417595Y419835D01*
X417601Y419750D01*
X417615Y419655D01*
X417631Y419553D01*
X417654Y419445D01*
X417680Y419334D01*
X417713Y419222D01*
X417752Y419110D01*
X417795Y419002D01*
X417851Y418897D01*
X417913Y418799D01*
X417982Y418710D01*
X417985Y418707D01*
X418002Y418691D01*
X418025Y418668D01*
X418054Y418641D01*
X418093Y418605D01*
X418143Y418569D01*
X418198Y418530D01*
X418264Y418487D01*
X418333Y418445D01*
X418415Y418405D01*
X418500Y418369D01*
X418592Y418333D01*
X418690Y418307D01*
X418799Y418284D01*
X418910Y418271D01*
X419028Y418264D01*
X419061D01*
X419084Y418267D01*
X419113D01*
X419146Y418271D01*
X419186Y418274D01*
X419228Y418281D01*
X419274Y418287D01*
X419323Y418294D01*
X419432Y418317D01*
X419550Y418346D01*
X419668Y418389D01*
X419671D01*
X419681Y418395D01*
X419701Y418402D01*
X419720Y418412D01*
X419750Y418425D01*
X419783Y418438D01*
X419819Y418455D01*
X419858Y418474D01*
X419943Y418517D01*
X420039Y418569D01*
X420130Y418628D01*
X420222Y418694D01*
Y419334D01*
X419055D01*
Y420183D01*
X421249D01*
Y418172D01*
X421245Y418169D01*
X421236Y418159D01*
X421216Y418143D01*
X421190Y418120D01*
X421157Y418094D01*
X421118Y418061D01*
X421068Y418028D01*
X421013Y417989D01*
X420950Y417946D01*
X420881Y417903D01*
X420806Y417858D01*
X420724Y417812D01*
X420632Y417766D01*
X420537Y417720D01*
X420432Y417674D01*
X420321Y417628D01*
X420317D01*
X420314Y417625D01*
X420304Y417621D01*
X420294Y417618D01*
X420261Y417605D01*
X420216Y417592D01*
X420160Y417575D01*
X420097Y417556D01*
X420022Y417533D01*
X419940Y417513D01*
X419851Y417490D01*
X419753Y417467D01*
X419655Y417448D01*
X419547Y417431D01*
X419438Y417418D01*
X419323Y417405D01*
X419209Y417398D01*
X419094Y417395D01*
X419038D01*
X419018Y417398D01*
X418989D01*
X418959Y417402D01*
X418890Y417405D01*
X418812Y417411D01*
X418723Y417421D01*
X418625Y417438D01*
X418520Y417454D01*
X418408Y417477D01*
X418294Y417503D01*
X418175Y417536D01*
X418057Y417572D01*
X417943Y417618D01*
X417825Y417667D01*
X417713Y417726D01*
X417706Y417730D01*
X417687Y417743D01*
X417657Y417762D01*
X417618Y417789D01*
X417569Y417821D01*
X417513Y417864D01*
X417451Y417913D01*
X417382Y417969D01*
X417313Y418031D01*
X417237Y418104D01*
X417165Y418182D01*
X417093Y418267D01*
X417021Y418359D01*
X416952Y418458D01*
X416886Y418563D01*
X416827Y418674D01*
Y418678D01*
X416824Y418681D01*
X416821Y418691D01*
X416814Y418704D01*
X416801Y418737D01*
X416781Y418783D01*
X416758Y418838D01*
X416736Y418907D01*
X416706Y418986D01*
X416680Y419074D01*
X416653Y419170D01*
X416627Y419275D01*
X416601Y419386D01*
X416578Y419501D01*
X416558Y419625D01*
X416545Y419753D01*
X416535Y419885D01*
X416532Y420019D01*
Y420022D01*
Y420029D01*
Y420039D01*
Y420055D01*
Y420072D01*
X416535Y420094D01*
Y420121D01*
X416539Y420150D01*
X416542Y420219D01*
X416549Y420301D01*
X416558Y420390D01*
X416575Y420488D01*
X416591Y420596D01*
X416614Y420708D01*
X416640Y420823D01*
X416673Y420941D01*
X416709Y421062D01*
X416755Y421180D01*
X416804Y421302D01*
X416863Y421416D01*
Y421420D01*
X416867Y421423D01*
X416880Y421443D01*
X416899Y421475D01*
X416926Y421518D01*
X416959Y421567D01*
X417001Y421626D01*
X417050Y421692D01*
X417109Y421764D01*
X417172Y421839D01*
X417244Y421915D01*
X417326Y421994D01*
X417411Y422072D01*
X417506Y422148D01*
X417608Y422223D01*
X417716Y422292D01*
X417831Y422358D01*
X417838Y422361D01*
X417854Y422367D01*
X417880Y422381D01*
X417920Y422397D01*
X417966Y422417D01*
X418021Y422436D01*
X418090Y422459D01*
X418166Y422482D01*
X418248Y422505D01*
X418339Y422528D01*
X418438Y422548D01*
X418546Y422568D01*
X418658Y422584D01*
X418779Y422597D01*
X418907Y422604D01*
X419038Y422607D01*
X419100D01*
X419127Y422604D01*
D02*
G37*
G36*
X423765Y412518D02*
X423824D01*
X423892Y412515D01*
X423965Y412509D01*
X424040Y412505D01*
X424119Y412499D01*
X424279Y412482D01*
X424355Y412469D01*
X424430Y412459D01*
X424503Y412443D01*
X424568Y412427D01*
X424575D01*
X424588Y412420D01*
X424611Y412413D01*
X424644Y412400D01*
X424680Y412387D01*
X424726Y412367D01*
X424775Y412345D01*
X424831Y412318D01*
X424886Y412289D01*
X424949Y412256D01*
X425011Y412217D01*
X425073Y412174D01*
X425139Y412128D01*
X425205Y412076D01*
X425267Y412020D01*
X425326Y411961D01*
X425329Y411958D01*
X425339Y411944D01*
X425355Y411928D01*
X425378Y411902D01*
X425405Y411869D01*
X425434Y411830D01*
X425470Y411784D01*
X425506Y411734D01*
X425542Y411675D01*
X425585Y411613D01*
X425624Y411548D01*
X425664Y411475D01*
X425703Y411400D01*
X425739Y411318D01*
X425775Y411233D01*
X425808Y411144D01*
X425811Y411137D01*
X425815Y411121D01*
X425824Y411095D01*
X425834Y411059D01*
X425847Y411010D01*
X425861Y410954D01*
X425877Y410888D01*
X425893Y410816D01*
X425906Y410731D01*
X425923Y410642D01*
X425936Y410544D01*
X425949Y410439D01*
X425959Y410327D01*
X425969Y410209D01*
X425972Y410085D01*
X425975Y409953D01*
Y409950D01*
Y409947D01*
Y409937D01*
Y409927D01*
Y409894D01*
X425972Y409848D01*
Y409796D01*
X425969Y409734D01*
X425962Y409661D01*
X425956Y409586D01*
X425949Y409504D01*
X425939Y409415D01*
X425910Y409238D01*
X425874Y409055D01*
X425847Y408963D01*
X425821Y408878D01*
X425818Y408871D01*
X425811Y408855D01*
X425801Y408825D01*
X425785Y408786D01*
X425765Y408740D01*
X425742Y408687D01*
X425713Y408625D01*
X425683Y408563D01*
X425647Y408491D01*
X425605Y408418D01*
X425562Y408346D01*
X425513Y408271D01*
X425460Y408199D01*
X425405Y408126D01*
X425346Y408054D01*
X425280Y407989D01*
X425277Y407985D01*
X425267Y407979D01*
X425254Y407963D01*
X425231Y407946D01*
X425205Y407923D01*
X425172Y407900D01*
X425136Y407871D01*
X425090Y407841D01*
X425044Y407808D01*
X424988Y407775D01*
X424929Y407743D01*
X424867Y407710D01*
X424798Y407677D01*
X424726Y407644D01*
X424647Y407615D01*
X424565Y407585D01*
X424562D01*
X424548Y407582D01*
X424529Y407575D01*
X424503Y407569D01*
X424470Y407562D01*
X424427Y407552D01*
X424381Y407543D01*
X424325Y407533D01*
X424263Y407523D01*
X424197Y407513D01*
X424122Y407503D01*
X424043Y407497D01*
X423955Y407490D01*
X423863Y407484D01*
X423765Y407480D01*
X421747D01*
Y412522D01*
X423712D01*
X423765Y412518D01*
D02*
G37*
G36*
X429291Y422518D02*
X429350D01*
X429419Y422515D01*
X429491Y422509D01*
X429567Y422505D01*
X429646Y422499D01*
X429806Y422482D01*
X429882Y422469D01*
X429957Y422459D01*
X430029Y422443D01*
X430095Y422427D01*
X430101D01*
X430115Y422420D01*
X430138Y422413D01*
X430170Y422400D01*
X430206Y422387D01*
X430252Y422367D01*
X430302Y422344D01*
X430357Y422318D01*
X430413Y422289D01*
X430475Y422256D01*
X430538Y422217D01*
X430600Y422174D01*
X430666Y422128D01*
X430731Y422076D01*
X430794Y422020D01*
X430853Y421961D01*
X430856Y421957D01*
X430866Y421944D01*
X430882Y421928D01*
X430905Y421902D01*
X430931Y421869D01*
X430961Y421830D01*
X430997Y421784D01*
X431033Y421735D01*
X431069Y421675D01*
X431112Y421613D01*
X431151Y421548D01*
X431190Y421475D01*
X431230Y421400D01*
X431266Y421318D01*
X431302Y421233D01*
X431335Y421144D01*
X431338Y421138D01*
X431341Y421121D01*
X431351Y421095D01*
X431361Y421059D01*
X431374Y421010D01*
X431387Y420954D01*
X431404Y420888D01*
X431420Y420816D01*
X431433Y420731D01*
X431450Y420642D01*
X431463Y420544D01*
X431476Y420439D01*
X431486Y420327D01*
X431496Y420209D01*
X431499Y420085D01*
X431502Y419953D01*
Y419950D01*
Y419947D01*
Y419937D01*
Y419927D01*
Y419894D01*
X431499Y419848D01*
Y419796D01*
X431496Y419734D01*
X431489Y419662D01*
X431482Y419586D01*
X431476Y419504D01*
X431466Y419416D01*
X431436Y419238D01*
X431400Y419055D01*
X431374Y418963D01*
X431348Y418878D01*
X431345Y418871D01*
X431338Y418855D01*
X431328Y418825D01*
X431312Y418786D01*
X431292Y418740D01*
X431269Y418687D01*
X431240Y418625D01*
X431210Y418563D01*
X431174Y418491D01*
X431131Y418418D01*
X431089Y418346D01*
X431040Y418271D01*
X430987Y418199D01*
X430931Y418126D01*
X430872Y418054D01*
X430807Y417989D01*
X430803Y417985D01*
X430794Y417979D01*
X430781Y417963D01*
X430758Y417946D01*
X430731Y417923D01*
X430698Y417900D01*
X430662Y417871D01*
X430617Y417841D01*
X430571Y417808D01*
X430515Y417775D01*
X430456Y417743D01*
X430393Y417710D01*
X430325Y417677D01*
X430252Y417644D01*
X430174Y417615D01*
X430092Y417585D01*
X430088D01*
X430075Y417582D01*
X430056Y417575D01*
X430029Y417569D01*
X429997Y417562D01*
X429954Y417553D01*
X429908Y417543D01*
X429852Y417533D01*
X429790Y417523D01*
X429724Y417513D01*
X429649Y417503D01*
X429570Y417497D01*
X429482Y417490D01*
X429390Y417484D01*
X429291Y417480D01*
X427274D01*
Y422522D01*
X429239D01*
X429291Y422518D01*
D02*
G37*
G36*
X426202Y417480D02*
X425178D01*
X423145Y420767D01*
Y417480D01*
X422200D01*
Y422522D01*
X423191D01*
X425254Y419153D01*
Y422522D01*
X426202D01*
Y417480D01*
D02*
G37*
G36*
X428852Y412518D02*
X428911D01*
X428980Y412515D01*
X429052Y412509D01*
X429127Y412505D01*
X429206Y412499D01*
X429367Y412482D01*
X429442Y412469D01*
X429518Y412459D01*
X429590Y412443D01*
X429655Y412427D01*
X429662D01*
X429675Y412420D01*
X429698Y412413D01*
X429731Y412400D01*
X429767Y412387D01*
X429813Y412367D01*
X429862Y412345D01*
X429918Y412318D01*
X429974Y412289D01*
X430036Y412256D01*
X430098Y412217D01*
X430161Y412174D01*
X430226Y412128D01*
X430292Y412076D01*
X430354Y412020D01*
X430413Y411961D01*
X430416Y411958D01*
X430426Y411944D01*
X430443Y411928D01*
X430466Y411902D01*
X430492Y411869D01*
X430521Y411830D01*
X430557Y411784D01*
X430593Y411734D01*
X430630Y411675D01*
X430672Y411613D01*
X430712Y411548D01*
X430751Y411475D01*
X430790Y411400D01*
X430826Y411318D01*
X430863Y411233D01*
X430895Y411144D01*
X430899Y411137D01*
X430902Y411121D01*
X430912Y411095D01*
X430922Y411059D01*
X430935Y411010D01*
X430948Y410954D01*
X430964Y410888D01*
X430981Y410816D01*
X430994Y410731D01*
X431010Y410642D01*
X431023Y410544D01*
X431036Y410439D01*
X431046Y410327D01*
X431056Y410209D01*
X431059Y410085D01*
X431063Y409953D01*
Y409950D01*
Y409947D01*
Y409937D01*
Y409927D01*
Y409894D01*
X431059Y409848D01*
Y409796D01*
X431056Y409734D01*
X431049Y409661D01*
X431043Y409586D01*
X431036Y409504D01*
X431027Y409415D01*
X430997Y409238D01*
X430961Y409055D01*
X430935Y408963D01*
X430908Y408878D01*
X430905Y408871D01*
X430899Y408855D01*
X430889Y408825D01*
X430872Y408786D01*
X430853Y408740D01*
X430830Y408687D01*
X430800Y408625D01*
X430771Y408563D01*
X430735Y408491D01*
X430692Y408418D01*
X430649Y408346D01*
X430600Y408271D01*
X430548Y408199D01*
X430492Y408126D01*
X430433Y408054D01*
X430367Y407989D01*
X430364Y407985D01*
X430354Y407979D01*
X430341Y407963D01*
X430318Y407946D01*
X430292Y407923D01*
X430259Y407900D01*
X430223Y407871D01*
X430177Y407841D01*
X430131Y407808D01*
X430075Y407775D01*
X430016Y407743D01*
X429954Y407710D01*
X429885Y407677D01*
X429813Y407644D01*
X429734Y407615D01*
X429652Y407585D01*
X429649D01*
X429636Y407582D01*
X429616Y407575D01*
X429590Y407569D01*
X429557Y407562D01*
X429514Y407552D01*
X429468Y407543D01*
X429413Y407533D01*
X429350Y407523D01*
X429285Y407513D01*
X429209Y407503D01*
X429131Y407497D01*
X429042Y407490D01*
X428950Y407484D01*
X428852Y407480D01*
X426835D01*
Y412522D01*
X428799D01*
X428852Y412518D01*
D02*
G37*
G36*
X434083Y402518D02*
X434152D01*
X434228Y402515D01*
X434313Y402512D01*
X434402Y402505D01*
X434497Y402499D01*
X434595Y402489D01*
X434789Y402463D01*
X434884Y402450D01*
X434972Y402430D01*
X435054Y402407D01*
X435126Y402384D01*
X435130D01*
X435143Y402377D01*
X435163Y402371D01*
X435189Y402358D01*
X435218Y402341D01*
X435254Y402322D01*
X435294Y402299D01*
X435336Y402272D01*
X435382Y402243D01*
X435431Y402207D01*
X435481Y402167D01*
X435530Y402125D01*
X435579Y402076D01*
X435625Y402023D01*
X435671Y401964D01*
X435714Y401902D01*
X435717Y401898D01*
X435723Y401885D01*
X435733Y401866D01*
X435750Y401839D01*
X435766Y401807D01*
X435782Y401767D01*
X435802Y401725D01*
X435825Y401672D01*
X435845Y401616D01*
X435864Y401554D01*
X435881Y401488D01*
X435901Y401420D01*
X435914Y401347D01*
X435923Y401269D01*
X435930Y401190D01*
X435933Y401108D01*
Y401101D01*
Y401082D01*
X435930Y401052D01*
X435927Y401013D01*
X435923Y400964D01*
X435917Y400908D01*
X435904Y400846D01*
X435891Y400777D01*
X435874Y400705D01*
X435851Y400629D01*
X435825Y400550D01*
X435792Y400472D01*
X435753Y400393D01*
X435710Y400317D01*
X435658Y400242D01*
X435599Y400170D01*
X435596Y400167D01*
X435582Y400153D01*
X435563Y400134D01*
X435536Y400111D01*
X435500Y400081D01*
X435458Y400048D01*
X435409Y400012D01*
X435350Y399973D01*
X435284Y399934D01*
X435209Y399894D01*
X435126Y399855D01*
X435038Y399816D01*
X434939Y399783D01*
X434835Y399750D01*
X434723Y399724D01*
X434602Y399704D01*
X434605Y399701D01*
X434615Y399694D01*
X434634Y399685D01*
X434657Y399671D01*
X434684Y399652D01*
X434717Y399632D01*
X434756Y399606D01*
X434795Y399580D01*
X434880Y399517D01*
X434972Y399445D01*
X435061Y399366D01*
X435146Y399281D01*
X435149Y399278D01*
X435156Y399271D01*
X435169Y399255D01*
X435185Y399235D01*
X435209Y399209D01*
X435235Y399176D01*
X435264Y399137D01*
X435300Y399094D01*
X435340Y399038D01*
X435382Y398979D01*
X435431Y398914D01*
X435484Y398838D01*
X435536Y398756D01*
X435599Y398664D01*
X435661Y398569D01*
X435727Y398461D01*
X436343Y397480D01*
X435126D01*
X434388Y398576D01*
Y398579D01*
X434385Y398582D01*
X434372Y398602D01*
X434352Y398632D01*
X434326Y398671D01*
X434293Y398717D01*
X434257Y398769D01*
X434218Y398828D01*
X434175Y398887D01*
X434087Y399015D01*
X434041Y399078D01*
X433998Y399137D01*
X433955Y399193D01*
X433919Y399242D01*
X433883Y399284D01*
X433854Y399317D01*
Y399320D01*
X433847Y399324D01*
X433828Y399343D01*
X433798Y399370D01*
X433762Y399402D01*
X433716Y399435D01*
X433664Y399471D01*
X433605Y399501D01*
X433545Y399527D01*
X433542D01*
X433539Y399530D01*
X433529Y399534D01*
X433516Y399537D01*
X433496Y399540D01*
X433477Y399543D01*
X433450Y399550D01*
X433421Y399557D01*
X433388Y399560D01*
X433349Y399566D01*
X433309Y399570D01*
X433263Y399573D01*
X433211Y399576D01*
X433155Y399580D01*
X433096Y399583D01*
X432827D01*
Y397480D01*
X431810D01*
Y402522D01*
X434054D01*
X434083Y402518D01*
D02*
G37*
G36*
X421406Y397480D02*
X420458D01*
Y401449D01*
X419458Y397480D01*
X418477D01*
X417480Y401449D01*
Y397480D01*
X416535D01*
Y402522D01*
X418057D01*
X418972Y399081D01*
X419878Y402522D01*
X421406D01*
Y397480D01*
D02*
G37*
G36*
X419422Y407480D02*
X418336D01*
X416535Y412522D01*
X417637D01*
X418913Y408789D01*
X420150Y412522D01*
X421229D01*
X419422Y407480D01*
D02*
G37*
G36*
X428550Y398330D02*
X431082D01*
Y397480D01*
X427530D01*
Y402482D01*
X428550D01*
Y398330D01*
D02*
G37*
G36*
X425815Y452604D02*
X425841D01*
X425870Y452600D01*
X425906Y452597D01*
X425943Y452594D01*
X425985Y452591D01*
X426077Y452577D01*
X426175Y452561D01*
X426287Y452538D01*
X426405Y452509D01*
X426526Y452476D01*
X426651Y452430D01*
X426776Y452377D01*
X426900Y452315D01*
X427025Y452243D01*
X427143Y452158D01*
X427254Y452063D01*
X427258Y452059D01*
X427271Y452046D01*
X427287Y452030D01*
X427310Y452003D01*
X427340Y451967D01*
X427373Y451928D01*
X427409Y451879D01*
X427448Y451823D01*
X427491Y451761D01*
X427533Y451692D01*
X427576Y451616D01*
X427619Y451531D01*
X427658Y451443D01*
X427697Y451344D01*
X427737Y451242D01*
X427769Y451131D01*
X426762Y450891D01*
Y450895D01*
X426759Y450908D01*
X426753Y450931D01*
X426743Y450957D01*
X426733Y450990D01*
X426720Y451029D01*
X426703Y451072D01*
X426684Y451118D01*
X426661Y451167D01*
X426631Y451216D01*
X426602Y451269D01*
X426569Y451318D01*
X426530Y451370D01*
X426487Y451420D01*
X426441Y451469D01*
X426389Y451511D01*
X426385Y451515D01*
X426375Y451521D01*
X426359Y451531D01*
X426339Y451547D01*
X426310Y451564D01*
X426277Y451584D01*
X426241Y451603D01*
X426198Y451626D01*
X426149Y451646D01*
X426097Y451666D01*
X426041Y451685D01*
X425979Y451702D01*
X425913Y451718D01*
X425847Y451728D01*
X425775Y451734D01*
X425700Y451738D01*
X425673D01*
X425647Y451734D01*
X425608Y451731D01*
X425559Y451725D01*
X425503Y451718D01*
X425444Y451705D01*
X425375Y451689D01*
X425306Y451666D01*
X425231Y451639D01*
X425155Y451607D01*
X425080Y451567D01*
X425001Y451521D01*
X424929Y451469D01*
X424857Y451406D01*
X424788Y451334D01*
X424785Y451331D01*
X424771Y451315D01*
X424755Y451292D01*
X424732Y451259D01*
X424706Y451213D01*
X424676Y451160D01*
X424647Y451095D01*
X424614Y451023D01*
X424581Y450937D01*
X424552Y450839D01*
X424522Y450734D01*
X424496Y450616D01*
X424473Y450488D01*
X424457Y450347D01*
X424443Y450196D01*
X424440Y450032D01*
Y450029D01*
Y450022D01*
Y450009D01*
Y449990D01*
Y449967D01*
X424443Y449940D01*
Y449911D01*
X424447Y449875D01*
Y449839D01*
X424450Y449799D01*
X424460Y449707D01*
X424470Y449609D01*
X424483Y449504D01*
X424503Y449393D01*
X424525Y449278D01*
X424552Y449163D01*
X424585Y449051D01*
X424624Y448943D01*
X424670Y448845D01*
X424726Y448750D01*
X424785Y448668D01*
X424788Y448664D01*
X424801Y448651D01*
X424821Y448632D01*
X424847Y448605D01*
X424883Y448576D01*
X424922Y448540D01*
X424972Y448504D01*
X425027Y448468D01*
X425086Y448428D01*
X425155Y448392D01*
X425227Y448359D01*
X425309Y448327D01*
X425391Y448300D01*
X425483Y448281D01*
X425578Y448268D01*
X425680Y448264D01*
X425697D01*
X425719Y448268D01*
X425749D01*
X425782Y448271D01*
X425824Y448277D01*
X425870Y448287D01*
X425919Y448297D01*
X425972Y448310D01*
X426028Y448327D01*
X426084Y448346D01*
X426143Y448373D01*
X426202Y448402D01*
X426261Y448435D01*
X426320Y448474D01*
X426375Y448520D01*
X426379Y448523D01*
X426389Y448533D01*
X426405Y448546D01*
X426425Y448569D01*
X426448Y448599D01*
X426477Y448632D01*
X426507Y448671D01*
X426539Y448720D01*
X426572Y448773D01*
X426608Y448832D01*
X426644Y448901D01*
X426677Y448973D01*
X426713Y449051D01*
X426743Y449140D01*
X426772Y449232D01*
X426799Y449333D01*
X427786Y449019D01*
Y449015D01*
X427783Y449009D01*
X427779Y448999D01*
X427776Y448982D01*
X427769Y448963D01*
X427763Y448940D01*
X427753Y448914D01*
X427743Y448884D01*
X427717Y448815D01*
X427684Y448736D01*
X427648Y448651D01*
X427605Y448556D01*
X427556Y448458D01*
X427500Y448359D01*
X427438Y448258D01*
X427369Y448156D01*
X427294Y448058D01*
X427212Y447963D01*
X427123Y447874D01*
X427028Y447795D01*
X427022Y447792D01*
X427005Y447779D01*
X426976Y447759D01*
X426933Y447733D01*
X426881Y447703D01*
X426818Y447667D01*
X426746Y447631D01*
X426664Y447595D01*
X426572Y447559D01*
X426471Y447523D01*
X426359Y447487D01*
X426241Y447457D01*
X426113Y447431D01*
X425979Y447411D01*
X425838Y447398D01*
X425690Y447395D01*
X425644D01*
X425621Y447398D01*
X425592D01*
X425559Y447402D01*
X425523Y447405D01*
X425483Y447411D01*
X425437Y447415D01*
X425388Y447425D01*
X425339Y447431D01*
X425227Y447454D01*
X425106Y447480D01*
X424978Y447516D01*
X424847Y447562D01*
X424709Y447618D01*
X424568Y447684D01*
X424430Y447762D01*
X424362Y447808D01*
X424296Y447854D01*
X424227Y447907D01*
X424161Y447959D01*
X424099Y448018D01*
X424037Y448081D01*
X424033Y448084D01*
X424030Y448087D01*
X424020Y448097D01*
X424011Y448113D01*
X423994Y448130D01*
X423978Y448153D01*
X423958Y448176D01*
X423935Y448205D01*
X423912Y448238D01*
X423886Y448277D01*
X423860Y448317D01*
X423833Y448359D01*
X423804Y448409D01*
X423774Y448458D01*
X423745Y448514D01*
X423715Y448572D01*
X423683Y448635D01*
X423653Y448701D01*
X423624Y448769D01*
X423594Y448841D01*
X423568Y448917D01*
X423541Y448996D01*
X423515Y449078D01*
X423492Y449163D01*
X423450Y449340D01*
X423417Y449534D01*
X423407Y449635D01*
X423397Y449740D01*
X423394Y449845D01*
X423391Y449957D01*
Y449960D01*
Y449970D01*
Y449990D01*
Y450012D01*
X423394Y450042D01*
Y450078D01*
X423397Y450117D01*
X423400Y450163D01*
X423404Y450216D01*
X423410Y450272D01*
X423417Y450331D01*
X423423Y450393D01*
X423433Y450459D01*
X423446Y450527D01*
X423473Y450675D01*
X423505Y450829D01*
X423548Y450987D01*
X423601Y451151D01*
X423666Y451311D01*
X423738Y451472D01*
X423781Y451551D01*
X423827Y451629D01*
X423873Y451702D01*
X423925Y451774D01*
X423981Y451846D01*
X424040Y451912D01*
X424043Y451915D01*
X424047Y451918D01*
X424056Y451928D01*
X424070Y451941D01*
X424086Y451958D01*
X424109Y451977D01*
X424132Y451997D01*
X424158Y452020D01*
X424191Y452046D01*
X424224Y452072D01*
X424263Y452102D01*
X424302Y452131D01*
X424348Y452164D01*
X424394Y452194D01*
X424499Y452259D01*
X424617Y452325D01*
X424745Y452387D01*
X424886Y452446D01*
X425037Y452499D01*
X425201Y452541D01*
X425375Y452577D01*
X425467Y452591D01*
X425559Y452600D01*
X425654Y452604D01*
X425752Y452607D01*
X425792D01*
X425815Y452604D01*
D02*
G37*
G36*
X418392Y442518D02*
X418477D01*
X418569Y442515D01*
X418667Y442512D01*
X418769Y442509D01*
X418871Y442502D01*
X418972Y442499D01*
X419071Y442489D01*
X419163Y442482D01*
X419245Y442473D01*
X419320Y442459D01*
X419350Y442453D01*
X419379Y442446D01*
X419386D01*
X419399Y442440D01*
X419422Y442433D01*
X419451Y442423D01*
X419487Y442407D01*
X419530Y442390D01*
X419579Y442368D01*
X419632Y442341D01*
X419688Y442312D01*
X419747Y442276D01*
X419806Y442233D01*
X419868Y442190D01*
X419930Y442138D01*
X419989Y442082D01*
X420048Y442020D01*
X420104Y441951D01*
X420107Y441948D01*
X420117Y441935D01*
X420130Y441912D01*
X420150Y441882D01*
X420173Y441846D01*
X420199Y441800D01*
X420225Y441748D01*
X420252Y441689D01*
X420278Y441620D01*
X420307Y441544D01*
X420330Y441466D01*
X420353Y441377D01*
X420373Y441285D01*
X420386Y441187D01*
X420396Y441082D01*
X420399Y440970D01*
Y440964D01*
Y440951D01*
Y440924D01*
X420396Y440892D01*
X420393Y440852D01*
X420389Y440806D01*
X420386Y440754D01*
X420380Y440698D01*
X420370Y440639D01*
X420357Y440573D01*
X420327Y440442D01*
X420307Y440377D01*
X420285Y440311D01*
X420258Y440249D01*
X420229Y440186D01*
X420225Y440183D01*
X420222Y440173D01*
X420212Y440157D01*
X420199Y440134D01*
X420183Y440108D01*
X420163Y440078D01*
X420140Y440042D01*
X420114Y440006D01*
X420052Y439927D01*
X419976Y439845D01*
X419894Y439763D01*
X419799Y439691D01*
X419796Y439688D01*
X419786Y439684D01*
X419773Y439675D01*
X419753Y439662D01*
X419730Y439648D01*
X419704Y439632D01*
X419671Y439612D01*
X419635Y439593D01*
X419556Y439553D01*
X419468Y439514D01*
X419373Y439481D01*
X419274Y439455D01*
X419271D01*
X419258Y439452D01*
X419235Y439448D01*
X419205Y439445D01*
X419169Y439438D01*
X419123Y439432D01*
X419068Y439425D01*
X419005Y439419D01*
X418933Y439412D01*
X418854Y439406D01*
X418769Y439399D01*
X418674Y439393D01*
X418572Y439389D01*
X418461Y439386D01*
X418343Y439383D01*
X417552D01*
Y437480D01*
X416535D01*
Y442522D01*
X418320D01*
X418392Y442518D01*
D02*
G37*
G36*
X421800Y447395D02*
X421091D01*
X422338Y452607D01*
X423063D01*
X421800Y447395D01*
D02*
G37*
G36*
X420537Y447480D02*
X419514D01*
X417480Y450767D01*
Y447480D01*
X416535D01*
Y452522D01*
X417526D01*
X419589Y449153D01*
Y452522D01*
X420537D01*
Y447480D01*
D02*
G37*
G36*
X428960Y442604D02*
X428986D01*
X429016Y442600D01*
X429052Y442597D01*
X429088Y442594D01*
X429131Y442591D01*
X429222Y442577D01*
X429321Y442561D01*
X429432Y442538D01*
X429551Y442509D01*
X429672Y442476D01*
X429797Y442430D01*
X429921Y442377D01*
X430046Y442315D01*
X430170Y442243D01*
X430289Y442158D01*
X430400Y442063D01*
X430403Y442059D01*
X430416Y442046D01*
X430433Y442030D01*
X430456Y442003D01*
X430485Y441967D01*
X430518Y441928D01*
X430554Y441879D01*
X430593Y441823D01*
X430636Y441761D01*
X430679Y441692D01*
X430721Y441616D01*
X430764Y441531D01*
X430803Y441443D01*
X430843Y441344D01*
X430882Y441243D01*
X430915Y441131D01*
X429908Y440892D01*
Y440895D01*
X429905Y440908D01*
X429898Y440931D01*
X429888Y440957D01*
X429879Y440990D01*
X429865Y441029D01*
X429849Y441072D01*
X429829Y441118D01*
X429806Y441167D01*
X429777Y441216D01*
X429747Y441269D01*
X429714Y441318D01*
X429675Y441370D01*
X429633Y441420D01*
X429587Y441469D01*
X429534Y441511D01*
X429531Y441515D01*
X429521Y441521D01*
X429505Y441531D01*
X429485Y441547D01*
X429455Y441564D01*
X429423Y441584D01*
X429387Y441603D01*
X429344Y441626D01*
X429295Y441646D01*
X429242Y441666D01*
X429186Y441685D01*
X429124Y441702D01*
X429059Y441718D01*
X428993Y441728D01*
X428921Y441735D01*
X428845Y441738D01*
X428819D01*
X428793Y441735D01*
X428753Y441731D01*
X428704Y441725D01*
X428649Y441718D01*
X428589Y441705D01*
X428521Y441689D01*
X428452Y441666D01*
X428376Y441639D01*
X428301Y441607D01*
X428225Y441567D01*
X428147Y441521D01*
X428075Y441469D01*
X428002Y441406D01*
X427933Y441334D01*
X427930Y441331D01*
X427917Y441315D01*
X427901Y441292D01*
X427878Y441259D01*
X427851Y441213D01*
X427822Y441160D01*
X427792Y441095D01*
X427760Y441023D01*
X427727Y440937D01*
X427697Y440839D01*
X427668Y440734D01*
X427641Y440616D01*
X427619Y440488D01*
X427602Y440347D01*
X427589Y440196D01*
X427586Y440032D01*
Y440029D01*
Y440022D01*
Y440009D01*
Y439990D01*
Y439967D01*
X427589Y439940D01*
Y439911D01*
X427592Y439875D01*
Y439839D01*
X427596Y439799D01*
X427605Y439707D01*
X427615Y439609D01*
X427628Y439504D01*
X427648Y439393D01*
X427671Y439278D01*
X427697Y439163D01*
X427730Y439051D01*
X427769Y438943D01*
X427815Y438845D01*
X427871Y438750D01*
X427930Y438668D01*
X427933Y438664D01*
X427947Y438651D01*
X427966Y438632D01*
X427992Y438605D01*
X428029Y438576D01*
X428068Y438540D01*
X428117Y438504D01*
X428173Y438468D01*
X428232Y438428D01*
X428301Y438392D01*
X428373Y438359D01*
X428455Y438327D01*
X428537Y438300D01*
X428629Y438281D01*
X428724Y438268D01*
X428826Y438264D01*
X428842D01*
X428865Y438268D01*
X428895D01*
X428927Y438271D01*
X428970Y438277D01*
X429016Y438287D01*
X429065Y438297D01*
X429117Y438310D01*
X429173Y438327D01*
X429229Y438346D01*
X429288Y438373D01*
X429347Y438402D01*
X429406Y438435D01*
X429465Y438474D01*
X429521Y438520D01*
X429524Y438523D01*
X429534Y438533D01*
X429551Y438546D01*
X429570Y438569D01*
X429593Y438599D01*
X429623Y438632D01*
X429652Y438671D01*
X429685Y438720D01*
X429718Y438773D01*
X429754Y438832D01*
X429790Y438901D01*
X429823Y438973D01*
X429859Y439051D01*
X429888Y439140D01*
X429918Y439232D01*
X429944Y439333D01*
X430931Y439019D01*
Y439015D01*
X430928Y439009D01*
X430925Y438999D01*
X430922Y438982D01*
X430915Y438963D01*
X430908Y438940D01*
X430899Y438914D01*
X430889Y438884D01*
X430863Y438815D01*
X430830Y438736D01*
X430794Y438651D01*
X430751Y438556D01*
X430702Y438458D01*
X430646Y438359D01*
X430584Y438258D01*
X430515Y438156D01*
X430439Y438058D01*
X430357Y437962D01*
X430269Y437874D01*
X430174Y437795D01*
X430167Y437792D01*
X430151Y437779D01*
X430121Y437759D01*
X430079Y437733D01*
X430026Y437703D01*
X429964Y437667D01*
X429892Y437631D01*
X429810Y437595D01*
X429718Y437559D01*
X429616Y437523D01*
X429505Y437487D01*
X429387Y437457D01*
X429259Y437431D01*
X429124Y437411D01*
X428983Y437398D01*
X428835Y437395D01*
X428790D01*
X428767Y437398D01*
X428737D01*
X428704Y437402D01*
X428668Y437405D01*
X428629Y437411D01*
X428583Y437415D01*
X428534Y437425D01*
X428484Y437431D01*
X428373Y437454D01*
X428252Y437480D01*
X428124Y437516D01*
X427992Y437562D01*
X427855Y437618D01*
X427714Y437684D01*
X427576Y437762D01*
X427507Y437808D01*
X427441Y437854D01*
X427373Y437907D01*
X427307Y437959D01*
X427245Y438018D01*
X427182Y438081D01*
X427179Y438084D01*
X427176Y438087D01*
X427166Y438097D01*
X427156Y438113D01*
X427140Y438130D01*
X427123Y438153D01*
X427104Y438176D01*
X427081Y438205D01*
X427058Y438238D01*
X427031Y438277D01*
X427005Y438317D01*
X426979Y438359D01*
X426949Y438409D01*
X426920Y438458D01*
X426890Y438514D01*
X426861Y438573D01*
X426828Y438635D01*
X426799Y438700D01*
X426769Y438769D01*
X426740Y438841D01*
X426713Y438917D01*
X426687Y438996D01*
X426661Y439078D01*
X426638Y439163D01*
X426595Y439340D01*
X426562Y439534D01*
X426553Y439635D01*
X426543Y439740D01*
X426539Y439845D01*
X426536Y439957D01*
Y439960D01*
Y439970D01*
Y439990D01*
Y440013D01*
X426539Y440042D01*
Y440078D01*
X426543Y440117D01*
X426546Y440163D01*
X426549Y440216D01*
X426556Y440272D01*
X426562Y440331D01*
X426569Y440393D01*
X426579Y440459D01*
X426592Y440527D01*
X426618Y440675D01*
X426651Y440829D01*
X426694Y440987D01*
X426746Y441151D01*
X426812Y441311D01*
X426884Y441472D01*
X426927Y441551D01*
X426972Y441630D01*
X427018Y441702D01*
X427071Y441774D01*
X427127Y441846D01*
X427186Y441912D01*
X427189Y441915D01*
X427192Y441918D01*
X427202Y441928D01*
X427215Y441941D01*
X427232Y441958D01*
X427254Y441977D01*
X427277Y441997D01*
X427304Y442020D01*
X427337Y442046D01*
X427369Y442072D01*
X427409Y442102D01*
X427448Y442131D01*
X427494Y442164D01*
X427540Y442194D01*
X427645Y442259D01*
X427763Y442325D01*
X427891Y442387D01*
X428032Y442446D01*
X428183Y442499D01*
X428347Y442541D01*
X428521Y442577D01*
X428612Y442591D01*
X428704Y442600D01*
X428799Y442604D01*
X428898Y442607D01*
X428937D01*
X428960Y442604D01*
D02*
G37*
G36*
X428730Y432518D02*
X428790D01*
X428858Y432515D01*
X428931Y432509D01*
X429006Y432505D01*
X429085Y432499D01*
X429245Y432482D01*
X429321Y432469D01*
X429396Y432459D01*
X429468Y432443D01*
X429534Y432427D01*
X429541D01*
X429554Y432420D01*
X429577Y432413D01*
X429609Y432400D01*
X429646Y432387D01*
X429692Y432368D01*
X429741Y432344D01*
X429797Y432318D01*
X429852Y432289D01*
X429915Y432256D01*
X429977Y432217D01*
X430039Y432174D01*
X430105Y432128D01*
X430170Y432076D01*
X430233Y432020D01*
X430292Y431961D01*
X430295Y431957D01*
X430305Y431944D01*
X430321Y431928D01*
X430344Y431902D01*
X430371Y431869D01*
X430400Y431830D01*
X430436Y431784D01*
X430472Y431735D01*
X430508Y431675D01*
X430551Y431613D01*
X430590Y431547D01*
X430630Y431475D01*
X430669Y431400D01*
X430705Y431318D01*
X430741Y431233D01*
X430774Y431144D01*
X430777Y431138D01*
X430781Y431121D01*
X430790Y431095D01*
X430800Y431059D01*
X430813Y431010D01*
X430826Y430954D01*
X430843Y430888D01*
X430859Y430816D01*
X430872Y430731D01*
X430889Y430642D01*
X430902Y430544D01*
X430915Y430439D01*
X430925Y430327D01*
X430935Y430209D01*
X430938Y430085D01*
X430941Y429953D01*
Y429950D01*
Y429947D01*
Y429937D01*
Y429927D01*
Y429894D01*
X430938Y429848D01*
Y429796D01*
X430935Y429734D01*
X430928Y429662D01*
X430922Y429586D01*
X430915Y429504D01*
X430905Y429416D01*
X430876Y429238D01*
X430839Y429055D01*
X430813Y428963D01*
X430787Y428878D01*
X430784Y428871D01*
X430777Y428855D01*
X430767Y428825D01*
X430751Y428786D01*
X430731Y428740D01*
X430708Y428687D01*
X430679Y428625D01*
X430649Y428563D01*
X430613Y428490D01*
X430571Y428418D01*
X430528Y428346D01*
X430479Y428271D01*
X430426Y428199D01*
X430371Y428126D01*
X430311Y428054D01*
X430246Y427989D01*
X430243Y427985D01*
X430233Y427979D01*
X430220Y427962D01*
X430197Y427946D01*
X430170Y427923D01*
X430138Y427900D01*
X430101Y427871D01*
X430056Y427841D01*
X430010Y427808D01*
X429954Y427775D01*
X429895Y427743D01*
X429833Y427710D01*
X429764Y427677D01*
X429692Y427644D01*
X429613Y427615D01*
X429531Y427585D01*
X429528D01*
X429514Y427582D01*
X429495Y427575D01*
X429468Y427569D01*
X429436Y427562D01*
X429393Y427553D01*
X429347Y427543D01*
X429291Y427533D01*
X429229Y427523D01*
X429163Y427513D01*
X429088Y427503D01*
X429009Y427497D01*
X428921Y427490D01*
X428829Y427484D01*
X428730Y427480D01*
X426713D01*
Y432522D01*
X428678D01*
X428730Y432518D01*
D02*
G37*
G36*
X423653Y432604D02*
X423686D01*
X423719Y432600D01*
X423758Y432597D01*
X423797Y432594D01*
X423889Y432587D01*
X423991Y432574D01*
X424099Y432558D01*
X424214Y432538D01*
X424335Y432512D01*
X424457Y432479D01*
X424578Y432440D01*
X424699Y432397D01*
X424817Y432344D01*
X424926Y432282D01*
X425031Y432213D01*
X425037Y432210D01*
X425054Y432194D01*
X425080Y432174D01*
X425116Y432141D01*
X425159Y432102D01*
X425205Y432053D01*
X425257Y431994D01*
X425313Y431931D01*
X425372Y431856D01*
X425427Y431774D01*
X425487Y431685D01*
X425539Y431587D01*
X425592Y431482D01*
X425637Y431370D01*
X425677Y431252D01*
X425710Y431124D01*
X424699Y430937D01*
Y430941D01*
X424693Y430954D01*
X424686Y430973D01*
X424676Y431000D01*
X424667Y431029D01*
X424650Y431065D01*
X424630Y431105D01*
X424608Y431151D01*
X424581Y431197D01*
X424555Y431243D01*
X424519Y431292D01*
X424483Y431341D01*
X424443Y431387D01*
X424398Y431436D01*
X424348Y431479D01*
X424296Y431521D01*
X424293Y431525D01*
X424283Y431531D01*
X424266Y431541D01*
X424243Y431554D01*
X424214Y431570D01*
X424181Y431590D01*
X424142Y431610D01*
X424096Y431630D01*
X424043Y431649D01*
X423988Y431669D01*
X423929Y431689D01*
X423863Y431705D01*
X423794Y431718D01*
X423722Y431728D01*
X423646Y431735D01*
X423564Y431738D01*
X423535D01*
X423499Y431735D01*
X423453Y431731D01*
X423397Y431725D01*
X423332Y431715D01*
X423259Y431702D01*
X423181Y431685D01*
X423099Y431662D01*
X423010Y431636D01*
X422922Y431600D01*
X422833Y431561D01*
X422745Y431511D01*
X422659Y431456D01*
X422577Y431390D01*
X422502Y431315D01*
X422499Y431311D01*
X422485Y431295D01*
X422466Y431269D01*
X422439Y431236D01*
X422410Y431190D01*
X422377Y431138D01*
X422341Y431072D01*
X422305Y431000D01*
X422269Y430914D01*
X422233Y430823D01*
X422200Y430718D01*
X422170Y430606D01*
X422144Y430485D01*
X422125Y430350D01*
X422111Y430209D01*
X422108Y430058D01*
Y430055D01*
Y430049D01*
Y430035D01*
Y430019D01*
Y429999D01*
X422111Y429973D01*
Y429944D01*
X422115Y429911D01*
X422118Y429875D01*
X422121Y429835D01*
X422128Y429750D01*
X422141Y429655D01*
X422157Y429553D01*
X422180Y429445D01*
X422207Y429333D01*
X422239Y429222D01*
X422279Y429110D01*
X422321Y429002D01*
X422377Y428897D01*
X422439Y428799D01*
X422508Y428710D01*
X422512Y428707D01*
X422528Y428691D01*
X422551Y428668D01*
X422580Y428641D01*
X422620Y428605D01*
X422669Y428569D01*
X422725Y428530D01*
X422790Y428487D01*
X422859Y428445D01*
X422941Y428405D01*
X423027Y428369D01*
X423118Y428333D01*
X423217Y428307D01*
X423325Y428284D01*
X423437Y428271D01*
X423555Y428264D01*
X423587D01*
X423610Y428267D01*
X423640D01*
X423673Y428271D01*
X423712Y428274D01*
X423755Y428281D01*
X423801Y428287D01*
X423850Y428294D01*
X423958Y428317D01*
X424076Y428346D01*
X424194Y428389D01*
X424197D01*
X424207Y428395D01*
X424227Y428402D01*
X424247Y428412D01*
X424276Y428425D01*
X424309Y428438D01*
X424345Y428454D01*
X424384Y428474D01*
X424470Y428517D01*
X424565Y428569D01*
X424657Y428628D01*
X424749Y428694D01*
Y429333D01*
X423581D01*
Y430183D01*
X425775D01*
Y428172D01*
X425772Y428169D01*
X425762Y428159D01*
X425742Y428143D01*
X425716Y428120D01*
X425683Y428094D01*
X425644Y428061D01*
X425595Y428028D01*
X425539Y427989D01*
X425477Y427946D01*
X425408Y427903D01*
X425332Y427857D01*
X425250Y427812D01*
X425159Y427766D01*
X425063Y427720D01*
X424959Y427674D01*
X424847Y427628D01*
X424844D01*
X424840Y427625D01*
X424831Y427621D01*
X424821Y427618D01*
X424788Y427605D01*
X424742Y427592D01*
X424686Y427575D01*
X424624Y427556D01*
X424548Y427533D01*
X424467Y427513D01*
X424378Y427490D01*
X424279Y427467D01*
X424181Y427448D01*
X424073Y427431D01*
X423965Y427418D01*
X423850Y427405D01*
X423735Y427398D01*
X423620Y427395D01*
X423564D01*
X423545Y427398D01*
X423515D01*
X423486Y427402D01*
X423417Y427405D01*
X423338Y427411D01*
X423250Y427421D01*
X423151Y427438D01*
X423046Y427454D01*
X422935Y427477D01*
X422820Y427503D01*
X422702Y427536D01*
X422584Y427572D01*
X422469Y427618D01*
X422351Y427667D01*
X422239Y427726D01*
X422233Y427730D01*
X422213Y427743D01*
X422184Y427762D01*
X422144Y427789D01*
X422095Y427821D01*
X422039Y427864D01*
X421977Y427913D01*
X421908Y427969D01*
X421839Y428031D01*
X421764Y428103D01*
X421692Y428182D01*
X421619Y428267D01*
X421547Y428359D01*
X421478Y428458D01*
X421413Y428563D01*
X421354Y428674D01*
Y428678D01*
X421350Y428681D01*
X421347Y428691D01*
X421341Y428704D01*
X421327Y428736D01*
X421308Y428783D01*
X421285Y428838D01*
X421262Y428907D01*
X421232Y428986D01*
X421206Y429074D01*
X421180Y429170D01*
X421154Y429275D01*
X421127Y429386D01*
X421104Y429501D01*
X421085Y429625D01*
X421072Y429753D01*
X421062Y429885D01*
X421059Y430019D01*
Y430022D01*
Y430029D01*
Y430039D01*
Y430055D01*
Y430071D01*
X421062Y430094D01*
Y430121D01*
X421065Y430150D01*
X421068Y430219D01*
X421075Y430301D01*
X421085Y430390D01*
X421101Y430488D01*
X421118Y430596D01*
X421141Y430708D01*
X421167Y430823D01*
X421200Y430941D01*
X421236Y431062D01*
X421282Y431180D01*
X421331Y431301D01*
X421390Y431416D01*
Y431420D01*
X421393Y431423D01*
X421406Y431443D01*
X421426Y431475D01*
X421452Y431518D01*
X421485Y431567D01*
X421528Y431626D01*
X421577Y431692D01*
X421636Y431764D01*
X421698Y431839D01*
X421770Y431915D01*
X421852Y431994D01*
X421938Y432072D01*
X422033Y432148D01*
X422134Y432223D01*
X422243Y432292D01*
X422357Y432358D01*
X422364Y432361D01*
X422380Y432368D01*
X422407Y432381D01*
X422446Y432397D01*
X422492Y432417D01*
X422548Y432436D01*
X422617Y432459D01*
X422692Y432482D01*
X422774Y432505D01*
X422866Y432528D01*
X422964Y432548D01*
X423072Y432568D01*
X423184Y432584D01*
X423305Y432597D01*
X423433Y432604D01*
X423564Y432607D01*
X423627D01*
X423653Y432604D01*
D02*
G37*
G36*
Y442604D02*
X423686D01*
X423719Y442600D01*
X423758Y442597D01*
X423797Y442594D01*
X423889Y442587D01*
X423991Y442574D01*
X424099Y442558D01*
X424214Y442538D01*
X424335Y442512D01*
X424457Y442479D01*
X424578Y442440D01*
X424699Y442397D01*
X424817Y442345D01*
X424926Y442282D01*
X425031Y442213D01*
X425037Y442210D01*
X425054Y442194D01*
X425080Y442174D01*
X425116Y442141D01*
X425159Y442102D01*
X425205Y442053D01*
X425257Y441994D01*
X425313Y441931D01*
X425372Y441856D01*
X425427Y441774D01*
X425487Y441685D01*
X425539Y441587D01*
X425592Y441482D01*
X425637Y441370D01*
X425677Y441252D01*
X425710Y441124D01*
X424699Y440937D01*
Y440941D01*
X424693Y440954D01*
X424686Y440974D01*
X424676Y441000D01*
X424667Y441029D01*
X424650Y441065D01*
X424630Y441105D01*
X424608Y441151D01*
X424581Y441197D01*
X424555Y441243D01*
X424519Y441292D01*
X424483Y441341D01*
X424443Y441387D01*
X424398Y441436D01*
X424348Y441479D01*
X424296Y441521D01*
X424293Y441525D01*
X424283Y441531D01*
X424266Y441541D01*
X424243Y441554D01*
X424214Y441571D01*
X424181Y441590D01*
X424142Y441610D01*
X424096Y441630D01*
X424043Y441649D01*
X423988Y441669D01*
X423929Y441689D01*
X423863Y441705D01*
X423794Y441718D01*
X423722Y441728D01*
X423646Y441735D01*
X423564Y441738D01*
X423535D01*
X423499Y441735D01*
X423453Y441731D01*
X423397Y441725D01*
X423332Y441715D01*
X423259Y441702D01*
X423181Y441685D01*
X423099Y441662D01*
X423010Y441636D01*
X422922Y441600D01*
X422833Y441561D01*
X422745Y441511D01*
X422659Y441456D01*
X422577Y441390D01*
X422502Y441315D01*
X422499Y441311D01*
X422485Y441295D01*
X422466Y441269D01*
X422439Y441236D01*
X422410Y441190D01*
X422377Y441138D01*
X422341Y441072D01*
X422305Y441000D01*
X422269Y440914D01*
X422233Y440823D01*
X422200Y440718D01*
X422170Y440606D01*
X422144Y440485D01*
X422125Y440350D01*
X422111Y440209D01*
X422108Y440058D01*
Y440055D01*
Y440049D01*
Y440035D01*
Y440019D01*
Y439999D01*
X422111Y439973D01*
Y439944D01*
X422115Y439911D01*
X422118Y439875D01*
X422121Y439835D01*
X422128Y439750D01*
X422141Y439655D01*
X422157Y439553D01*
X422180Y439445D01*
X422207Y439333D01*
X422239Y439222D01*
X422279Y439111D01*
X422321Y439002D01*
X422377Y438897D01*
X422439Y438799D01*
X422508Y438710D01*
X422512Y438707D01*
X422528Y438691D01*
X422551Y438668D01*
X422580Y438641D01*
X422620Y438605D01*
X422669Y438569D01*
X422725Y438530D01*
X422790Y438487D01*
X422859Y438445D01*
X422941Y438405D01*
X423027Y438369D01*
X423118Y438333D01*
X423217Y438307D01*
X423325Y438284D01*
X423437Y438271D01*
X423555Y438264D01*
X423587D01*
X423610Y438268D01*
X423640D01*
X423673Y438271D01*
X423712Y438274D01*
X423755Y438281D01*
X423801Y438287D01*
X423850Y438294D01*
X423958Y438317D01*
X424076Y438346D01*
X424194Y438389D01*
X424197D01*
X424207Y438395D01*
X424227Y438402D01*
X424247Y438412D01*
X424276Y438425D01*
X424309Y438438D01*
X424345Y438454D01*
X424384Y438474D01*
X424470Y438517D01*
X424565Y438569D01*
X424657Y438628D01*
X424749Y438694D01*
Y439333D01*
X423581D01*
Y440183D01*
X425775D01*
Y438172D01*
X425772Y438169D01*
X425762Y438159D01*
X425742Y438143D01*
X425716Y438120D01*
X425683Y438094D01*
X425644Y438061D01*
X425595Y438028D01*
X425539Y437989D01*
X425477Y437946D01*
X425408Y437903D01*
X425332Y437857D01*
X425250Y437812D01*
X425159Y437766D01*
X425063Y437720D01*
X424959Y437674D01*
X424847Y437628D01*
X424844D01*
X424840Y437625D01*
X424831Y437621D01*
X424821Y437618D01*
X424788Y437605D01*
X424742Y437592D01*
X424686Y437575D01*
X424624Y437556D01*
X424548Y437533D01*
X424467Y437513D01*
X424378Y437490D01*
X424279Y437467D01*
X424181Y437448D01*
X424073Y437431D01*
X423965Y437418D01*
X423850Y437405D01*
X423735Y437398D01*
X423620Y437395D01*
X423564D01*
X423545Y437398D01*
X423515D01*
X423486Y437402D01*
X423417Y437405D01*
X423338Y437411D01*
X423250Y437421D01*
X423151Y437438D01*
X423046Y437454D01*
X422935Y437477D01*
X422820Y437503D01*
X422702Y437536D01*
X422584Y437572D01*
X422469Y437618D01*
X422351Y437667D01*
X422239Y437726D01*
X422233Y437730D01*
X422213Y437743D01*
X422184Y437762D01*
X422144Y437789D01*
X422095Y437821D01*
X422039Y437864D01*
X421977Y437913D01*
X421908Y437969D01*
X421839Y438031D01*
X421764Y438103D01*
X421692Y438182D01*
X421619Y438268D01*
X421547Y438359D01*
X421478Y438458D01*
X421413Y438563D01*
X421354Y438674D01*
Y438678D01*
X421350Y438681D01*
X421347Y438691D01*
X421341Y438704D01*
X421327Y438736D01*
X421308Y438783D01*
X421285Y438838D01*
X421262Y438907D01*
X421232Y438986D01*
X421206Y439074D01*
X421180Y439170D01*
X421154Y439275D01*
X421127Y439386D01*
X421104Y439501D01*
X421085Y439625D01*
X421072Y439753D01*
X421062Y439885D01*
X421059Y440019D01*
Y440022D01*
Y440029D01*
Y440039D01*
Y440055D01*
Y440071D01*
X421062Y440095D01*
Y440121D01*
X421065Y440150D01*
X421068Y440219D01*
X421075Y440301D01*
X421085Y440390D01*
X421101Y440488D01*
X421118Y440596D01*
X421141Y440708D01*
X421167Y440823D01*
X421200Y440941D01*
X421236Y441062D01*
X421282Y441180D01*
X421331Y441301D01*
X421390Y441416D01*
Y441420D01*
X421393Y441423D01*
X421406Y441443D01*
X421426Y441475D01*
X421452Y441518D01*
X421485Y441567D01*
X421528Y441626D01*
X421577Y441692D01*
X421636Y441764D01*
X421698Y441839D01*
X421770Y441915D01*
X421852Y441994D01*
X421938Y442072D01*
X422033Y442148D01*
X422134Y442223D01*
X422243Y442292D01*
X422357Y442358D01*
X422364Y442361D01*
X422380Y442368D01*
X422407Y442381D01*
X422446Y442397D01*
X422492Y442417D01*
X422548Y442436D01*
X422617Y442459D01*
X422692Y442482D01*
X422774Y442505D01*
X422866Y442528D01*
X422964Y442548D01*
X423072Y442568D01*
X423184Y442584D01*
X423305Y442597D01*
X423433Y442604D01*
X423564Y442607D01*
X423627D01*
X423653Y442604D01*
D02*
G37*
G36*
X418392Y432518D02*
X418477D01*
X418569Y432515D01*
X418667Y432512D01*
X418769Y432509D01*
X418871Y432502D01*
X418972Y432499D01*
X419071Y432489D01*
X419163Y432482D01*
X419245Y432473D01*
X419320Y432459D01*
X419350Y432453D01*
X419379Y432446D01*
X419386D01*
X419399Y432440D01*
X419422Y432433D01*
X419451Y432423D01*
X419487Y432407D01*
X419530Y432390D01*
X419579Y432368D01*
X419632Y432341D01*
X419688Y432312D01*
X419747Y432276D01*
X419806Y432233D01*
X419868Y432190D01*
X419930Y432138D01*
X419989Y432082D01*
X420048Y432020D01*
X420104Y431951D01*
X420107Y431948D01*
X420117Y431935D01*
X420130Y431912D01*
X420150Y431882D01*
X420173Y431846D01*
X420199Y431800D01*
X420225Y431748D01*
X420252Y431689D01*
X420278Y431620D01*
X420307Y431544D01*
X420330Y431465D01*
X420353Y431377D01*
X420373Y431285D01*
X420386Y431187D01*
X420396Y431082D01*
X420399Y430970D01*
Y430964D01*
Y430951D01*
Y430924D01*
X420396Y430892D01*
X420393Y430852D01*
X420389Y430806D01*
X420386Y430754D01*
X420380Y430698D01*
X420370Y430639D01*
X420357Y430573D01*
X420327Y430442D01*
X420307Y430377D01*
X420285Y430311D01*
X420258Y430249D01*
X420229Y430186D01*
X420225Y430183D01*
X420222Y430173D01*
X420212Y430157D01*
X420199Y430134D01*
X420183Y430108D01*
X420163Y430078D01*
X420140Y430042D01*
X420114Y430006D01*
X420052Y429927D01*
X419976Y429845D01*
X419894Y429763D01*
X419799Y429691D01*
X419796Y429688D01*
X419786Y429684D01*
X419773Y429675D01*
X419753Y429662D01*
X419730Y429648D01*
X419704Y429632D01*
X419671Y429612D01*
X419635Y429593D01*
X419556Y429553D01*
X419468Y429514D01*
X419373Y429481D01*
X419274Y429455D01*
X419271D01*
X419258Y429452D01*
X419235Y429448D01*
X419205Y429445D01*
X419169Y429438D01*
X419123Y429432D01*
X419068Y429425D01*
X419005Y429419D01*
X418933Y429412D01*
X418854Y429406D01*
X418769Y429399D01*
X418674Y429393D01*
X418572Y429389D01*
X418461Y429386D01*
X418343Y429383D01*
X417552D01*
Y427480D01*
X416535D01*
Y432522D01*
X418320D01*
X418392Y432518D01*
D02*
G37*
G36*
X526143Y460282D02*
Y460279D01*
Y460275D01*
Y460266D01*
Y460256D01*
Y460223D01*
Y460177D01*
X526140Y460124D01*
Y460066D01*
X526137Y459997D01*
X526130Y459925D01*
X526127Y459849D01*
X526120Y459770D01*
X526104Y459610D01*
X526091Y459534D01*
X526081Y459459D01*
X526065Y459386D01*
X526048Y459321D01*
Y459314D01*
X526042Y459301D01*
X526035Y459278D01*
X526022Y459245D01*
X526009Y459209D01*
X525989Y459164D01*
X525966Y459114D01*
X525940Y459059D01*
X525911Y459003D01*
X525878Y458941D01*
X525838Y458878D01*
X525796Y458816D01*
X525750Y458750D01*
X525697Y458685D01*
X525641Y458622D01*
X525583Y458563D01*
X525579Y458560D01*
X525566Y458550D01*
X525550Y458534D01*
X525524Y458511D01*
X525491Y458485D01*
X525451Y458455D01*
X525405Y458419D01*
X525356Y458383D01*
X525297Y458347D01*
X525235Y458304D01*
X525169Y458265D01*
X525097Y458225D01*
X525022Y458186D01*
X524940Y458150D01*
X524854Y458114D01*
X524766Y458081D01*
X524759Y458078D01*
X524743Y458075D01*
X524717Y458065D01*
X524681Y458055D01*
X524631Y458042D01*
X524576Y458029D01*
X524510Y458012D01*
X524438Y457996D01*
X524353Y457983D01*
X524264Y457966D01*
X524165Y457953D01*
X524061Y457940D01*
X523949Y457930D01*
X523831Y457920D01*
X523706Y457917D01*
X523575Y457914D01*
X523516D01*
X523470Y457917D01*
X523418D01*
X523355Y457920D01*
X523283Y457927D01*
X523208Y457934D01*
X523126Y457940D01*
X523037Y457950D01*
X522860Y457979D01*
X522676Y458015D01*
X522585Y458042D01*
X522499Y458068D01*
X522493Y458071D01*
X522476Y458078D01*
X522447Y458088D01*
X522407Y458104D01*
X522362Y458124D01*
X522309Y458147D01*
X522247Y458176D01*
X522184Y458206D01*
X522112Y458242D01*
X522040Y458285D01*
X521968Y458327D01*
X521892Y458376D01*
X521820Y458429D01*
X521748Y458485D01*
X521676Y458544D01*
X521610Y458609D01*
X521607Y458612D01*
X521601Y458622D01*
X521584Y458635D01*
X521568Y458658D01*
X521545Y458685D01*
X521522Y458717D01*
X521492Y458753D01*
X521463Y458799D01*
X521430Y458845D01*
X521397Y458901D01*
X521364Y458960D01*
X521332Y459023D01*
X521299Y459091D01*
X521266Y459164D01*
X521237Y459242D01*
X521207Y459324D01*
Y459328D01*
X521204Y459341D01*
X521197Y459360D01*
X521191Y459386D01*
X521184Y459419D01*
X521174Y459462D01*
X521164Y459508D01*
X521154Y459564D01*
X521145Y459626D01*
X521135Y459692D01*
X521125Y459767D01*
X521118Y459846D01*
X521112Y459934D01*
X521105Y460026D01*
X521102Y460124D01*
Y460226D01*
Y462142D01*
X526143D01*
Y460282D01*
D02*
G37*
G36*
X453910Y444677D02*
X453973Y444674D01*
X454045Y444668D01*
X454124Y444661D01*
X454209Y444651D01*
X454297Y444638D01*
X454389Y444622D01*
X454481Y444602D01*
X454573Y444576D01*
X454665Y444550D01*
X454750Y444517D01*
X454829Y444477D01*
X454901Y444435D01*
X454904Y444431D01*
X454917Y444425D01*
X454937Y444409D01*
X454960Y444389D01*
X454990Y444363D01*
X455026Y444333D01*
X455062Y444297D01*
X455101Y444254D01*
X455144Y444205D01*
X455186Y444153D01*
X455229Y444094D01*
X455268Y444028D01*
X455308Y443959D01*
X455344Y443881D01*
X455377Y443802D01*
X455406Y443713D01*
X454494Y443543D01*
Y443546D01*
X454491Y443552D01*
X454488Y443562D01*
X454481Y443579D01*
X454468Y443615D01*
X454445Y443664D01*
X454416Y443716D01*
X454376Y443772D01*
X454327Y443825D01*
X454271Y443871D01*
X454268D01*
X454265Y443877D01*
X454255Y443881D01*
X454242Y443890D01*
X454225Y443897D01*
X454202Y443907D01*
X454179Y443917D01*
X454153Y443930D01*
X454120Y443939D01*
X454084Y443949D01*
X454048Y443959D01*
X454006Y443969D01*
X453960Y443976D01*
X453914Y443982D01*
X453861Y443985D01*
X453743D01*
X453710Y443982D01*
X453674Y443979D01*
X453635Y443976D01*
X453592Y443972D01*
X453504Y443959D01*
X453412Y443939D01*
X453369Y443926D01*
X453330Y443913D01*
X453291Y443897D01*
X453258Y443877D01*
X453255Y443874D01*
X453241Y443864D01*
X453225Y443848D01*
X453205Y443825D01*
X453182Y443795D01*
X453166Y443762D01*
X453153Y443723D01*
X453150Y443680D01*
Y443677D01*
Y443664D01*
X453156Y443644D01*
X453163Y443621D01*
X453172Y443592D01*
X453189Y443566D01*
X453212Y443536D01*
X453245Y443507D01*
X453248D01*
X453251Y443503D01*
X453261Y443497D01*
X453277Y443490D01*
X453297Y443480D01*
X453327Y443467D01*
X453363Y443454D01*
X453405Y443438D01*
X453461Y443418D01*
X453523Y443398D01*
X453596Y443375D01*
X453681Y443352D01*
X453776Y443326D01*
X453832Y443310D01*
X453888Y443297D01*
X453946Y443284D01*
X454009Y443267D01*
X454078Y443251D01*
X454147Y443234D01*
X454150D01*
X454156Y443231D01*
X454166D01*
X454179Y443228D01*
X454199Y443221D01*
X454219Y443218D01*
X454271Y443205D01*
X454337Y443185D01*
X454409Y443165D01*
X454488Y443143D01*
X454573Y443116D01*
X454662Y443087D01*
X454750Y443054D01*
X454842Y443018D01*
X454927Y442978D01*
X455013Y442939D01*
X455091Y442897D01*
X455163Y442851D01*
X455226Y442805D01*
X455229Y442801D01*
X455239Y442792D01*
X455255Y442778D01*
X455272Y442759D01*
X455295Y442729D01*
X455321Y442700D01*
X455347Y442660D01*
X455377Y442618D01*
X455406Y442568D01*
X455432Y442516D01*
X455459Y442457D01*
X455482Y442391D01*
X455501Y442322D01*
X455514Y442250D01*
X455524Y442172D01*
X455527Y442086D01*
Y442080D01*
Y442063D01*
X455524Y442037D01*
X455521Y442001D01*
X455514Y441958D01*
X455505Y441909D01*
X455491Y441853D01*
X455475Y441791D01*
X455452Y441725D01*
X455426Y441657D01*
X455390Y441584D01*
X455350Y441512D01*
X455301Y441437D01*
X455245Y441365D01*
X455183Y441293D01*
X455108Y441224D01*
X455104Y441220D01*
X455088Y441207D01*
X455065Y441191D01*
X455029Y441168D01*
X454986Y441142D01*
X454930Y441109D01*
X454868Y441076D01*
X454796Y441043D01*
X454714Y441011D01*
X454619Y440978D01*
X454517Y440948D01*
X454409Y440919D01*
X454288Y440896D01*
X454156Y440879D01*
X454015Y440866D01*
X453868Y440863D01*
X453819D01*
X453796Y440866D01*
X453743D01*
X453681Y440873D01*
X453609Y440879D01*
X453527Y440889D01*
X453438Y440902D01*
X453346Y440915D01*
X453251Y440935D01*
X453153Y440961D01*
X453054Y440991D01*
X452956Y441024D01*
X452861Y441066D01*
X452769Y441112D01*
X452684Y441165D01*
X452680Y441168D01*
X452664Y441178D01*
X452644Y441197D01*
X452615Y441220D01*
X452579Y441250D01*
X452539Y441286D01*
X452497Y441332D01*
X452451Y441381D01*
X452402Y441437D01*
X452356Y441496D01*
X452307Y441565D01*
X452261Y441637D01*
X452218Y441716D01*
X452179Y441801D01*
X452146Y441889D01*
X452116Y441985D01*
X453087Y442132D01*
Y442129D01*
X453090Y442119D01*
X453094Y442106D01*
X453100Y442086D01*
X453107Y442063D01*
X453117Y442034D01*
X453143Y441971D01*
X453176Y441903D01*
X453218Y441830D01*
X453271Y441765D01*
X453336Y441703D01*
X453340D01*
X453346Y441696D01*
X453356Y441689D01*
X453372Y441680D01*
X453392Y441670D01*
X453415Y441657D01*
X453441Y441643D01*
X453474Y441630D01*
X453510Y441617D01*
X453550Y441604D01*
X453592Y441591D01*
X453642Y441581D01*
X453691Y441571D01*
X453747Y441565D01*
X453805Y441562D01*
X453868Y441558D01*
X453904D01*
X453930Y441562D01*
X453960D01*
X453996Y441565D01*
X454035Y441571D01*
X454078Y441575D01*
X454170Y441591D01*
X454265Y441617D01*
X454353Y441650D01*
X454396Y441673D01*
X454432Y441696D01*
X454438Y441699D01*
X454452Y441712D01*
X454471Y441735D01*
X454498Y441765D01*
X454521Y441804D01*
X454540Y441847D01*
X454553Y441899D01*
X454560Y441955D01*
Y441958D01*
Y441975D01*
X454557Y441994D01*
X454550Y442017D01*
X454543Y442047D01*
X454530Y442076D01*
X454514Y442106D01*
X454491Y442135D01*
X454488Y442139D01*
X454475Y442149D01*
X454455Y442162D01*
X454422Y442178D01*
X454380Y442198D01*
X454353Y442208D01*
X454324Y442217D01*
X454291Y442231D01*
X454252Y442240D01*
X454212Y442254D01*
X454166Y442263D01*
X454163D01*
X454153Y442267D01*
X454137Y442270D01*
X454117Y442277D01*
X454088Y442280D01*
X454055Y442290D01*
X454019Y442296D01*
X453979Y442306D01*
X453933Y442319D01*
X453884Y442329D01*
X453779Y442355D01*
X453664Y442388D01*
X453543Y442421D01*
X453415Y442454D01*
X453291Y442493D01*
X453166Y442532D01*
X453048Y442572D01*
X452936Y442614D01*
X452884Y442634D01*
X452838Y442654D01*
X452792Y442673D01*
X452753Y442696D01*
X452716Y442716D01*
X452684Y442736D01*
X452680Y442739D01*
X452664Y442749D01*
X452644Y442765D01*
X452615Y442792D01*
X452582Y442821D01*
X452546Y442857D01*
X452507Y442900D01*
X452467Y442949D01*
X452428Y443005D01*
X452388Y443067D01*
X452353Y443133D01*
X452320Y443208D01*
X452290Y443287D01*
X452271Y443372D01*
X452257Y443464D01*
X452251Y443559D01*
Y443566D01*
Y443579D01*
X452254Y443605D01*
X452257Y443638D01*
X452264Y443677D01*
X452271Y443726D01*
X452284Y443779D01*
X452297Y443835D01*
X452316Y443897D01*
X452343Y443962D01*
X452372Y444028D01*
X452408Y444094D01*
X452451Y444163D01*
X452500Y444228D01*
X452559Y444294D01*
X452625Y444356D01*
X452628Y444359D01*
X452641Y444369D01*
X452664Y444386D01*
X452697Y444409D01*
X452736Y444431D01*
X452785Y444458D01*
X452844Y444487D01*
X452910Y444520D01*
X452989Y444550D01*
X453074Y444579D01*
X453169Y444605D01*
X453274Y444632D01*
X453389Y444651D01*
X453514Y444668D01*
X453645Y444677D01*
X453789Y444681D01*
X453861D01*
X453910Y444677D01*
D02*
G37*
G36*
X445733Y445983D02*
X445802D01*
X445878Y445980D01*
X445963Y445976D01*
X446052Y445970D01*
X446147Y445963D01*
X446245Y445953D01*
X446439Y445927D01*
X446534Y445914D01*
X446622Y445894D01*
X446704Y445871D01*
X446776Y445849D01*
X446780D01*
X446793Y445842D01*
X446812Y445835D01*
X446839Y445822D01*
X446868Y445806D01*
X446904Y445786D01*
X446944Y445763D01*
X446986Y445737D01*
X447032Y445707D01*
X447082Y445671D01*
X447131Y445632D01*
X447180Y445589D01*
X447229Y445540D01*
X447275Y445488D01*
X447321Y445429D01*
X447364Y445366D01*
X447367Y445363D01*
X447373Y445350D01*
X447383Y445330D01*
X447400Y445304D01*
X447416Y445271D01*
X447433Y445232D01*
X447452Y445189D01*
X447475Y445137D01*
X447495Y445081D01*
X447514Y445019D01*
X447531Y444953D01*
X447550Y444884D01*
X447564Y444812D01*
X447574Y444733D01*
X447580Y444655D01*
X447583Y444573D01*
Y444566D01*
Y444546D01*
X447580Y444517D01*
X447577Y444477D01*
X447574Y444428D01*
X447567Y444373D01*
X447554Y444310D01*
X447541Y444241D01*
X447524Y444169D01*
X447501Y444094D01*
X447475Y444015D01*
X447442Y443936D01*
X447403Y443857D01*
X447360Y443782D01*
X447308Y443707D01*
X447249Y443635D01*
X447246Y443631D01*
X447232Y443618D01*
X447213Y443598D01*
X447187Y443575D01*
X447150Y443546D01*
X447108Y443513D01*
X447058Y443477D01*
X447000Y443438D01*
X446934Y443398D01*
X446859Y443359D01*
X446776Y443320D01*
X446688Y443280D01*
X446590Y443247D01*
X446485Y443215D01*
X446373Y443188D01*
X446252Y443169D01*
X446255Y443165D01*
X446265Y443159D01*
X446284Y443149D01*
X446307Y443136D01*
X446334Y443116D01*
X446367Y443097D01*
X446406Y443070D01*
X446445Y443044D01*
X446530Y442982D01*
X446622Y442910D01*
X446711Y442831D01*
X446796Y442746D01*
X446799Y442742D01*
X446806Y442736D01*
X446819Y442719D01*
X446836Y442700D01*
X446859Y442673D01*
X446885Y442641D01*
X446914Y442601D01*
X446950Y442559D01*
X446990Y442503D01*
X447032Y442444D01*
X447082Y442378D01*
X447134Y442303D01*
X447187Y442221D01*
X447249Y442129D01*
X447311Y442034D01*
X447377Y441926D01*
X447993Y440945D01*
X446776D01*
X446038Y442040D01*
Y442044D01*
X446035Y442047D01*
X446022Y442067D01*
X446002Y442096D01*
X445976Y442135D01*
X445943Y442181D01*
X445907Y442234D01*
X445868Y442293D01*
X445825Y442352D01*
X445737Y442480D01*
X445691Y442542D01*
X445648Y442601D01*
X445606Y442657D01*
X445569Y442706D01*
X445533Y442749D01*
X445504Y442782D01*
Y442785D01*
X445497Y442788D01*
X445478Y442808D01*
X445448Y442834D01*
X445412Y442867D01*
X445366Y442900D01*
X445314Y442936D01*
X445255Y442965D01*
X445195Y442992D01*
X445192D01*
X445189Y442995D01*
X445179Y442998D01*
X445166Y443001D01*
X445146Y443005D01*
X445127Y443008D01*
X445100Y443015D01*
X445071Y443021D01*
X445038Y443024D01*
X444999Y443031D01*
X444959Y443034D01*
X444913Y443038D01*
X444861Y443041D01*
X444805Y443044D01*
X444746Y443047D01*
X444477D01*
Y440945D01*
X443460D01*
Y445986D01*
X445704D01*
X445733Y445983D01*
D02*
G37*
G36*
X490710Y465786D02*
X487342Y463723D01*
X490710D01*
Y462775D01*
X485669D01*
Y463798D01*
X488955Y465832D01*
X485669D01*
Y466776D01*
X490710D01*
Y465786D01*
D02*
G37*
G36*
Y459842D02*
Y459839D01*
Y459836D01*
Y459826D01*
Y459816D01*
Y459783D01*
Y459737D01*
X490707Y459685D01*
Y459626D01*
X490704Y459557D01*
X490697Y459485D01*
X490694Y459410D01*
X490687Y459331D01*
X490671Y459170D01*
X490658Y459095D01*
X490648Y459019D01*
X490632Y458947D01*
X490615Y458881D01*
Y458875D01*
X490609Y458862D01*
X490602Y458839D01*
X490589Y458806D01*
X490576Y458770D01*
X490556Y458724D01*
X490533Y458675D01*
X490507Y458619D01*
X490477Y458563D01*
X490445Y458501D01*
X490405Y458439D01*
X490363Y458376D01*
X490317Y458311D01*
X490264Y458245D01*
X490208Y458183D01*
X490149Y458124D01*
X490146Y458120D01*
X490133Y458111D01*
X490117Y458094D01*
X490090Y458071D01*
X490058Y458045D01*
X490018Y458015D01*
X489972Y457979D01*
X489923Y457943D01*
X489864Y457907D01*
X489802Y457865D01*
X489736Y457825D01*
X489664Y457786D01*
X489588Y457747D01*
X489506Y457711D01*
X489421Y457674D01*
X489333Y457642D01*
X489326Y457638D01*
X489310Y457635D01*
X489284Y457625D01*
X489247Y457615D01*
X489198Y457602D01*
X489143Y457589D01*
X489077Y457573D01*
X489005Y457556D01*
X488919Y457543D01*
X488831Y457527D01*
X488732Y457514D01*
X488627Y457501D01*
X488516Y457491D01*
X488398Y457481D01*
X488273Y457478D01*
X488142Y457474D01*
X488083D01*
X488037Y457478D01*
X487985D01*
X487922Y457481D01*
X487850Y457487D01*
X487775Y457494D01*
X487693Y457501D01*
X487604Y457510D01*
X487427Y457540D01*
X487243Y457576D01*
X487151Y457602D01*
X487066Y457628D01*
X487060Y457632D01*
X487043Y457638D01*
X487014Y457648D01*
X486974Y457664D01*
X486929Y457684D01*
X486876Y457707D01*
X486814Y457737D01*
X486751Y457766D01*
X486679Y457802D01*
X486607Y457845D01*
X486535Y457888D01*
X486459Y457937D01*
X486387Y457989D01*
X486315Y458045D01*
X486243Y458104D01*
X486177Y458170D01*
X486174Y458173D01*
X486167Y458183D01*
X486151Y458196D01*
X486135Y458219D01*
X486112Y458245D01*
X486089Y458278D01*
X486059Y458314D01*
X486030Y458360D01*
X485997Y458406D01*
X485964Y458462D01*
X485931Y458521D01*
X485898Y458583D01*
X485866Y458652D01*
X485833Y458724D01*
X485803Y458803D01*
X485774Y458885D01*
Y458888D01*
X485771Y458901D01*
X485764Y458921D01*
X485757Y458947D01*
X485751Y458980D01*
X485741Y459023D01*
X485731Y459068D01*
X485721Y459124D01*
X485712Y459187D01*
X485702Y459252D01*
X485692Y459328D01*
X485685Y459406D01*
X485679Y459495D01*
X485672Y459587D01*
X485669Y459685D01*
Y459787D01*
Y461702D01*
X490710D01*
Y459842D01*
D02*
G37*
G36*
X488283Y472441D02*
X488309D01*
X488339Y472438D01*
X488408Y472434D01*
X488490Y472428D01*
X488578Y472418D01*
X488677Y472402D01*
X488785Y472385D01*
X488897Y472362D01*
X489011Y472336D01*
X489129Y472303D01*
X489251Y472267D01*
X489369Y472221D01*
X489490Y472172D01*
X489605Y472113D01*
X489608D01*
X489611Y472110D01*
X489631Y472097D01*
X489664Y472077D01*
X489707Y472051D01*
X489756Y472018D01*
X489815Y471975D01*
X489881Y471926D01*
X489953Y471867D01*
X490028Y471805D01*
X490103Y471733D01*
X490182Y471651D01*
X490261Y471565D01*
X490336Y471470D01*
X490412Y471368D01*
X490481Y471260D01*
X490546Y471145D01*
X490550Y471139D01*
X490556Y471122D01*
X490569Y471096D01*
X490586Y471057D01*
X490605Y471011D01*
X490625Y470955D01*
X490648Y470886D01*
X490671Y470811D01*
X490694Y470729D01*
X490717Y470637D01*
X490736Y470539D01*
X490756Y470430D01*
X490773Y470319D01*
X490786Y470197D01*
X490792Y470070D01*
X490796Y469938D01*
Y469935D01*
Y469929D01*
Y469915D01*
Y469896D01*
Y469876D01*
X490792Y469850D01*
Y469817D01*
X490789Y469784D01*
X490786Y469745D01*
X490782Y469705D01*
X490776Y469614D01*
X490763Y469512D01*
X490746Y469404D01*
X490727Y469289D01*
X490700Y469168D01*
X490668Y469046D01*
X490628Y468925D01*
X490586Y468803D01*
X490533Y468685D01*
X490471Y468577D01*
X490402Y468472D01*
X490399Y468466D01*
X490382Y468449D01*
X490363Y468423D01*
X490330Y468387D01*
X490290Y468344D01*
X490241Y468298D01*
X490182Y468246D01*
X490120Y468190D01*
X490044Y468131D01*
X489962Y468075D01*
X489874Y468016D01*
X489776Y467964D01*
X489671Y467911D01*
X489559Y467865D01*
X489441Y467826D01*
X489313Y467793D01*
X489126Y468803D01*
X489129D01*
X489143Y468810D01*
X489162Y468817D01*
X489188Y468826D01*
X489218Y468836D01*
X489254Y468853D01*
X489293Y468872D01*
X489339Y468895D01*
X489385Y468922D01*
X489431Y468948D01*
X489480Y468984D01*
X489530Y469020D01*
X489575Y469059D01*
X489625Y469105D01*
X489667Y469154D01*
X489710Y469207D01*
X489713Y469210D01*
X489720Y469220D01*
X489730Y469236D01*
X489743Y469259D01*
X489759Y469289D01*
X489779Y469322D01*
X489798Y469361D01*
X489818Y469407D01*
X489838Y469459D01*
X489857Y469515D01*
X489877Y469574D01*
X489894Y469640D01*
X489907Y469709D01*
X489917Y469781D01*
X489923Y469856D01*
X489926Y469938D01*
Y469942D01*
Y469945D01*
Y469955D01*
Y469968D01*
X489923Y470004D01*
X489920Y470050D01*
X489913Y470106D01*
X489903Y470171D01*
X489890Y470243D01*
X489874Y470322D01*
X489851Y470404D01*
X489825Y470493D01*
X489789Y470581D01*
X489749Y470670D01*
X489700Y470758D01*
X489644Y470844D01*
X489579Y470926D01*
X489503Y471001D01*
X489500Y471004D01*
X489484Y471017D01*
X489457Y471037D01*
X489425Y471063D01*
X489379Y471093D01*
X489326Y471126D01*
X489260Y471162D01*
X489188Y471198D01*
X489103Y471234D01*
X489011Y471270D01*
X488906Y471303D01*
X488795Y471332D01*
X488673Y471359D01*
X488539Y471378D01*
X488398Y471391D01*
X488247Y471395D01*
X488188D01*
X488162Y471391D01*
X488132D01*
X488099Y471388D01*
X488063Y471385D01*
X488024Y471382D01*
X487939Y471375D01*
X487844Y471362D01*
X487742Y471345D01*
X487634Y471322D01*
X487522Y471296D01*
X487411Y471263D01*
X487299Y471224D01*
X487191Y471181D01*
X487086Y471126D01*
X486987Y471063D01*
X486899Y470995D01*
X486896Y470991D01*
X486879Y470975D01*
X486856Y470952D01*
X486830Y470922D01*
X486794Y470883D01*
X486758Y470834D01*
X486719Y470778D01*
X486676Y470712D01*
X486633Y470644D01*
X486594Y470562D01*
X486558Y470476D01*
X486522Y470384D01*
X486495Y470286D01*
X486473Y470178D01*
X486459Y470066D01*
X486453Y469948D01*
Y469945D01*
Y469935D01*
Y469915D01*
X486456Y469892D01*
Y469863D01*
X486459Y469830D01*
X486463Y469791D01*
X486469Y469748D01*
X486476Y469702D01*
X486482Y469653D01*
X486505Y469545D01*
X486535Y469427D01*
X486578Y469309D01*
Y469305D01*
X486584Y469295D01*
X486591Y469276D01*
X486600Y469256D01*
X486614Y469227D01*
X486627Y469194D01*
X486643Y469158D01*
X486663Y469118D01*
X486705Y469033D01*
X486758Y468938D01*
X486817Y468846D01*
X486882Y468754D01*
X487522D01*
Y469922D01*
X488372D01*
Y467728D01*
X486361D01*
X486358Y467731D01*
X486348Y467741D01*
X486332Y467760D01*
X486308Y467787D01*
X486282Y467819D01*
X486249Y467859D01*
X486217Y467908D01*
X486177Y467964D01*
X486135Y468026D01*
X486092Y468095D01*
X486046Y468170D01*
X486000Y468252D01*
X485954Y468344D01*
X485908Y468439D01*
X485862Y468544D01*
X485816Y468656D01*
Y468659D01*
X485813Y468662D01*
X485810Y468672D01*
X485807Y468682D01*
X485794Y468715D01*
X485780Y468761D01*
X485764Y468817D01*
X485744Y468879D01*
X485721Y468954D01*
X485702Y469036D01*
X485679Y469125D01*
X485656Y469223D01*
X485636Y469322D01*
X485620Y469430D01*
X485607Y469538D01*
X485594Y469653D01*
X485587Y469768D01*
X485584Y469882D01*
Y469886D01*
Y469892D01*
Y469902D01*
Y469919D01*
Y469938D01*
X485587Y469958D01*
Y469987D01*
X485590Y470017D01*
X485594Y470086D01*
X485600Y470165D01*
X485610Y470253D01*
X485626Y470352D01*
X485643Y470457D01*
X485666Y470568D01*
X485692Y470683D01*
X485725Y470801D01*
X485761Y470919D01*
X485807Y471034D01*
X485856Y471152D01*
X485915Y471263D01*
X485918Y471270D01*
X485931Y471290D01*
X485951Y471319D01*
X485977Y471359D01*
X486010Y471408D01*
X486053Y471463D01*
X486102Y471526D01*
X486158Y471595D01*
X486220Y471664D01*
X486292Y471739D01*
X486371Y471811D01*
X486456Y471883D01*
X486548Y471955D01*
X486646Y472024D01*
X486751Y472090D01*
X486863Y472149D01*
X486866D01*
X486869Y472152D01*
X486879Y472156D01*
X486892Y472162D01*
X486925Y472175D01*
X486971Y472195D01*
X487027Y472218D01*
X487096Y472241D01*
X487175Y472270D01*
X487263Y472297D01*
X487358Y472323D01*
X487463Y472349D01*
X487575Y472375D01*
X487689Y472398D01*
X487814Y472418D01*
X487942Y472431D01*
X488073Y472441D01*
X488208Y472444D01*
X488260D01*
X488283Y472441D01*
D02*
G37*
G36*
X526143Y465369D02*
Y465366D01*
Y465363D01*
Y465353D01*
Y465343D01*
Y465310D01*
Y465264D01*
X526140Y465212D01*
Y465153D01*
X526137Y465084D01*
X526130Y465012D01*
X526127Y464936D01*
X526120Y464858D01*
X526104Y464697D01*
X526091Y464621D01*
X526081Y464546D01*
X526065Y464474D01*
X526048Y464408D01*
Y464402D01*
X526042Y464389D01*
X526035Y464366D01*
X526022Y464333D01*
X526009Y464297D01*
X525989Y464251D01*
X525966Y464202D01*
X525940Y464146D01*
X525911Y464090D01*
X525878Y464028D01*
X525838Y463965D01*
X525796Y463903D01*
X525750Y463837D01*
X525697Y463772D01*
X525641Y463710D01*
X525583Y463651D01*
X525579Y463647D01*
X525566Y463637D01*
X525550Y463621D01*
X525524Y463598D01*
X525491Y463572D01*
X525451Y463542D01*
X525405Y463506D01*
X525356Y463470D01*
X525297Y463434D01*
X525235Y463391D01*
X525169Y463352D01*
X525097Y463313D01*
X525022Y463273D01*
X524940Y463237D01*
X524854Y463201D01*
X524766Y463168D01*
X524759Y463165D01*
X524743Y463162D01*
X524717Y463152D01*
X524681Y463142D01*
X524631Y463129D01*
X524576Y463116D01*
X524510Y463099D01*
X524438Y463083D01*
X524353Y463070D01*
X524264Y463054D01*
X524165Y463040D01*
X524061Y463027D01*
X523949Y463018D01*
X523831Y463008D01*
X523706Y463004D01*
X523575Y463001D01*
X523516D01*
X523470Y463004D01*
X523418D01*
X523355Y463008D01*
X523283Y463014D01*
X523208Y463021D01*
X523126Y463027D01*
X523037Y463037D01*
X522860Y463067D01*
X522676Y463103D01*
X522585Y463129D01*
X522499Y463155D01*
X522493Y463159D01*
X522476Y463165D01*
X522447Y463175D01*
X522407Y463191D01*
X522362Y463211D01*
X522309Y463234D01*
X522247Y463264D01*
X522184Y463293D01*
X522112Y463329D01*
X522040Y463372D01*
X521968Y463414D01*
X521892Y463464D01*
X521820Y463516D01*
X521748Y463572D01*
X521676Y463631D01*
X521610Y463696D01*
X521607Y463700D01*
X521601Y463710D01*
X521584Y463723D01*
X521568Y463746D01*
X521545Y463772D01*
X521522Y463805D01*
X521492Y463841D01*
X521463Y463887D01*
X521430Y463933D01*
X521397Y463988D01*
X521364Y464047D01*
X521332Y464110D01*
X521299Y464179D01*
X521266Y464251D01*
X521237Y464329D01*
X521207Y464411D01*
Y464415D01*
X521204Y464428D01*
X521197Y464448D01*
X521191Y464474D01*
X521184Y464507D01*
X521174Y464549D01*
X521164Y464595D01*
X521154Y464651D01*
X521145Y464713D01*
X521135Y464779D01*
X521125Y464854D01*
X521118Y464933D01*
X521112Y465022D01*
X521105Y465113D01*
X521102Y465212D01*
Y465313D01*
Y467229D01*
X526143D01*
Y465369D01*
D02*
G37*
G36*
X449984Y444677D02*
X450007D01*
X450034Y444674D01*
X450063Y444671D01*
X450132Y444664D01*
X450211Y444651D01*
X450299Y444635D01*
X450394Y444612D01*
X450496Y444586D01*
X450601Y444550D01*
X450709Y444504D01*
X450814Y444451D01*
X450922Y444392D01*
X451024Y444317D01*
X451123Y444235D01*
X451214Y444140D01*
X451221Y444133D01*
X451234Y444113D01*
X451257Y444084D01*
X451287Y444038D01*
X451323Y443982D01*
X451362Y443910D01*
X451404Y443828D01*
X451447Y443733D01*
X451490Y443621D01*
X451513Y443562D01*
X451533Y443500D01*
X451552Y443434D01*
X451572Y443365D01*
X451588Y443293D01*
X451605Y443218D01*
X451621Y443136D01*
X451634Y443054D01*
X451644Y442969D01*
X451654Y442880D01*
X451660Y442788D01*
X451664Y442693D01*
X451667Y442591D01*
Y442490D01*
X449246D01*
Y442486D01*
Y442470D01*
X449250Y442447D01*
X449253Y442418D01*
X449256Y442381D01*
X449263Y442342D01*
X449269Y442296D01*
X449279Y442244D01*
X449309Y442139D01*
X449325Y442083D01*
X449348Y442027D01*
X449374Y441971D01*
X449404Y441919D01*
X449440Y441867D01*
X449479Y441821D01*
X449482Y441817D01*
X449489Y441811D01*
X449502Y441798D01*
X449518Y441785D01*
X449542Y441765D01*
X449568Y441745D01*
X449597Y441725D01*
X449633Y441703D01*
X449673Y441680D01*
X449712Y441660D01*
X449758Y441640D01*
X449807Y441621D01*
X449860Y441607D01*
X449915Y441594D01*
X449974Y441588D01*
X450037Y441584D01*
X450060D01*
X450076Y441588D01*
X450093D01*
X450115Y441591D01*
X450168Y441601D01*
X450230Y441614D01*
X450293Y441637D01*
X450358Y441667D01*
X450417Y441706D01*
X450421D01*
X450424Y441712D01*
X450444Y441729D01*
X450470Y441758D01*
X450506Y441804D01*
X450526Y441830D01*
X450545Y441860D01*
X450565Y441893D01*
X450585Y441929D01*
X450601Y441968D01*
X450621Y442011D01*
X450637Y442057D01*
X450653Y442106D01*
X451615Y441945D01*
X451611Y441939D01*
X451605Y441922D01*
X451595Y441896D01*
X451578Y441857D01*
X451559Y441814D01*
X451536Y441762D01*
X451506Y441706D01*
X451473Y441647D01*
X451434Y441581D01*
X451391Y441516D01*
X451342Y441447D01*
X451290Y441381D01*
X451231Y441316D01*
X451168Y441253D01*
X451099Y441194D01*
X451027Y441138D01*
X451024Y441135D01*
X451008Y441125D01*
X450988Y441112D01*
X450955Y441096D01*
X450916Y441076D01*
X450870Y441050D01*
X450814Y441027D01*
X450752Y441001D01*
X450683Y440974D01*
X450607Y440951D01*
X450526Y440929D01*
X450437Y440906D01*
X450342Y440889D01*
X450243Y440876D01*
X450139Y440866D01*
X450027Y440863D01*
X449984D01*
X449961Y440866D01*
X449935D01*
X449906Y440869D01*
X449869Y440873D01*
X449833Y440876D01*
X449791Y440883D01*
X449702Y440896D01*
X449601Y440915D01*
X449492Y440942D01*
X449381Y440974D01*
X449263Y441014D01*
X449145Y441063D01*
X449030Y441125D01*
X448915Y441194D01*
X448807Y441279D01*
X448758Y441325D01*
X448708Y441375D01*
X448659Y441427D01*
X448617Y441483D01*
X448613Y441489D01*
X448600Y441506D01*
X448584Y441535D01*
X448561Y441571D01*
X448534Y441621D01*
X448502Y441680D01*
X448469Y441749D01*
X448436Y441827D01*
X448403Y441913D01*
X448371Y442011D01*
X448341Y442113D01*
X448312Y442224D01*
X448288Y442342D01*
X448272Y442470D01*
X448259Y442601D01*
X448256Y442742D01*
Y442746D01*
Y442752D01*
Y442765D01*
Y442782D01*
X448259Y442805D01*
Y442831D01*
X448262Y442860D01*
Y442893D01*
X448266Y442929D01*
X448269Y442969D01*
X448282Y443057D01*
X448295Y443156D01*
X448315Y443261D01*
X448341Y443372D01*
X448371Y443490D01*
X448410Y443608D01*
X448456Y443726D01*
X448508Y443844D01*
X448574Y443956D01*
X448646Y444064D01*
X448728Y444166D01*
X448735Y444172D01*
X448751Y444189D01*
X448777Y444215D01*
X448813Y444248D01*
X448859Y444284D01*
X448918Y444330D01*
X448984Y444376D01*
X449056Y444425D01*
X449138Y444471D01*
X449230Y444517D01*
X449328Y444563D01*
X449437Y444602D01*
X449548Y444635D01*
X449669Y444658D01*
X449797Y444674D01*
X449929Y444681D01*
X449965D01*
X449984Y444677D01*
D02*
G37*
G36*
X457824D02*
X457846D01*
X457873Y444674D01*
X457902Y444671D01*
X457971Y444664D01*
X458050Y444651D01*
X458138Y444635D01*
X458233Y444612D01*
X458335Y444586D01*
X458440Y444550D01*
X458548Y444504D01*
X458653Y444451D01*
X458762Y444392D01*
X458863Y444317D01*
X458962Y444235D01*
X459054Y444140D01*
X459060Y444133D01*
X459073Y444113D01*
X459096Y444084D01*
X459126Y444038D01*
X459162Y443982D01*
X459201Y443910D01*
X459244Y443828D01*
X459286Y443733D01*
X459329Y443621D01*
X459352Y443562D01*
X459372Y443500D01*
X459391Y443434D01*
X459411Y443365D01*
X459427Y443293D01*
X459444Y443218D01*
X459460Y443136D01*
X459473Y443054D01*
X459483Y442969D01*
X459493Y442880D01*
X459500Y442788D01*
X459503Y442693D01*
X459506Y442591D01*
Y442490D01*
X457086D01*
Y442486D01*
Y442470D01*
X457089Y442447D01*
X457092Y442418D01*
X457095Y442381D01*
X457102Y442342D01*
X457108Y442296D01*
X457118Y442244D01*
X457148Y442139D01*
X457164Y442083D01*
X457187Y442027D01*
X457213Y441971D01*
X457243Y441919D01*
X457279Y441867D01*
X457318Y441821D01*
X457322Y441817D01*
X457328Y441811D01*
X457341Y441798D01*
X457358Y441785D01*
X457381Y441765D01*
X457407Y441745D01*
X457437Y441725D01*
X457473Y441703D01*
X457512Y441680D01*
X457551Y441660D01*
X457597Y441640D01*
X457646Y441621D01*
X457699Y441607D01*
X457755Y441594D01*
X457814Y441588D01*
X457876Y441584D01*
X457899D01*
X457915Y441588D01*
X457932D01*
X457955Y441591D01*
X458007Y441601D01*
X458070Y441614D01*
X458132Y441637D01*
X458197Y441667D01*
X458256Y441706D01*
X458260D01*
X458263Y441712D01*
X458283Y441729D01*
X458309Y441758D01*
X458345Y441804D01*
X458365Y441830D01*
X458384Y441860D01*
X458404Y441893D01*
X458424Y441929D01*
X458440Y441968D01*
X458460Y442011D01*
X458476Y442057D01*
X458493Y442106D01*
X459454Y441945D01*
X459450Y441939D01*
X459444Y441922D01*
X459434Y441896D01*
X459418Y441857D01*
X459398Y441814D01*
X459375Y441762D01*
X459345Y441706D01*
X459313Y441647D01*
X459273Y441581D01*
X459231Y441516D01*
X459181Y441447D01*
X459129Y441381D01*
X459070Y441316D01*
X459008Y441253D01*
X458939Y441194D01*
X458867Y441138D01*
X458863Y441135D01*
X458847Y441125D01*
X458827Y441112D01*
X458794Y441096D01*
X458755Y441076D01*
X458709Y441050D01*
X458653Y441027D01*
X458591Y441001D01*
X458522Y440974D01*
X458447Y440951D01*
X458365Y440929D01*
X458276Y440906D01*
X458181Y440889D01*
X458083Y440876D01*
X457978Y440866D01*
X457866Y440863D01*
X457824D01*
X457800Y440866D01*
X457774D01*
X457745Y440869D01*
X457709Y440873D01*
X457673Y440876D01*
X457630Y440883D01*
X457541Y440896D01*
X457440Y440915D01*
X457332Y440942D01*
X457220Y440974D01*
X457102Y441014D01*
X456984Y441063D01*
X456869Y441125D01*
X456754Y441194D01*
X456646Y441279D01*
X456597Y441325D01*
X456548Y441375D01*
X456498Y441427D01*
X456456Y441483D01*
X456453Y441489D01*
X456439Y441506D01*
X456423Y441535D01*
X456400Y441571D01*
X456374Y441621D01*
X456341Y441680D01*
X456308Y441749D01*
X456275Y441827D01*
X456243Y441913D01*
X456210Y442011D01*
X456180Y442113D01*
X456151Y442224D01*
X456128Y442342D01*
X456111Y442470D01*
X456098Y442601D01*
X456095Y442742D01*
Y442746D01*
Y442752D01*
Y442765D01*
Y442782D01*
X456098Y442805D01*
Y442831D01*
X456102Y442860D01*
Y442893D01*
X456105Y442929D01*
X456108Y442969D01*
X456121Y443057D01*
X456134Y443156D01*
X456154Y443261D01*
X456180Y443372D01*
X456210Y443490D01*
X456249Y443608D01*
X456295Y443726D01*
X456348Y443844D01*
X456413Y443956D01*
X456485Y444064D01*
X456567Y444166D01*
X456574Y444172D01*
X456590Y444189D01*
X456616Y444215D01*
X456652Y444248D01*
X456699Y444284D01*
X456757Y444330D01*
X456823Y444376D01*
X456895Y444425D01*
X456977Y444471D01*
X457069Y444517D01*
X457167Y444563D01*
X457276Y444602D01*
X457387Y444635D01*
X457509Y444658D01*
X457636Y444674D01*
X457768Y444681D01*
X457804D01*
X457824Y444677D01*
D02*
G37*
G36*
X526143Y471339D02*
X522411Y470063D01*
X526143Y468826D01*
Y467747D01*
X521102Y469555D01*
Y470640D01*
X526143Y472441D01*
Y471339D01*
D02*
G37*
G36*
X424660Y402604D02*
X424686D01*
X424716Y402600D01*
X424752Y402597D01*
X424788Y402594D01*
X424831Y402591D01*
X424922Y402577D01*
X425021Y402561D01*
X425132Y402538D01*
X425250Y402509D01*
X425372Y402476D01*
X425496Y402430D01*
X425621Y402377D01*
X425746Y402315D01*
X425870Y402243D01*
X425988Y402158D01*
X426100Y402063D01*
X426103Y402059D01*
X426116Y402046D01*
X426133Y402030D01*
X426156Y402003D01*
X426185Y401967D01*
X426218Y401928D01*
X426254Y401879D01*
X426293Y401823D01*
X426336Y401761D01*
X426379Y401692D01*
X426421Y401616D01*
X426464Y401531D01*
X426503Y401442D01*
X426543Y401344D01*
X426582Y401242D01*
X426615Y401131D01*
X425608Y400891D01*
Y400895D01*
X425605Y400908D01*
X425598Y400931D01*
X425588Y400957D01*
X425578Y400990D01*
X425565Y401029D01*
X425549Y401072D01*
X425529Y401118D01*
X425506Y401167D01*
X425477Y401216D01*
X425447Y401269D01*
X425414Y401318D01*
X425375Y401370D01*
X425332Y401420D01*
X425286Y401469D01*
X425234Y401511D01*
X425231Y401515D01*
X425221Y401521D01*
X425205Y401531D01*
X425185Y401547D01*
X425155Y401564D01*
X425122Y401584D01*
X425086Y401603D01*
X425044Y401626D01*
X424995Y401646D01*
X424942Y401666D01*
X424886Y401685D01*
X424824Y401702D01*
X424758Y401718D01*
X424693Y401728D01*
X424621Y401734D01*
X424545Y401738D01*
X424519D01*
X424493Y401734D01*
X424453Y401731D01*
X424404Y401725D01*
X424348Y401718D01*
X424289Y401705D01*
X424221Y401688D01*
X424152Y401666D01*
X424076Y401639D01*
X424001Y401607D01*
X423925Y401567D01*
X423847Y401521D01*
X423774Y401469D01*
X423702Y401406D01*
X423633Y401334D01*
X423630Y401331D01*
X423617Y401315D01*
X423601Y401292D01*
X423578Y401259D01*
X423551Y401213D01*
X423522Y401160D01*
X423492Y401095D01*
X423459Y401023D01*
X423427Y400937D01*
X423397Y400839D01*
X423368Y400734D01*
X423341Y400616D01*
X423318Y400488D01*
X423302Y400347D01*
X423289Y400196D01*
X423286Y400032D01*
Y400029D01*
Y400022D01*
Y400009D01*
Y399990D01*
Y399967D01*
X423289Y399940D01*
Y399911D01*
X423292Y399875D01*
Y399839D01*
X423295Y399799D01*
X423305Y399707D01*
X423315Y399609D01*
X423328Y399504D01*
X423348Y399393D01*
X423371Y399278D01*
X423397Y399163D01*
X423430Y399051D01*
X423469Y398943D01*
X423515Y398845D01*
X423571Y398750D01*
X423630Y398668D01*
X423633Y398664D01*
X423646Y398651D01*
X423666Y398632D01*
X423692Y398605D01*
X423729Y398576D01*
X423768Y398540D01*
X423817Y398504D01*
X423873Y398468D01*
X423932Y398428D01*
X424001Y398392D01*
X424073Y398359D01*
X424155Y398326D01*
X424237Y398300D01*
X424329Y398281D01*
X424424Y398268D01*
X424525Y398264D01*
X424542D01*
X424565Y398268D01*
X424594D01*
X424627Y398271D01*
X424670Y398277D01*
X424716Y398287D01*
X424765Y398297D01*
X424817Y398310D01*
X424873Y398326D01*
X424929Y398346D01*
X424988Y398373D01*
X425047Y398402D01*
X425106Y398435D01*
X425165Y398474D01*
X425221Y398520D01*
X425224Y398523D01*
X425234Y398533D01*
X425250Y398546D01*
X425270Y398569D01*
X425293Y398599D01*
X425323Y398632D01*
X425352Y398671D01*
X425385Y398720D01*
X425418Y398773D01*
X425454Y398832D01*
X425490Y398901D01*
X425523Y398973D01*
X425559Y399051D01*
X425588Y399140D01*
X425618Y399232D01*
X425644Y399334D01*
X426631Y399019D01*
Y399015D01*
X426628Y399009D01*
X426625Y398999D01*
X426621Y398983D01*
X426615Y398963D01*
X426608Y398940D01*
X426599Y398914D01*
X426589Y398884D01*
X426562Y398815D01*
X426530Y398737D01*
X426494Y398651D01*
X426451Y398556D01*
X426402Y398458D01*
X426346Y398359D01*
X426284Y398258D01*
X426215Y398156D01*
X426139Y398058D01*
X426057Y397962D01*
X425969Y397874D01*
X425874Y397795D01*
X425867Y397792D01*
X425851Y397779D01*
X425821Y397759D01*
X425778Y397733D01*
X425726Y397703D01*
X425664Y397667D01*
X425592Y397631D01*
X425510Y397595D01*
X425418Y397559D01*
X425316Y397523D01*
X425205Y397487D01*
X425086Y397457D01*
X424959Y397431D01*
X424824Y397411D01*
X424683Y397398D01*
X424535Y397395D01*
X424489D01*
X424467Y397398D01*
X424437D01*
X424404Y397402D01*
X424368Y397405D01*
X424329Y397411D01*
X424283Y397415D01*
X424234Y397425D01*
X424184Y397431D01*
X424073Y397454D01*
X423951Y397480D01*
X423824Y397516D01*
X423692Y397562D01*
X423555Y397618D01*
X423414Y397684D01*
X423276Y397762D01*
X423207Y397808D01*
X423141Y397854D01*
X423072Y397907D01*
X423007Y397959D01*
X422945Y398018D01*
X422882Y398080D01*
X422879Y398084D01*
X422876Y398087D01*
X422866Y398097D01*
X422856Y398113D01*
X422840Y398130D01*
X422823Y398153D01*
X422803Y398176D01*
X422781Y398205D01*
X422758Y398238D01*
X422731Y398277D01*
X422705Y398317D01*
X422679Y398359D01*
X422649Y398409D01*
X422620Y398458D01*
X422590Y398514D01*
X422561Y398573D01*
X422528Y398635D01*
X422499Y398700D01*
X422469Y398769D01*
X422439Y398842D01*
X422413Y398917D01*
X422387Y398996D01*
X422361Y399078D01*
X422338Y399163D01*
X422295Y399340D01*
X422262Y399534D01*
X422253Y399635D01*
X422243Y399740D01*
X422239Y399845D01*
X422236Y399957D01*
Y399960D01*
Y399970D01*
Y399990D01*
Y400012D01*
X422239Y400042D01*
Y400078D01*
X422243Y400117D01*
X422246Y400163D01*
X422249Y400216D01*
X422256Y400272D01*
X422262Y400331D01*
X422269Y400393D01*
X422279Y400459D01*
X422292Y400527D01*
X422318Y400675D01*
X422351Y400829D01*
X422394Y400987D01*
X422446Y401151D01*
X422512Y401311D01*
X422584Y401472D01*
X422626Y401551D01*
X422672Y401629D01*
X422718Y401702D01*
X422771Y401774D01*
X422826Y401846D01*
X422886Y401912D01*
X422889Y401915D01*
X422892Y401918D01*
X422902Y401928D01*
X422915Y401941D01*
X422931Y401958D01*
X422954Y401977D01*
X422977Y401997D01*
X423004Y402020D01*
X423036Y402046D01*
X423069Y402072D01*
X423109Y402102D01*
X423148Y402131D01*
X423194Y402164D01*
X423240Y402194D01*
X423345Y402259D01*
X423463Y402325D01*
X423591Y402387D01*
X423732Y402446D01*
X423883Y402499D01*
X424047Y402541D01*
X424221Y402577D01*
X424312Y402591D01*
X424404Y402600D01*
X424499Y402604D01*
X424598Y402607D01*
X424637D01*
X424660Y402604D01*
D02*
G37*
G36*
X461310Y444595D02*
X461969D01*
Y443825D01*
X461310D01*
Y442355D01*
Y442349D01*
Y442336D01*
Y442313D01*
Y442283D01*
Y442250D01*
Y442208D01*
X461313Y442165D01*
Y442122D01*
Y442031D01*
X461317Y441985D01*
X461320Y441945D01*
Y441906D01*
X461323Y441876D01*
X461327Y441850D01*
X461330Y441830D01*
Y441827D01*
X461333Y441817D01*
X461340Y441804D01*
X461349Y441788D01*
X461359Y441768D01*
X461376Y441749D01*
X461392Y441729D01*
X461415Y441709D01*
X461418Y441706D01*
X461428Y441703D01*
X461441Y441696D01*
X461461Y441686D01*
X461484Y441676D01*
X461514Y441670D01*
X461546Y441667D01*
X461579Y441663D01*
X461605D01*
X461635Y441670D01*
X461678Y441676D01*
X461733Y441686D01*
X461799Y441703D01*
X461878Y441725D01*
X461966Y441755D01*
X462051Y441004D01*
X462048D01*
X462035Y440997D01*
X462019Y440991D01*
X461992Y440981D01*
X461960Y440971D01*
X461924Y440958D01*
X461878Y440948D01*
X461828Y440935D01*
X461776Y440922D01*
X461717Y440909D01*
X461655Y440896D01*
X461586Y440886D01*
X461517Y440876D01*
X461441Y440869D01*
X461366Y440866D01*
X461287Y440863D01*
X461244D01*
X461222Y440866D01*
X461192D01*
X461163Y440869D01*
X461130Y440873D01*
X461058Y440883D01*
X460979Y440899D01*
X460897Y440919D01*
X460815Y440948D01*
X460812D01*
X460805Y440951D01*
X460795Y440958D01*
X460782Y440965D01*
X460743Y440984D01*
X460697Y441011D01*
X460648Y441043D01*
X460595Y441083D01*
X460549Y441125D01*
X460506Y441175D01*
Y441178D01*
X460503Y441181D01*
X460490Y441201D01*
X460474Y441230D01*
X460454Y441276D01*
X460431Y441329D01*
X460408Y441394D01*
X460389Y441466D01*
X460372Y441552D01*
Y441555D01*
Y441562D01*
X460369Y441571D01*
X460365Y441588D01*
Y441607D01*
X460362Y441634D01*
X460359Y441663D01*
X460356Y441703D01*
X460352Y441745D01*
X460349Y441794D01*
X460346Y441850D01*
Y441913D01*
X460343Y441981D01*
X460339Y442057D01*
Y442142D01*
Y442234D01*
Y443825D01*
X459897D01*
Y444595D01*
X460339D01*
Y445324D01*
X461310Y445888D01*
Y444595D01*
D02*
G37*
%LPC*%
G36*
X525291Y466212D02*
X521951D01*
Y465451D01*
Y465445D01*
Y465432D01*
Y465412D01*
Y465382D01*
Y465346D01*
X521955Y465307D01*
Y465261D01*
X521958Y465215D01*
X521961Y465113D01*
X521971Y465012D01*
X521978Y464963D01*
X521981Y464917D01*
X521991Y464874D01*
X521997Y464835D01*
Y464831D01*
X522001Y464825D01*
X522004Y464812D01*
X522011Y464792D01*
X522017Y464772D01*
X522024Y464749D01*
X522047Y464690D01*
X522076Y464625D01*
X522112Y464559D01*
X522155Y464490D01*
X522207Y464425D01*
X522211Y464421D01*
X522214Y464418D01*
X522224Y464408D01*
X522237Y464398D01*
X522253Y464382D01*
X522273Y464369D01*
X522296Y464349D01*
X522322Y464329D01*
X522355Y464310D01*
X522391Y464287D01*
X522430Y464264D01*
X522473Y464244D01*
X522522Y464221D01*
X522575Y464198D01*
X522631Y464179D01*
X522693Y464159D01*
X522696D01*
X522709Y464156D01*
X522729Y464149D01*
X522755Y464143D01*
X522791Y464136D01*
X522831Y464126D01*
X522880Y464116D01*
X522935Y464107D01*
X522998Y464097D01*
X523070Y464087D01*
X523145Y464077D01*
X523228Y464070D01*
X523316Y464064D01*
X523411Y464057D01*
X523513Y464054D01*
X523713D01*
X523762Y464057D01*
X523821Y464060D01*
X523883Y464064D01*
X523949Y464067D01*
X524021Y464074D01*
X524097Y464080D01*
X524244Y464097D01*
X524316Y464110D01*
X524389Y464123D01*
X524454Y464139D01*
X524516Y464159D01*
X524520D01*
X524530Y464162D01*
X524546Y464169D01*
X524569Y464179D01*
X524595Y464188D01*
X524625Y464202D01*
X524657Y464215D01*
X524694Y464234D01*
X524772Y464274D01*
X524854Y464323D01*
X524930Y464382D01*
X525002Y464448D01*
X525005Y464451D01*
X525008Y464457D01*
X525018Y464467D01*
X525032Y464480D01*
X525045Y464500D01*
X525061Y464520D01*
X525081Y464546D01*
X525097Y464575D01*
X525117Y464608D01*
X525140Y464641D01*
X525179Y464723D01*
X525212Y464815D01*
X525241Y464917D01*
Y464920D01*
X525245Y464926D01*
Y464940D01*
X525248Y464959D01*
X525254Y464986D01*
X525258Y465018D01*
X525261Y465054D01*
X525268Y465100D01*
X525271Y465153D01*
X525274Y465215D01*
X525281Y465284D01*
X525284Y465359D01*
X525287Y465445D01*
Y465536D01*
X525291Y465641D01*
Y465753D01*
Y466212D01*
D02*
G37*
G36*
X489857Y460685D02*
X486518D01*
Y459925D01*
Y459918D01*
Y459905D01*
Y459885D01*
Y459856D01*
Y459820D01*
X486522Y459780D01*
Y459734D01*
X486525Y459688D01*
X486528Y459587D01*
X486538Y459485D01*
X486545Y459436D01*
X486548Y459390D01*
X486558Y459347D01*
X486564Y459308D01*
Y459305D01*
X486568Y459298D01*
X486571Y459285D01*
X486578Y459265D01*
X486584Y459245D01*
X486591Y459223D01*
X486614Y459164D01*
X486643Y459098D01*
X486679Y459032D01*
X486722Y458963D01*
X486774Y458898D01*
X486778Y458894D01*
X486781Y458891D01*
X486791Y458881D01*
X486804Y458872D01*
X486820Y458855D01*
X486840Y458842D01*
X486863Y458822D01*
X486889Y458803D01*
X486922Y458783D01*
X486958Y458760D01*
X486997Y458737D01*
X487040Y458717D01*
X487089Y458695D01*
X487142Y458672D01*
X487197Y458652D01*
X487260Y458632D01*
X487263D01*
X487276Y458629D01*
X487296Y458622D01*
X487322Y458616D01*
X487358Y458609D01*
X487397Y458599D01*
X487447Y458590D01*
X487502Y458580D01*
X487565Y458570D01*
X487637Y458560D01*
X487712Y458550D01*
X487794Y458544D01*
X487883Y458537D01*
X487978Y458531D01*
X488080Y458527D01*
X488280D01*
X488329Y458531D01*
X488388Y458534D01*
X488450Y458537D01*
X488516Y458540D01*
X488588Y458547D01*
X488664Y458553D01*
X488811Y458570D01*
X488883Y458583D01*
X488955Y458596D01*
X489021Y458612D01*
X489083Y458632D01*
X489087D01*
X489096Y458635D01*
X489113Y458642D01*
X489136Y458652D01*
X489162Y458662D01*
X489192Y458675D01*
X489224Y458688D01*
X489260Y458708D01*
X489339Y458747D01*
X489421Y458796D01*
X489497Y458855D01*
X489569Y458921D01*
X489572Y458924D01*
X489575Y458931D01*
X489585Y458941D01*
X489598Y458954D01*
X489611Y458973D01*
X489628Y458993D01*
X489648Y459019D01*
X489664Y459049D01*
X489684Y459082D01*
X489707Y459114D01*
X489746Y459196D01*
X489779Y459288D01*
X489808Y459390D01*
Y459393D01*
X489812Y459400D01*
Y459413D01*
X489815Y459433D01*
X489821Y459459D01*
X489825Y459491D01*
X489828Y459528D01*
X489834Y459574D01*
X489838Y459626D01*
X489841Y459688D01*
X489848Y459757D01*
X489851Y459833D01*
X489854Y459918D01*
Y460010D01*
X489857Y460115D01*
Y460226D01*
Y460685D01*
D02*
G37*
G36*
X418234Y441669D02*
X417552D01*
Y440239D01*
X418208D01*
X418257Y440242D01*
X418310D01*
X418372Y440245D01*
X418438Y440249D01*
X418572Y440259D01*
X418638Y440265D01*
X418704Y440272D01*
X418766Y440281D01*
X418822Y440291D01*
X418871Y440304D01*
X418913Y440317D01*
X418917D01*
X418923Y440321D01*
X418933Y440327D01*
X418946Y440334D01*
X418982Y440350D01*
X419028Y440377D01*
X419081Y440413D01*
X419133Y440455D01*
X419186Y440505D01*
X419232Y440563D01*
Y440567D01*
X419238Y440570D01*
X419241Y440580D01*
X419251Y440593D01*
X419258Y440609D01*
X419268Y440629D01*
X419291Y440678D01*
X419314Y440734D01*
X419330Y440803D01*
X419343Y440875D01*
X419350Y440957D01*
Y440960D01*
Y440970D01*
Y440983D01*
X419346Y441003D01*
Y441026D01*
X419340Y441052D01*
X419330Y441118D01*
X419310Y441190D01*
X419281Y441265D01*
X419261Y441301D01*
X419241Y441341D01*
X419215Y441377D01*
X419186Y441410D01*
X419182Y441413D01*
X419179Y441416D01*
X419169Y441426D01*
X419156Y441439D01*
X419140Y441452D01*
X419123Y441469D01*
X419074Y441505D01*
X419015Y441544D01*
X418946Y441580D01*
X418867Y441610D01*
X418779Y441633D01*
X418776D01*
X418769Y441636D01*
X418759D01*
X418743Y441639D01*
X418720Y441643D01*
X418690Y441646D01*
X418658Y441649D01*
X418618Y441652D01*
X418572Y441656D01*
X418520Y441659D01*
X418458D01*
X418392Y441662D01*
X418317Y441666D01*
X418234Y441669D01*
D02*
G37*
G36*
X525291Y461125D02*
X521951D01*
Y460364D01*
Y460357D01*
Y460344D01*
Y460325D01*
Y460295D01*
Y460259D01*
X521955Y460220D01*
Y460174D01*
X521958Y460128D01*
X521961Y460026D01*
X521971Y459925D01*
X521978Y459875D01*
X521981Y459829D01*
X521991Y459787D01*
X521997Y459747D01*
Y459744D01*
X522001Y459737D01*
X522004Y459724D01*
X522011Y459705D01*
X522017Y459685D01*
X522024Y459662D01*
X522047Y459603D01*
X522076Y459537D01*
X522112Y459472D01*
X522155Y459403D01*
X522207Y459337D01*
X522211Y459334D01*
X522214Y459331D01*
X522224Y459321D01*
X522237Y459311D01*
X522253Y459295D01*
X522273Y459282D01*
X522296Y459262D01*
X522322Y459242D01*
X522355Y459223D01*
X522391Y459200D01*
X522430Y459177D01*
X522473Y459157D01*
X522522Y459134D01*
X522575Y459111D01*
X522631Y459091D01*
X522693Y459072D01*
X522696D01*
X522709Y459068D01*
X522729Y459062D01*
X522755Y459055D01*
X522791Y459049D01*
X522831Y459039D01*
X522880Y459029D01*
X522935Y459019D01*
X522998Y459009D01*
X523070Y458999D01*
X523145Y458990D01*
X523228Y458983D01*
X523316Y458977D01*
X523411Y458970D01*
X523513Y458967D01*
X523713D01*
X523762Y458970D01*
X523821Y458973D01*
X523883Y458977D01*
X523949Y458980D01*
X524021Y458986D01*
X524097Y458993D01*
X524244Y459009D01*
X524316Y459023D01*
X524389Y459036D01*
X524454Y459052D01*
X524516Y459072D01*
X524520D01*
X524530Y459075D01*
X524546Y459082D01*
X524569Y459091D01*
X524595Y459101D01*
X524625Y459114D01*
X524657Y459127D01*
X524694Y459147D01*
X524772Y459187D01*
X524854Y459236D01*
X524930Y459295D01*
X525002Y459360D01*
X525005Y459364D01*
X525008Y459370D01*
X525018Y459380D01*
X525032Y459393D01*
X525045Y459413D01*
X525061Y459433D01*
X525081Y459459D01*
X525097Y459488D01*
X525117Y459521D01*
X525140Y459554D01*
X525179Y459636D01*
X525212Y459728D01*
X525241Y459829D01*
Y459833D01*
X525245Y459839D01*
Y459852D01*
X525248Y459872D01*
X525254Y459898D01*
X525258Y459931D01*
X525261Y459967D01*
X525268Y460013D01*
X525271Y460066D01*
X525274Y460128D01*
X525281Y460197D01*
X525284Y460272D01*
X525287Y460357D01*
Y460449D01*
X525291Y460554D01*
Y460666D01*
Y461125D01*
D02*
G37*
G36*
X423335Y411669D02*
X422764D01*
Y408330D01*
X423630D01*
X423669Y408333D01*
X423715D01*
X423761Y408336D01*
X423863Y408340D01*
X423965Y408350D01*
X424014Y408356D01*
X424060Y408359D01*
X424102Y408369D01*
X424142Y408376D01*
X424145D01*
X424152Y408379D01*
X424165Y408382D01*
X424184Y408389D01*
X424204Y408395D01*
X424227Y408402D01*
X424286Y408425D01*
X424352Y408455D01*
X424417Y408491D01*
X424486Y408533D01*
X424552Y408586D01*
X424555Y408589D01*
X424558Y408592D01*
X424568Y408602D01*
X424578Y408615D01*
X424594Y408632D01*
X424608Y408651D01*
X424627Y408674D01*
X424647Y408701D01*
X424667Y408733D01*
X424689Y408769D01*
X424713Y408809D01*
X424732Y408851D01*
X424755Y408901D01*
X424778Y408953D01*
X424798Y409009D01*
X424817Y409071D01*
Y409074D01*
X424821Y409088D01*
X424827Y409107D01*
X424834Y409133D01*
X424840Y409169D01*
X424850Y409209D01*
X424860Y409258D01*
X424870Y409314D01*
X424880Y409376D01*
X424890Y409448D01*
X424899Y409524D01*
X424906Y409606D01*
X424913Y409694D01*
X424919Y409789D01*
X424922Y409891D01*
Y409996D01*
Y409999D01*
Y410003D01*
Y410022D01*
Y410052D01*
Y410091D01*
X424919Y410140D01*
X424916Y410199D01*
X424913Y410262D01*
X424909Y410327D01*
X424903Y410399D01*
X424896Y410475D01*
X424880Y410623D01*
X424867Y410695D01*
X424854Y410767D01*
X424837Y410833D01*
X424817Y410895D01*
Y410898D01*
X424814Y410908D01*
X424808Y410924D01*
X424798Y410947D01*
X424788Y410974D01*
X424775Y411003D01*
X424762Y411036D01*
X424742Y411072D01*
X424703Y411151D01*
X424653Y411233D01*
X424594Y411308D01*
X424529Y411380D01*
X424525Y411383D01*
X424519Y411387D01*
X424509Y411397D01*
X424496Y411410D01*
X424476Y411423D01*
X424457Y411439D01*
X424430Y411459D01*
X424401Y411475D01*
X424368Y411495D01*
X424335Y411518D01*
X424253Y411557D01*
X424161Y411590D01*
X424060Y411620D01*
X424056D01*
X424050Y411623D01*
X424037D01*
X424017Y411626D01*
X423991Y411633D01*
X423958Y411636D01*
X423922Y411639D01*
X423876Y411646D01*
X423824Y411649D01*
X423761Y411653D01*
X423692Y411659D01*
X423617Y411662D01*
X423532Y411666D01*
X423440D01*
X423335Y411669D01*
D02*
G37*
G36*
X449988Y443939D02*
X449958D01*
X449935Y443936D01*
X449909Y443933D01*
X449876Y443926D01*
X449843Y443920D01*
X449804Y443910D01*
X449764Y443900D01*
X449722Y443884D01*
X449679Y443864D01*
X449633Y443844D01*
X449591Y443815D01*
X449548Y443785D01*
X449505Y443749D01*
X449466Y443710D01*
X449463Y443707D01*
X449456Y443700D01*
X449446Y443687D01*
X449433Y443667D01*
X449417Y443644D01*
X449401Y443615D01*
X449381Y443582D01*
X449364Y443546D01*
X449345Y443503D01*
X449325Y443454D01*
X449309Y443405D01*
X449292Y443349D01*
X449279Y443287D01*
X449269Y443224D01*
X449266Y443156D01*
X449263Y443083D01*
X450706D01*
Y443087D01*
Y443103D01*
X450703Y443123D01*
Y443152D01*
X450696Y443188D01*
X450693Y443228D01*
X450686Y443274D01*
X450676Y443320D01*
X450650Y443425D01*
X450631Y443477D01*
X450611Y443530D01*
X450588Y443582D01*
X450558Y443631D01*
X450526Y443677D01*
X450489Y443720D01*
X450486Y443723D01*
X450480Y443730D01*
X450470Y443739D01*
X450453Y443756D01*
X450434Y443772D01*
X450407Y443789D01*
X450381Y443808D01*
X450348Y443831D01*
X450316Y443851D01*
X450276Y443871D01*
X450191Y443907D01*
X450145Y443920D01*
X450093Y443930D01*
X450043Y443936D01*
X449988Y443939D01*
D02*
G37*
G36*
X433923Y401669D02*
X432827D01*
Y400390D01*
X433700D01*
X433755Y400393D01*
X433824D01*
X433893Y400396D01*
X433972D01*
X434126Y400406D01*
X434205Y400409D01*
X434277Y400416D01*
X434343Y400422D01*
X434405Y400432D01*
X434457Y400442D01*
X434497Y400452D01*
X434500D01*
X434503Y400455D01*
X434513Y400459D01*
X434526Y400465D01*
X434559Y400478D01*
X434602Y400501D01*
X434648Y400531D01*
X434693Y400567D01*
X434739Y400613D01*
X434782Y400665D01*
Y400668D01*
X434785Y400672D01*
X434792Y400682D01*
X434798Y400691D01*
X434815Y400724D01*
X434835Y400770D01*
X434851Y400823D01*
X434867Y400888D01*
X434880Y400960D01*
X434884Y401042D01*
Y401046D01*
Y401052D01*
Y401069D01*
X434880Y401085D01*
Y401108D01*
X434877Y401131D01*
X434867Y401190D01*
X434851Y401256D01*
X434828Y401325D01*
X434795Y401390D01*
X434749Y401452D01*
Y401456D01*
X434743Y401459D01*
X434723Y401479D01*
X434693Y401505D01*
X434651Y401538D01*
X434595Y401571D01*
X434529Y401603D01*
X434454Y401633D01*
X434366Y401652D01*
X434349D01*
X434336Y401656D01*
X434316D01*
X434293Y401659D01*
X434264D01*
X434228Y401662D01*
X434129D01*
X434070Y401666D01*
X434001D01*
X433923Y401669D01*
D02*
G37*
G36*
X428422Y411669D02*
X427851D01*
Y408330D01*
X428717D01*
X428757Y408333D01*
X428803D01*
X428849Y408336D01*
X428950Y408340D01*
X429052Y408350D01*
X429101Y408356D01*
X429147Y408359D01*
X429190Y408369D01*
X429229Y408376D01*
X429232D01*
X429239Y408379D01*
X429252Y408382D01*
X429272Y408389D01*
X429291Y408395D01*
X429314Y408402D01*
X429373Y408425D01*
X429439Y408455D01*
X429505Y408491D01*
X429573Y408533D01*
X429639Y408586D01*
X429642Y408589D01*
X429646Y408592D01*
X429655Y408602D01*
X429665Y408615D01*
X429682Y408632D01*
X429695Y408651D01*
X429714Y408674D01*
X429734Y408701D01*
X429754Y408733D01*
X429777Y408769D01*
X429800Y408809D01*
X429819Y408851D01*
X429842Y408901D01*
X429865Y408953D01*
X429885Y409009D01*
X429905Y409071D01*
Y409074D01*
X429908Y409088D01*
X429915Y409107D01*
X429921Y409133D01*
X429928Y409169D01*
X429938Y409209D01*
X429947Y409258D01*
X429957Y409314D01*
X429967Y409376D01*
X429977Y409448D01*
X429987Y409524D01*
X429993Y409606D01*
X430000Y409694D01*
X430006Y409789D01*
X430010Y409891D01*
Y409996D01*
Y409999D01*
Y410003D01*
Y410022D01*
Y410052D01*
Y410091D01*
X430006Y410140D01*
X430003Y410199D01*
X430000Y410262D01*
X429997Y410327D01*
X429990Y410399D01*
X429983Y410475D01*
X429967Y410623D01*
X429954Y410695D01*
X429941Y410767D01*
X429924Y410833D01*
X429905Y410895D01*
Y410898D01*
X429901Y410908D01*
X429895Y410924D01*
X429885Y410947D01*
X429875Y410974D01*
X429862Y411003D01*
X429849Y411036D01*
X429829Y411072D01*
X429790Y411151D01*
X429741Y411233D01*
X429682Y411308D01*
X429616Y411380D01*
X429613Y411383D01*
X429606Y411387D01*
X429596Y411397D01*
X429583Y411410D01*
X429564Y411423D01*
X429544Y411439D01*
X429518Y411459D01*
X429488Y411475D01*
X429455Y411495D01*
X429423Y411518D01*
X429341Y411557D01*
X429249Y411590D01*
X429147Y411620D01*
X429144D01*
X429137Y411623D01*
X429124D01*
X429104Y411626D01*
X429078Y411633D01*
X429045Y411636D01*
X429009Y411639D01*
X428963Y411646D01*
X428911Y411649D01*
X428849Y411653D01*
X428780Y411659D01*
X428704Y411662D01*
X428619Y411666D01*
X428527D01*
X428422Y411669D01*
D02*
G37*
G36*
X457827Y443939D02*
X457797D01*
X457774Y443936D01*
X457748Y443933D01*
X457715Y443926D01*
X457683Y443920D01*
X457643Y443910D01*
X457604Y443900D01*
X457561Y443884D01*
X457518Y443864D01*
X457473Y443844D01*
X457430Y443815D01*
X457387Y443785D01*
X457345Y443749D01*
X457305Y443710D01*
X457302Y443707D01*
X457295Y443700D01*
X457286Y443687D01*
X457272Y443667D01*
X457256Y443644D01*
X457240Y443615D01*
X457220Y443582D01*
X457204Y443546D01*
X457184Y443503D01*
X457164Y443454D01*
X457148Y443405D01*
X457131Y443349D01*
X457118Y443287D01*
X457108Y443224D01*
X457105Y443156D01*
X457102Y443083D01*
X458545D01*
Y443087D01*
Y443103D01*
X458542Y443123D01*
Y443152D01*
X458535Y443188D01*
X458532Y443228D01*
X458525Y443274D01*
X458516Y443320D01*
X458489Y443425D01*
X458470Y443477D01*
X458450Y443530D01*
X458427Y443582D01*
X458397Y443631D01*
X458365Y443677D01*
X458329Y443720D01*
X458325Y443723D01*
X458319Y443730D01*
X458309Y443739D01*
X458292Y443756D01*
X458273Y443772D01*
X458247Y443789D01*
X458220Y443808D01*
X458188Y443831D01*
X458155Y443851D01*
X458115Y443871D01*
X458030Y443907D01*
X457984Y443920D01*
X457932Y443930D01*
X457882Y443936D01*
X457827Y443939D01*
D02*
G37*
G36*
X418234Y431669D02*
X417552D01*
Y430239D01*
X418208D01*
X418257Y430242D01*
X418310D01*
X418372Y430245D01*
X418438Y430249D01*
X418572Y430259D01*
X418638Y430265D01*
X418704Y430272D01*
X418766Y430281D01*
X418822Y430291D01*
X418871Y430304D01*
X418913Y430317D01*
X418917D01*
X418923Y430321D01*
X418933Y430327D01*
X418946Y430334D01*
X418982Y430350D01*
X419028Y430377D01*
X419081Y430413D01*
X419133Y430455D01*
X419186Y430505D01*
X419232Y430563D01*
Y430567D01*
X419238Y430570D01*
X419241Y430580D01*
X419251Y430593D01*
X419258Y430609D01*
X419268Y430629D01*
X419291Y430678D01*
X419314Y430734D01*
X419330Y430803D01*
X419343Y430875D01*
X419350Y430957D01*
Y430960D01*
Y430970D01*
Y430983D01*
X419346Y431003D01*
Y431026D01*
X419340Y431052D01*
X419330Y431118D01*
X419310Y431190D01*
X419281Y431265D01*
X419261Y431301D01*
X419241Y431341D01*
X419215Y431377D01*
X419186Y431410D01*
X419182Y431413D01*
X419179Y431416D01*
X419169Y431426D01*
X419156Y431439D01*
X419140Y431452D01*
X419123Y431469D01*
X419074Y431505D01*
X419015Y431544D01*
X418946Y431580D01*
X418867Y431610D01*
X418779Y431633D01*
X418776D01*
X418769Y431636D01*
X418759D01*
X418743Y431639D01*
X418720Y431643D01*
X418690Y431646D01*
X418658Y431649D01*
X418618Y431652D01*
X418572Y431656D01*
X418520Y431659D01*
X418458D01*
X418392Y431662D01*
X418317Y431666D01*
X418234Y431669D01*
D02*
G37*
G36*
X428301D02*
X427730D01*
Y428330D01*
X428596D01*
X428635Y428333D01*
X428681D01*
X428727Y428336D01*
X428829Y428340D01*
X428931Y428349D01*
X428980Y428356D01*
X429026Y428359D01*
X429068Y428369D01*
X429108Y428376D01*
X429111D01*
X429117Y428379D01*
X429131Y428382D01*
X429150Y428389D01*
X429170Y428395D01*
X429193Y428402D01*
X429252Y428425D01*
X429318Y428454D01*
X429383Y428490D01*
X429452Y428533D01*
X429518Y428586D01*
X429521Y428589D01*
X429524Y428592D01*
X429534Y428602D01*
X429544Y428615D01*
X429560Y428632D01*
X429573Y428651D01*
X429593Y428674D01*
X429613Y428700D01*
X429633Y428733D01*
X429655Y428769D01*
X429678Y428809D01*
X429698Y428851D01*
X429721Y428901D01*
X429744Y428953D01*
X429764Y429009D01*
X429783Y429071D01*
Y429074D01*
X429787Y429087D01*
X429793Y429107D01*
X429800Y429133D01*
X429806Y429170D01*
X429816Y429209D01*
X429826Y429258D01*
X429836Y429314D01*
X429846Y429376D01*
X429855Y429448D01*
X429865Y429524D01*
X429872Y429606D01*
X429879Y429694D01*
X429885Y429789D01*
X429888Y429891D01*
Y429996D01*
Y429999D01*
Y430003D01*
Y430022D01*
Y430052D01*
Y430091D01*
X429885Y430140D01*
X429882Y430199D01*
X429879Y430262D01*
X429875Y430327D01*
X429869Y430400D01*
X429862Y430475D01*
X429846Y430622D01*
X429833Y430695D01*
X429819Y430767D01*
X429803Y430832D01*
X429783Y430895D01*
Y430898D01*
X429780Y430908D01*
X429774Y430924D01*
X429764Y430947D01*
X429754Y430973D01*
X429741Y431003D01*
X429728Y431036D01*
X429708Y431072D01*
X429669Y431151D01*
X429619Y431233D01*
X429560Y431308D01*
X429495Y431380D01*
X429491Y431384D01*
X429485Y431387D01*
X429475Y431397D01*
X429462Y431410D01*
X429442Y431423D01*
X429423Y431439D01*
X429396Y431459D01*
X429367Y431475D01*
X429334Y431495D01*
X429301Y431518D01*
X429219Y431557D01*
X429127Y431590D01*
X429026Y431620D01*
X429022D01*
X429016Y431623D01*
X429003D01*
X428983Y431626D01*
X428957Y431633D01*
X428924Y431636D01*
X428888Y431639D01*
X428842Y431646D01*
X428790Y431649D01*
X428727Y431652D01*
X428658Y431659D01*
X428583Y431662D01*
X428498Y431666D01*
X428406D01*
X428301Y431669D01*
D02*
G37*
G36*
X428862Y421669D02*
X428291D01*
Y418330D01*
X429157D01*
X429196Y418333D01*
X429242D01*
X429288Y418336D01*
X429390Y418340D01*
X429491Y418350D01*
X429541Y418356D01*
X429587Y418359D01*
X429629Y418369D01*
X429669Y418376D01*
X429672D01*
X429678Y418379D01*
X429692Y418382D01*
X429711Y418389D01*
X429731Y418395D01*
X429754Y418402D01*
X429813Y418425D01*
X429879Y418455D01*
X429944Y418491D01*
X430013Y418533D01*
X430079Y418586D01*
X430082Y418589D01*
X430085Y418592D01*
X430095Y418602D01*
X430105Y418615D01*
X430121Y418632D01*
X430134Y418651D01*
X430154Y418674D01*
X430174Y418701D01*
X430193Y418733D01*
X430216Y418769D01*
X430239Y418809D01*
X430259Y418851D01*
X430282Y418901D01*
X430305Y418953D01*
X430325Y419009D01*
X430344Y419071D01*
Y419074D01*
X430347Y419088D01*
X430354Y419107D01*
X430361Y419133D01*
X430367Y419170D01*
X430377Y419209D01*
X430387Y419258D01*
X430397Y419314D01*
X430407Y419376D01*
X430416Y419448D01*
X430426Y419524D01*
X430433Y419606D01*
X430439Y419694D01*
X430446Y419789D01*
X430449Y419891D01*
Y419996D01*
Y419999D01*
Y420003D01*
Y420022D01*
Y420052D01*
Y420091D01*
X430446Y420140D01*
X430443Y420199D01*
X430439Y420262D01*
X430436Y420327D01*
X430430Y420400D01*
X430423Y420475D01*
X430407Y420622D01*
X430393Y420695D01*
X430380Y420767D01*
X430364Y420832D01*
X430344Y420895D01*
Y420898D01*
X430341Y420908D01*
X430334Y420924D01*
X430325Y420947D01*
X430315Y420973D01*
X430302Y421003D01*
X430289Y421036D01*
X430269Y421072D01*
X430229Y421151D01*
X430180Y421233D01*
X430121Y421308D01*
X430056Y421380D01*
X430052Y421383D01*
X430046Y421387D01*
X430036Y421397D01*
X430023Y421410D01*
X430003Y421423D01*
X429983Y421439D01*
X429957Y421459D01*
X429928Y421475D01*
X429895Y421495D01*
X429862Y421518D01*
X429780Y421557D01*
X429688Y421590D01*
X429587Y421620D01*
X429583D01*
X429577Y421623D01*
X429564D01*
X429544Y421626D01*
X429518Y421633D01*
X429485Y421636D01*
X429449Y421639D01*
X429403Y421646D01*
X429350Y421649D01*
X429288Y421653D01*
X429219Y421659D01*
X429144Y421662D01*
X429059Y421666D01*
X428967D01*
X428862Y421669D01*
D02*
G37*
G36*
X445573Y445133D02*
X444477D01*
Y443854D01*
X445350D01*
X445405Y443857D01*
X445474D01*
X445543Y443861D01*
X445622D01*
X445776Y443871D01*
X445855Y443874D01*
X445927Y443881D01*
X445993Y443887D01*
X446055Y443897D01*
X446107Y443907D01*
X446147Y443917D01*
X446150D01*
X446153Y443920D01*
X446163Y443923D01*
X446176Y443930D01*
X446209Y443943D01*
X446252Y443966D01*
X446298Y443995D01*
X446344Y444031D01*
X446389Y444077D01*
X446432Y444130D01*
Y444133D01*
X446435Y444136D01*
X446442Y444146D01*
X446449Y444156D01*
X446465Y444189D01*
X446485Y444235D01*
X446501Y444287D01*
X446517Y444353D01*
X446530Y444425D01*
X446534Y444507D01*
Y444510D01*
Y444517D01*
Y444533D01*
X446530Y444550D01*
Y444573D01*
X446527Y444595D01*
X446517Y444655D01*
X446501Y444720D01*
X446478Y444789D01*
X446445Y444855D01*
X446399Y444917D01*
Y444920D01*
X446393Y444923D01*
X446373Y444943D01*
X446344Y444969D01*
X446301Y445002D01*
X446245Y445035D01*
X446179Y445068D01*
X446104Y445097D01*
X446016Y445117D01*
X445999D01*
X445986Y445120D01*
X445966D01*
X445943Y445124D01*
X445914D01*
X445878Y445127D01*
X445779D01*
X445720Y445130D01*
X445651D01*
X445573Y445133D01*
D02*
G37*
%LPD*%
M02*
